SplineFontDB: 3.0
FontName: Cutive-Regular
FullName: Cutive
FamilyName: Cutive
Weight: Book
Copyright: Copyright (c) 2012, vernon adams (vern@newtypography.co.uk), with Reserved Font Names "Cutive"
Version: 1.001
ItalicAngle: 0
UnderlinePosition: 0
UnderlineWidth: 102
Ascent: 1638
Descent: 410
sfntRevision: 0x00010000
LayerCount: 2
Layer: 0 1 "Back"  1
Layer: 1 1 "Fore"  0
XUID: [1021 288 713564382 15939439]
FSType: 0
OS2Version: 3
OS2_WeightWidthSlopeOnly: 0
OS2_UseTypoMetrics: 1
CreationTime: 1329396731
ModificationTime: 1330112685
PfmFamily: 81
TTFWeight: 400
TTFWidth: 5
LineGap: 0
VLineGap: 0
Panose: 0 0 0 0 0 0 0 0 0 0
OS2TypoAscent: 726
OS2TypoAOffset: 1
OS2TypoDescent: 1193
OS2TypoDOffset: 1
OS2TypoLinegap: 0
OS2WinAscent: 0
OS2WinAOffset: 1
OS2WinDescent: 0
OS2WinDOffset: 1
HheadAscent: 0
HheadAOffset: 1
HheadDescent: 1566
HheadDOffset: 1
OS2SubXSize: 6015
OS2SubYSize: 5583
OS2SubXOff: 0
OS2SubYOff: 1204
OS2SupXSize: 6015
OS2SupYSize: 5583
OS2SupXOff: 0
OS2SupYOff: 4098
OS2StrikeYSize: 209
OS2StrikeYPos: 1049
OS2Vendor: 'newt'
OS2CodePages: 00000001.00000000
OS2UnicodeRanges: 80000027.00000000.00000000.00000000
Lookup: 4 0 1 "'liga' Standard Ligatures in Latin lookup 0"  {"'liga' Standard Ligatures in Latin lookup 0 subtable"  } ['liga' ('DFLT' <'dflt' > 'latn' <'dflt' > ) ]
Lookup: 4 0 1 "'liga' Standard Ligatures in Latin lookup 1"  {"'liga' Standard Ligatures in Latin lookup 1 subtable"  } ['liga' ('latn' <'dflt' > ) ]
Lookup: 258 0 0 "'kern' Horizontal Kerning in Latin lookup 0"  {"'kern' Horizontal Kerning in Latin lookup 0 per glyph data 0"  "'kern' Horizontal Kerning in Latin lookup 0 per glyph data 1"  "'kern' Horizontal Kerning in Latin lookup 0 kerning class 2"  } ['kern' ('DFLT' <'dflt' > 'latn' <'dflt' > ) ]
DEI: 91125
KernClass2: 11+ 11 "'kern' Horizontal Kerning in Latin lookup 0 kerning class 2" 
 81 A Agrave Aacute Acircumflex Atilde Adieresis Aring Amacron Abreve Aogonek uni0202

StartChar: exclam
Encoding: 33 33 4
Width: 728
GlyphClass: 2
Flags: W
LayerCount: 2
Fore
SplineSet
367 1739 m 0,0,1
 502 1739 502 1739 502 1560 c 0,2,3
 502 1488 502 1488 495.5 1395 c 128,-1,4
 489 1302 489 1302 476 1185 c 0,5,6
 428 744 428 744 428 557 c 0,7,8
 428 531 428 531 410 513.5 c 128,-1,9
 392 496 392 496 366 496 c 0,10,11
 341 496 341 496 323 513.5 c 128,-1,12
 305 531 305 531 305 557 c 0,13,14
 305 615 305 615 301 685 c 128,-1,15
 297 755 297 755 291.5 828.5 c 128,-1,16
 286 902 286 902 278.5 976.5 c 128,-1,17
 271 1051 271 1051 264 1118.5 c 128,-1,18
 257 1186 257 1186 251 1242 c 128,-1,19
 245 1298 245 1298 242 1336 c 0,20,21
 236 1400 236 1400 233.5 1463.5 c 128,-1,22
 231 1527 231 1527 231 1591 c 0,23,24
 231 1663 231 1663 269 1701 c 128,-1,25
 307 1739 307 1739 367 1739 c 0,0,1
364 -25 m 0,26,27
 326 -25 326 -25 294 -11 c 128,-1,28
 262 3 262 3 238.5 27 c 128,-1,29
 215 51 215 51 201.5 83.5 c 128,-1,30
 188 116 188 116 188 152 c 0,31,32
 188 191 188 191 202 223 c 128,-1,33
 216 255 216 255 240.5 278.5 c 128,-1,34
 265 302 265 302 297 315 c 128,-1,35
 329 328 329 328 365 328 c 0,36,37
 402 328 402 328 434 314.5 c 128,-1,38
 466 301 466 301 490 277 c 128,-1,39
 514 253 514 253 527.5 221 c 128,-1,40
 541 189 541 189 541 152 c 0,41,42
 541 116 541 116 528 84 c 128,-1,43
 515 52 515 52 491.5 28 c 128,-1,44
 468 4 468 4 435.5 -10.5 c 128,-1,45
 403 -25 403 -25 364 -25 c 0,26,27
EndSplineSet
EndChar

StartChar: quotedbl
Encoding: 34 34 5
Width: 879
GlyphClass: 2
Flags: W
LayerCount: 2
Fore
SplineSet
742 1938 m 1,0,-1
 689 1377 l 2,1,2
 687 1362 687 1362 680.5 1351.5 c 128,-1,3
 674 1341 674 1341 665 1333.5 c 128,-1,4
 656 1326 656 1326 646 1322.5 c 128,-1,5
 636 1319 636 1319 629 1319 c 0,6,7
 599 1319 599 1319 580 1337 c 128,-1,8
 561 1355 561 1355 559 1377 c 2,9,-1
 505 1924 l 2,10,11
 504 1925 504 1925 504 1930 c 2,12,-1
 504 1941 l 2,13,14
 504 1992 504 1992 533.5 2025 c 128,-1,15
 563 2058 563 2058 620 2058 c 0,16,17
 645 2058 645 2058 667.5 2049 c 128,-1,18
 690 2040 690 2040 706.5 2024.5 c 128,-1,19
 723 2009 723 2009 732.5 1987 c 128,-1,20
 742 1965 742 1965 742 1938 c 1,0,-1
363 1377 m 2,21,22
 361 1362 361 1362 354.5 1351.5 c 128,-1,23
 348 1341 348 1341 339 1333.5 c 128,-1,24
 330 1326 330 1326 320 1322.5 c 128,-1,25
 310 1319 310 1319 303 1319 c 0,26,27
 273 1319 273 1319 254 1337 c 128,-1,28
 235 1355 235 1355 233 1377 c 2,29,-1
 179 1924 l 2,30,31
 178 1927 178 1927 178 1932 c 2,32,-1
 178 1941 l 2,33,34
 178 1992 178 1992 207.5 2025 c 128,-1,35
 237 2058 237 2058 294 2058 c 0,36,37
 319 2058 319 2058 341.5 2049 c 128,-1,38
 364 2040 364 2040 380.5 2024.5 c 128,-1,39
 397 2009 397 2009 406.5 1987 c 128,-1,40
 416 1965 416 1965 416 1938 c 0,41,42
 416 1925 416 1925 415 1922 c 2,43,-1
 363 1377 l 2,21,22
EndSplineSet
EndChar

StartChar: numbersign
Encoding: 35 35 6
Width: 1727
GlyphClass: 2
Flags: W
LayerCount: 2
Fore
SplineSet
1561 1133 m 2,0,1
 1579 1133 1579 1133 1594 1126 c 128,-1,2
 1609 1119 1609 1119 1620.5 1108.5 c 128,-1,3
 1632 1098 1632 1098 1638.5 1084 c 128,-1,4
 1645 1070 1645 1070 1645 1057 c 0,5,6
 1645 1033 1645 1033 1637.5 1015.5 c 128,-1,7
 1630 998 1630 998 1618 986.5 c 128,-1,8
 1606 975 1606 975 1591.5 970 c 128,-1,9
 1577 965 1577 965 1562 965 c 2,10,-1
 230 965 l 2,11,12
 195 965 195 965 170.5 987 c 128,-1,13
 146 1009 146 1009 146 1057 c 0,14,15
 146 1070 146 1070 152.5 1084 c 128,-1,16
 159 1098 159 1098 170.5 1108.5 c 128,-1,17
 182 1119 182 1119 197 1126 c 128,-1,18
 212 1133 212 1133 230 1133 c 2,19,-1
 1561 1133 l 2,0,1
1499 732 m 2,20,21
 1517 732 1517 732 1532 725 c 128,-1,22
 1547 718 1547 718 1558.5 707.5 c 128,-1,23
 1570 697 1570 697 1576.5 683 c 128,-1,24
 1583 669 1583 669 1583 656 c 0,25,26
 1583 632 1583 632 1576 614.5 c 128,-1,27
 1569 597 1569 597 1557 586 c 128,-1,28
 1545 575 1545 575 1530 569.5 c 128,-1,29
 1515 564 1515 564 1500 564 c 2,30,-1
 168 564 l 2,31,32
 133 564 133 564 108.5 586 c 128,-1,33
 84 608 84 608 84 656 c 0,34,35
 84 669 84 669 90.5 683 c 128,-1,36
 97 697 97 697 108.5 707.5 c 128,-1,37
 120 718 120 718 135 725 c 128,-1,38
 150 732 150 732 168 732 c 2,39,-1
 1499 732 l 2,20,21
1465 1968 m 0,40,41
 1498 1944 1498 1944 1498 1910 c 2,42,-1
 1498 1902 l 2,43,44
 1498 1900 1498 1900 1496 1894 c 2,45,-1
 936 -327 l 2,46,47
 928 -355 928 -355 912 -372.5 c 128,-1,48
 896 -390 896 -390 869 -390 c 0,49,50
 817 -390 817 -390 788 -367.5 c 128,-1,51
 759 -345 759 -345 759 -313 c 0,52,53
 759 -303 759 -303 762 -294 c 2,54,-1
 1326 1935 l 1,55,56
 1331 1960 1331 1960 1349.5 1974 c 128,-1,57
 1368 1988 1368 1988 1392 1988 c 256,58,59
 1416 1988 1416 1988 1433.5 1983 c 128,-1,60
 1451 1978 1451 1978 1465 1968 c 0,40,41
868 1969 m 0,61,62
 901 1946 901 1946 901 1910 c 0,63,64
 901 1906 901 1906 899 1896 c 2,65,-1
 344 -320 l 2,66,67
 336 -348 336 -348 320 -365.5 c 128,-1,68
 304 -383 304 -383 277 -383 c 0,69,70
 223 -383 223 -383 195 -360.5 c 128,-1,71
 167 -338 167 -338 167 -306 c 0,72,73
 167 -298 167 -298 170 -287 c 2,74,-1
 729 1936 l 1,75,76
 734 1961 734 1961 752.5 1975 c 128,-1,77
 771 1989 771 1989 795 1989 c 256,78,79
 819 1989 819 1989 836.5 1984 c 128,-1,80
 854 1979 854 1979 868 1969 c 0,61,62
EndSplineSet
EndChar

StartChar: dollar
Encoding: 36 36 7
Width: 1630
GlyphClass: 2
Flags: W
LayerCount: 2
Fore
SplineSet
1410 1309 m 1,0,1
 1410 1227 1410 1227 1318 1227 c 0,2,3
 1280 1227 1280 1227 1258.5 1242.5 c 128,-1,4
 1237 1258 1237 1258 1234 1290 c 2,5,-1
 1226 1372 l 2,6,7
 1221 1418 1221 1418 1196 1455 c 128,-1,8
 1171 1492 1171 1492 1128.5 1518 c 128,-1,9
 1086 1544 1086 1544 1028 1560 c 128,-1,10
 970 1576 970 1576 900 1580 c 1,11,-1
 900 997 l 1,12,-1
 1023 967 l 1,13,14
 1141 937 1141 937 1225.5 892.5 c 128,-1,15
 1310 848 1310 848 1364 786 c 128,-1,16
 1418 724 1418 724 1443 642.5 c 128,-1,17
 1468 561 1468 561 1468 458 c 0,18,19
 1468 354 1468 354 1429.5 270.5 c 128,-1,20
 1391 187 1391 187 1318.5 125.5 c 128,-1,21
 1246 64 1246 64 1140.5 26.5 c 128,-1,22
 1035 -11 1035 -11 900 -23 c 1,23,-1
 900 -144 l 2,24,25
 900 -171 900 -171 880.5 -190.5 c 128,-1,26
 861 -210 861 -210 834 -210 c 256,27,28
 807 -210 807 -210 787.5 -190.5 c 128,-1,29
 768 -171 768 -171 768 -144 c 2,30,-1
 768 -27 l 1,31,32
 570 -22 570 -22 392 45 c 1,33,34
 388 10 388 10 361.5 -7.5 c 128,-1,35
 335 -25 335 -25 300 -25 c 0,36,37
 223 -25 223 -25 216 39 c 2,38,-1
 159 535 l 1,39,40
 159 614 159 614 255 614 c 0,41,42
 285 614 285 614 308 596.5 c 128,-1,43
 331 579 331 579 335 549 c 2,44,-1
 351 410 l 2,45,46
 358 348 358 348 392 299.5 c 128,-1,47
 426 251 426 251 480.5 218 c 128,-1,48
 535 185 535 185 608.5 167.5 c 128,-1,49
 682 150 682 150 768 150 c 1,50,-1
 768 794 l 1,51,-1
 660 825 l 1,52,53
 246 916 246 916 246 1271 c 0,54,55
 246 1368 246 1368 283.5 1450 c 128,-1,56
 321 1532 321 1532 389.5 1592.5 c 128,-1,57
 458 1653 458 1653 554.5 1690.5 c 128,-1,58
 651 1728 651 1728 768 1737 c 1,59,-1
 768 1854 l 2,60,61
 768 1881 768 1881 787.5 1900.5 c 128,-1,62
 807 1920 807 1920 834 1920 c 256,63,64
 861 1920 861 1920 880.5 1900.5 c 128,-1,65
 900 1881 900 1881 900 1854 c 2,66,-1
 900 1736 l 1,67,68
 1094 1722 1094 1722 1205 1657 c 1,69,70
 1205 1699 1205 1699 1231 1721 c 128,-1,71
 1257 1743 1257 1743 1293 1743 c 256,72,73
 1329 1743 1329 1743 1352 1725 c 128,-1,74
 1375 1707 1375 1707 1379 1677 c 1,75,-1
 1410 1309 l 1,0,1
900 757 m 1,76,-1
 900 157 l 1,77,78
 985 167 985 167 1052.5 190.5 c 128,-1,79
 1120 214 1120 214 1166.5 251 c 128,-1,80
 1213 288 1213 288 1238 339 c 128,-1,81
 1263 390 1263 390 1263 454 c 0,82,83
 1263 517 1263 517 1247.5 560.5 c 128,-1,84
 1232 604 1232 604 1198.5 635 c 128,-1,85
 1165 666 1165 666 1113 688.5 c 128,-1,86
 1061 711 1061 711 988 732 c 2,87,-1
 900 757 l 1,76,-1
768 1576 m 1,88,89
 467 1546 467 1546 467 1287 c 0,90,91
 467 1189 467 1189 534 1130 c 128,-1,92
 601 1071 601 1071 736 1038 c 2,93,-1
 768 1030 l 1,94,-1
 768 1576 l 1,88,89
EndSplineSet
EndChar

StartChar: percent
Encoding: 37 37 8
Width: 2042
GlyphClass: 2
Flags: W
LayerCount: 2
Fore
SplineSet
702 1577 m 1,0,1
 769 1500 769 1500 769 1378 c 0,2,3
 769 1314 769 1314 755.5 1247.5 c 128,-1,4
 742 1181 742 1181 716 1118 c 128,-1,5
 690 1055 690 1055 652 999.5 c 128,-1,6
 614 944 614 944 565.5 902.5 c 128,-1,7
 517 861 517 861 458 837 c 128,-1,8
 399 813 399 813 330 813 c 0,9,10
 267 813 267 813 219.5 840.5 c 128,-1,11
 172 868 172 868 141 915.5 c 128,-1,12
 110 963 110 963 94.5 1025.5 c 128,-1,13
 79 1088 79 1088 79 1157 c 0,14,15
 79 1221 79 1221 92.5 1288 c 128,-1,16
 106 1355 106 1355 132.5 1418 c 128,-1,17
 159 1481 159 1481 197 1537 c 128,-1,18
 235 1593 235 1593 283.5 1635 c 128,-1,19
 332 1677 332 1677 391 1701.5 c 128,-1,20
 450 1726 450 1726 517 1726 c 2,21,-1
 601 1726 l 2,22,23
 954 1726 954 1726 1135 1778 c 0,24,25
 1355 1841 1355 1841 1492 2009 c 1,26,27
 1515 2056 1515 2056 1558 2056 c 0,28,29
 1582 2056 1582 2056 1599.5 2048.5 c 128,-1,30
 1617 2041 1617 2041 1628.5 2029 c 128,-1,31
 1640 2017 1640 2017 1646 2003 c 128,-1,32
 1652 1989 1652 1989 1652 1976 c 0,33,34
 1652 1956 1652 1956 1644 1937 c 2,35,-1
 534 -420 l 1,36,37
 510 -467 510 -467 458 -467 c 0,38,39
 437 -467 437 -467 421 -458 c 128,-1,40
 405 -449 405 -449 394.5 -437 c 128,-1,41
 384 -425 384 -425 379 -412 c 128,-1,42
 374 -399 374 -399 374 -390 c 0,43,44
 374 -364 374 -364 380 -346 c 1,45,-1
 1336 1681 l 1,46,47
 1075 1577 1075 1577 702 1577 c 1,0,1
1648 -26 m 0,48,49
 1588 -49 1588 -49 1524 -49 c 0,50,51
 1461 -49 1461 -49 1413.5 -21.5 c 128,-1,52
 1366 6 1366 6 1335 53.5 c 128,-1,53
 1304 101 1304 101 1288.5 163.5 c 128,-1,54
 1273 226 1273 226 1273 295 c 0,55,56
 1273 359 1273 359 1286.5 426 c 128,-1,57
 1300 493 1300 493 1326.5 556 c 128,-1,58
 1353 619 1353 619 1391 675 c 128,-1,59
 1429 731 1429 731 1477.5 773 c 128,-1,60
 1526 815 1526 815 1584.5 839.5 c 128,-1,61
 1643 864 1643 864 1711 864 c 0,62,63
 1769 864 1769 864 1816 838 c 128,-1,64
 1863 812 1863 812 1895.5 765.5 c 128,-1,65
 1928 719 1928 719 1945.5 655 c 128,-1,66
 1963 591 1963 591 1963 516 c 0,67,68
 1963 433 1963 433 1942 349.5 c 128,-1,69
 1921 266 1921 266 1880.5 192.5 c 128,-1,70
 1840 119 1840 119 1781.5 61.5 c 128,-1,71
 1723 4 1723 4 1648 -26 c 0,48,49
1740 250 m 0,72,73
 1805 360 1805 360 1805 492 c 0,74,75
 1805 533 1805 533 1796.5 569 c 128,-1,76
 1788 605 1788 605 1771.5 631.5 c 128,-1,77
 1755 658 1755 658 1729.5 673 c 128,-1,78
 1704 688 1704 688 1671 688 c 0,79,80
 1636 688 1636 688 1604.5 671.5 c 128,-1,81
 1573 655 1573 655 1546 628 c 128,-1,82
 1519 601 1519 601 1498 565 c 128,-1,83
 1477 529 1477 529 1462 490.5 c 128,-1,84
 1447 452 1447 452 1439 413 c 128,-1,85
 1431 374 1431 374 1431 340 c 0,86,87
 1431 234 1431 234 1463 180.5 c 128,-1,88
 1495 127 1495 127 1573 127 c 0,89,90
 1596 127 1596 127 1619 136 c 128,-1,91
 1642 145 1642 145 1664 161.5 c 128,-1,92
 1686 178 1686 178 1705.5 200.5 c 128,-1,93
 1725 223 1725 223 1740 250 c 0,72,73
546 1112 m 0,94,95
 611 1222 611 1222 611 1354 c 0,96,97
 611 1395 611 1395 602.5 1431 c 128,-1,98
 594 1467 594 1467 577.5 1493.5 c 128,-1,99
 561 1520 561 1520 535.5 1535 c 128,-1,100
 510 1550 510 1550 477 1550 c 0,101,102
 441 1550 441 1550 409.5 1533.5 c 128,-1,103
 378 1517 378 1517 351.5 1490 c 128,-1,104
 325 1463 325 1463 303.5 1427.5 c 128,-1,105
 282 1392 282 1392 267.5 1353 c 128,-1,106
 253 1314 253 1314 245 1275.5 c 128,-1,107
 237 1237 237 1237 237 1203 c 0,108,109
 237 1097 237 1097 269.5 1043 c 128,-1,110
 302 989 302 989 379 989 c 0,111,112
 402 989 402 989 425 998 c 128,-1,113
 448 1007 448 1007 470 1023.5 c 128,-1,114
 492 1040 492 1040 511.5 1062.5 c 128,-1,115
 531 1085 531 1085 546 1112 c 0,94,95
EndSplineSet
EndChar

StartChar: ampersand
Encoding: 38 38 9
Width: 1737
GlyphClass: 2
Flags: W
LayerCount: 2
Fore
SplineSet
1112 173 m 1,0,1
 891 -27 891 -27 630 -27 c 0,2,3
 508 -27 508 -27 408 12.5 c 128,-1,4
 308 52 308 52 236.5 123 c 128,-1,5
 165 194 165 194 126 292.5 c 128,-1,6
 87 391 87 391 87 510 c 0,7,8
 87 581 87 581 106.5 638 c 128,-1,9
 126 695 126 695 164.5 745 c 128,-1,10
 203 795 203 795 260.5 840 c 128,-1,11
 318 885 318 885 395 932 c 1,12,13
 306 1076 306 1076 278 1135 c 0,14,15
 216 1267 216 1267 216 1359 c 0,16,17
 216 1453 216 1453 242 1524.5 c 128,-1,18
 268 1596 268 1596 314 1644 c 128,-1,19
 360 1692 360 1692 423.5 1716.5 c 128,-1,20
 487 1741 487 1741 562 1741 c 0,21,22
 645 1741 645 1741 712.5 1713.5 c 128,-1,23
 780 1686 780 1686 827.5 1636.5 c 128,-1,24
 875 1587 875 1587 901 1518 c 128,-1,25
 927 1449 927 1449 927 1366 c 0,26,27
 927 1291 927 1291 909 1228.5 c 128,-1,28
 891 1166 891 1166 855.5 1111 c 128,-1,29
 820 1056 820 1056 767 1007.5 c 128,-1,30
 714 959 714 959 645 912 c 1,31,32
 661 892 661 892 689.5 860 c 128,-1,33
 718 828 718 828 757 780 c 0,34,35
 841 679 841 679 928 589.5 c 128,-1,36
 1015 500 1015 500 1112 423 c 1,37,38
 1217 591 1217 591 1229 797 c 1,39,-1
 1093 797 l 2,40,41
 1058 797 1058 797 1038.5 822.5 c 128,-1,42
 1019 848 1019 848 1019 881 c 0,43,44
 1019 973 1019 973 1091 973 c 2,45,-1
 1566 973 l 2,46,47
 1637 973 1637 973 1637 881 c 0,48,49
 1637 848 1637 848 1618 822.5 c 128,-1,50
 1599 797 1599 797 1564 797 c 2,51,-1
 1403 797 l 1,52,53
 1389 531 1389 531 1243 323 c 1,54,55
 1317 272 1317 272 1388.5 230 c 128,-1,56
 1460 188 1460 188 1531 154 c 0,57,58
 1554 142 1554 142 1575.5 133.5 c 128,-1,59
 1597 125 1597 125 1614 114.5 c 128,-1,60
 1631 104 1631 104 1641.5 88 c 128,-1,61
 1652 72 1652 72 1652 43 c 0,62,63
 1652 -1 1652 -1 1621 -27 c 128,-1,64
 1590 -53 1590 -53 1527 -53 c 0,65,66
 1496 -53 1496 -53 1438 -23 c 0,67,68
 1357 18 1357 18 1276 66.5 c 128,-1,69
 1195 115 1195 115 1112 173 c 1,0,1
981 271 m 1,70,71
 689 502 689 502 482 798 c 1,72,73
 431 759 431 759 398.5 725.5 c 128,-1,74
 366 692 366 692 347 660.5 c 128,-1,75
 328 629 328 629 321 597 c 128,-1,76
 314 565 314 565 314 529 c 0,77,78
 314 440 314 440 339.5 370.5 c 128,-1,79
 365 301 365 301 411.5 253.5 c 128,-1,80
 458 206 458 206 523.5 181 c 128,-1,81
 589 156 589 156 669 156 c 0,82,83
 844 156 844 156 981 271 c 1,70,71
555 1034 m 1,84,85
 610 1073 610 1073 646 1112.5 c 128,-1,86
 682 1152 682 1152 703 1192 c 128,-1,87
 724 1232 724 1232 732 1273 c 128,-1,88
 740 1314 740 1314 740 1356 c 0,89,90
 740 1401 740 1401 727.5 1440.5 c 128,-1,91
 715 1480 715 1480 693.5 1509.5 c 128,-1,92
 672 1539 672 1539 642 1556 c 128,-1,93
 612 1573 612 1573 577 1573 c 0,94,95
 511 1573 511 1573 472 1520 c 128,-1,96
 433 1467 433 1467 433 1375 c 0,97,98
 433 1219 433 1219 555 1034 c 1,84,85
EndSplineSet
EndChar

StartChar: quotesingle
Encoding: 39 39 10
Width: 633
GlyphClass: 2
Flags: W
LayerCount: 2
Fore
SplineSet
363 1377 m 2,0,1
 361 1362 361 1362 354.5 1351.5 c 128,-1,2
 348 1341 348 1341 339 1333.5 c 128,-1,3
 330 1326 330 1326 320 1322.5 c 128,-1,4
 310 1319 310 1319 303 1319 c 0,5,6
 273 1319 273 1319 254 1337 c 128,-1,7
 235 1355 235 1355 233 1377 c 2,8,-1
 179 1924 l 1,9,10
 177 1928 177 1928 177.5 1929 c 128,-1,11
 178 1930 178 1930 178 1941 c 0,12,13
 178 1992 178 1992 207.5 2025 c 128,-1,14
 237 2058 237 2058 294 2058 c 0,15,16
 319 2058 319 2058 341.5 2049 c 128,-1,17
 364 2040 364 2040 380.5 2024.5 c 128,-1,18
 397 2009 397 2009 406.5 1987 c 128,-1,19
 416 1965 416 1965 416 1938 c 0,20,21
 416 1925 416 1925 415 1922 c 2,22,-1
 363 1377 l 2,0,1
EndSplineSet
EndChar

StartChar: parenleft
Encoding: 40 40 11
Width: 789
GlyphClass: 2
Flags: W
LayerCount: 2
Fore
SplineSet
686 -362 m 0,0,1
 715 -397 715 -397 715 -424 c 256,2,3
 715 -451 715 -451 705.5 -470.5 c 128,-1,4
 696 -490 696 -490 681.5 -502 c 128,-1,5
 667 -514 667 -514 649 -520 c 128,-1,6
 631 -526 631 -526 614 -526 c 0,7,8
 595 -526 595 -526 569.5 -512 c 128,-1,9
 544 -498 544 -498 515 -472.5 c 128,-1,10
 486 -447 486 -447 455 -413 c 128,-1,11
 424 -379 424 -379 395 -338 c 0,12,13
 323 -239 323 -239 265 -109.5 c 128,-1,14
 207 20 207 20 166.5 163 c 128,-1,15
 126 306 126 306 104 453 c 128,-1,16
 82 600 82 600 82 735 c 0,17,18
 82 843 82 843 88 935 c 128,-1,19
 94 1027 94 1027 106 1108.5 c 128,-1,20
 118 1190 118 1190 135.5 1264 c 128,-1,21
 153 1338 153 1338 176 1410 c 0,22,23
 198 1480 198 1480 229 1557 c 128,-1,24
 260 1634 260 1634 297 1708 c 128,-1,25
 334 1782 334 1782 374.5 1849.5 c 128,-1,26
 415 1917 415 1917 456 1968 c 128,-1,27
 497 2019 497 2019 536.5 2049 c 128,-1,28
 576 2079 576 2079 611 2079 c 0,29,30
 631 2079 631 2079 649.5 2072.5 c 128,-1,31
 668 2066 668 2066 682.5 2054 c 128,-1,32
 697 2042 697 2042 706 2024.5 c 128,-1,33
 715 2007 715 2007 715 1984 c 0,34,35
 715 1970 715 1970 709 1952.5 c 128,-1,36
 703 1935 703 1935 686 1915 c 0,37,38
 599 1814 599 1814 529 1689.5 c 128,-1,39
 459 1565 459 1565 409 1420 c 128,-1,40
 359 1275 359 1275 332 1112.5 c 128,-1,41
 305 950 305 950 305 775 c 0,42,43
 305 601 305 601 332.5 439 c 128,-1,44
 360 277 360 277 410.5 132 c 128,-1,45
 461 -13 461 -13 531 -138 c 128,-1,46
 601 -263 601 -263 686 -362 c 0,0,1
EndSplineSet
EndChar

StartChar: parenright
Encoding: 41 41 12
Width: 789
GlyphClass: 2
Flags: W
LayerCount: 2
Fore
SplineSet
105 1915 m 0,0,1
 88 1936 88 1936 81.5 1953.5 c 128,-1,2
 75 1971 75 1971 75 1986 c 0,3,4
 75 2008 75 2008 85 2025.5 c 128,-1,5
 95 2043 95 2043 109.5 2055 c 128,-1,6
 124 2067 124 2067 141 2073 c 128,-1,7
 158 2079 158 2079 172 2079 c 0,8,9
 192 2079 192 2079 215.5 2068 c 128,-1,10
 239 2057 239 2057 267 2033 c 0,11,12
 369 1944 369 1944 449.5 1813 c 128,-1,13
 530 1682 530 1682 591 1504 c 0,14,15
 650 1330 650 1330 679.5 1149.5 c 128,-1,16
 709 969 709 969 709 776 c 0,17,18
 709 451 709 451 626.5 172 c 128,-1,19
 544 -107 544 -107 378 -349 c 0,20,21
 317 -438 317 -438 268.5 -482 c 128,-1,22
 220 -526 220 -526 181 -526 c 0,23,24
 161 -526 161 -526 142 -520 c 128,-1,25
 123 -514 123 -514 108 -502 c 128,-1,26
 93 -490 93 -490 84 -472.5 c 128,-1,27
 75 -455 75 -455 75 -432 c 0,28,29
 75 -418 75 -418 81.5 -400 c 128,-1,30
 88 -382 88 -382 105 -362 c 0,31,32
 192 -260 192 -260 262.5 -134.5 c 128,-1,33
 333 -9 333 -9 382.5 135.5 c 128,-1,34
 432 280 432 280 459 441 c 128,-1,35
 486 602 486 602 486 776 c 0,36,37
 486 938 486 938 462 1094.5 c 128,-1,38
 438 1251 438 1251 390.5 1396.5 c 128,-1,39
 343 1542 343 1542 271.5 1673 c 128,-1,40
 200 1804 200 1804 105 1915 c 0,0,1
EndSplineSet
EndChar

StartChar: asterisk
Encoding: 42 42 13
Width: 1649
GlyphClass: 2
Flags: W
LayerCount: 2
Fore
SplineSet
1402 1104 m 1,0,1
 1443 1104 1443 1104 1467.5 1069 c 128,-1,2
 1492 1034 1492 1034 1492 983 c 0,3,4
 1492 958 1492 958 1486 936 c 128,-1,5
 1480 914 1480 914 1469 897.5 c 128,-1,6
 1458 881 1458 881 1441 871.5 c 128,-1,7
 1424 862 1424 862 1402 862 c 1,8,-1
 1040 905 l 1,9,10
 1005 908 1005 908 985.5 929 c 128,-1,11
 966 950 966 950 966 983 c 256,12,13
 966 1016 966 1016 985.5 1037 c 128,-1,14
 1005 1058 1005 1058 1040 1061 c 1,15,-1
 1402 1104 l 1,0,1
247 862 m 1,16,17
 227 862 227 862 210.5 871.5 c 128,-1,18
 194 881 194 881 182 897.5 c 128,-1,19
 170 914 170 914 163.5 936 c 128,-1,20
 157 958 157 958 157 983 c 0,21,22
 157 1007 157 1007 162.5 1029 c 128,-1,23
 168 1051 168 1051 179.5 1067.5 c 128,-1,24
 191 1084 191 1084 207.5 1094 c 128,-1,25
 224 1104 224 1104 247 1104 c 1,26,-1
 609 1061 l 1,27,28
 644 1058 644 1058 663.5 1037 c 128,-1,29
 683 1016 683 1016 683 983 c 256,30,31
 683 950 683 950 663.5 929 c 128,-1,32
 644 908 644 908 609 905 c 1,33,-1
 247 862 l 1,16,17
1216 541 m 1,34,35
 1225 521 1225 521 1225 502 c 0,36,37
 1225 479 1225 479 1212.5 457.5 c 128,-1,38
 1200 436 1200 436 1179 419 c 128,-1,39
 1158 402 1158 402 1131.5 391.5 c 128,-1,40
 1105 381 1105 381 1077 381 c 0,41,42
 1025 381 1025 381 1005 422 c 1,43,-1
 863 758 l 1,44,45
 858 767 858 767 856.5 778.5 c 128,-1,46
 855 790 855 790 855 803 c 256,47,48
 855 816 855 816 861.5 828 c 128,-1,49
 868 840 868 840 878.5 849.5 c 128,-1,50
 889 859 889 859 902.5 864.5 c 128,-1,51
 916 870 916 870 930 870 c 0,52,53
 970 870 970 870 999 834 c 1,54,-1
 1216 541 l 1,34,35
433 1425 m 1,55,56
 424 1443 424 1443 424 1464 c 0,57,58
 424 1486 424 1486 436 1507.5 c 128,-1,59
 448 1529 448 1529 468 1546.5 c 128,-1,60
 488 1564 488 1564 514 1574.5 c 128,-1,61
 540 1585 540 1585 568 1585 c 0,62,63
 621 1585 621 1585 644 1544 c 1,64,-1
 786 1208 l 2,65,66
 794 1187 794 1187 794 1167 c 0,67,68
 794 1131 794 1131 755 1106 c 1,69,-1
 734 1098 l 2,70,71
 726 1094 726 1094 714 1094 c 0,72,73
 678 1094 678 1094 650 1133 c 2,74,-1
 433 1425 l 1,55,56
642 422 m 1,75,76
 619 381 619 381 580 381 c 256,77,78
 541 381 541 381 511.5 392 c 128,-1,79
 482 403 482 403 462 420.5 c 128,-1,80
 442 438 442 438 431.5 460 c 128,-1,81
 421 482 421 482 421 504 c 0,82,83
 421 522 421 522 431 541 c 1,84,-1
 648 834 l 2,85,86
 662 854 662 854 679.5 862 c 128,-1,87
 697 870 697 870 714 870 c 256,88,89
 731 870 731 870 745.5 863.5 c 128,-1,90
 760 857 760 857 770.5 846.5 c 128,-1,91
 781 836 781 836 786.5 822.5 c 128,-1,92
 792 809 792 809 792 796 c 0,93,94
 792 776 792 776 784 758 c 2,95,-1
 642 422 l 1,75,76
1163 1558 m 1,96,97
 1224 1512 1224 1512 1224 1462 c 0,98,99
 1224 1444 1224 1444 1214 1425 c 1,100,-1
 997 1133 l 2,101,102
 981 1112 981 1112 963.5 1103 c 128,-1,103
 946 1094 946 1094 929 1094 c 0,104,105
 911 1094 911 1094 897 1101 c 128,-1,106
 883 1108 883 1108 873 1119 c 128,-1,107
 863 1130 863 1130 857.5 1143 c 128,-1,108
 852 1156 852 1156 852 1169 c 0,109,110
 852 1180 852 1180 854.5 1190 c 128,-1,111
 857 1200 857 1200 861 1208 c 2,112,-1
 1003 1544 l 1,113,114
 1023 1585 1023 1585 1076 1585 c 0,115,116
 1130 1585 1130 1585 1163 1558 c 1,96,97
EndSplineSet
EndChar

StartChar: plus
Encoding: 43 43 14
Width: 1238
GlyphClass: 2
Flags: W
LayerCount: 2
Fore
SplineSet
1073 787 m 2,0,1
 1104 787 1104 787 1125.5 765.5 c 128,-1,2
 1147 744 1147 744 1147 713 c 0,3,4
 1147 683 1147 683 1125.5 661.5 c 128,-1,5
 1104 640 1104 640 1073 640 c 2,6,-1
 699 640 l 1,7,-1
 699 257 l 2,8,9
 699 224 699 224 676 201 c 128,-1,10
 653 178 653 178 620 178 c 256,11,12
 587 178 587 178 564 201 c 128,-1,13
 541 224 541 224 541 257 c 2,14,-1
 541 640 l 1,15,-1
 165 640 l 2,16,17
 134 640 134 640 113 661.5 c 128,-1,18
 92 683 92 683 92 713 c 0,19,20
 92 744 92 744 113 765.5 c 128,-1,21
 134 787 134 787 165 787 c 2,22,-1
 541 787 l 1,23,-1
 541 1177 l 2,24,25
 541 1210 541 1210 564 1233 c 128,-1,26
 587 1256 587 1256 620 1256 c 256,27,28
 653 1256 653 1256 676 1233 c 128,-1,29
 699 1210 699 1210 699 1177 c 2,30,-1
 699 787 l 1,31,-1
 1073 787 l 2,0,1
EndSplineSet
EndChar

StartChar: comma
Encoding: 44 44 15
Width: 714
GlyphClass: 2
Flags: W
LayerCount: 2
Fore
SplineSet
497 224 m 0,0,1
 558 166 558 166 558 72 c 0,2,3
 558 -15 558 -15 537 -83.5 c 128,-1,4
 516 -152 516 -152 479 -205 c 128,-1,5
 442 -258 442 -258 392 -296.5 c 128,-1,6
 342 -335 342 -335 284 -363 c 1,7,8
 262 -376 262 -376 233 -376 c 0,9,10
 219 -376 219 -376 206 -370 c 128,-1,11
 193 -364 193 -364 183.5 -355 c 128,-1,12
 174 -346 174 -346 168 -335 c 128,-1,13
 162 -324 162 -324 162 -314 c 0,14,15
 162 -276 162 -276 192 -256 c 1,16,17
 226 -235 226 -235 258.5 -210 c 128,-1,18
 291 -185 291 -185 316 -156 c 128,-1,19
 341 -127 341 -127 356 -94.5 c 128,-1,20
 371 -62 371 -62 371 -25 c 1,21,22
 282 -25 282 -25 232.5 13 c 128,-1,23
 183 51 183 51 183 124 c 0,24,25
 183 161 183 161 196 190 c 128,-1,26
 209 219 209 219 231.5 239 c 128,-1,27
 254 259 254 259 285 269.5 c 128,-1,28
 316 280 316 280 352 280 c 0,29,30
 390 280 390 280 428 266.5 c 128,-1,31
 466 253 466 253 497 224 c 0,0,1
EndSplineSet
EndChar

StartChar: hyphen
Encoding: 45 45 16
Width: 1333
GlyphClass: 2
Flags: W
LayerCount: 2
Fore
SplineSet
194 715 m 0,0,1
 194 742 194 742 204.5 761 c 128,-1,2
 215 780 215 780 230 792.5 c 128,-1,3
 245 805 245 805 263 811 c 128,-1,4
 281 817 281 817 296 817 c 2,5,-1
 1038 817 l 2,6,7
 1065 817 1065 817 1084 806.5 c 128,-1,8
 1103 796 1103 796 1115.5 780.5 c 128,-1,9
 1128 765 1128 765 1134 747.5 c 128,-1,10
 1140 730 1140 730 1140 715 c 0,11,12
 1140 688 1140 688 1130 669 c 128,-1,13
 1120 650 1120 650 1105 637 c 128,-1,14
 1090 624 1090 624 1072 618 c 128,-1,15
 1054 612 1054 612 1038 612 c 2,16,-1
 296 612 l 2,17,18
 276 612 276 612 258 618.5 c 128,-1,19
 240 625 240 625 225.5 638 c 128,-1,20
 211 651 211 651 202.5 670.5 c 128,-1,21
 194 690 194 690 194 715 c 0,0,1
EndSplineSet
EndChar

StartChar: period
Encoding: 46 46 17
Width: 815
GlyphClass: 2
Flags: W
LayerCount: 2
Fore
SplineSet
411 -127 m 0,0,1
 364 -127 364 -127 325.5 -110.5 c 128,-1,2
 287 -94 287 -94 259 -65 c 128,-1,3
 231 -36 231 -36 216 2 c 128,-1,4
 201 40 201 40 201 84 c 0,5,6
 201 129 201 129 217 168 c 128,-1,7
 233 207 233 207 261 235 c 128,-1,8
 289 263 289 263 328 279 c 128,-1,9
 367 295 367 295 412 295 c 256,10,11
 457 295 457 295 496 279 c 128,-1,12
 535 263 535 263 563 235 c 128,-1,13
 591 207 591 207 607 168 c 128,-1,14
 623 129 623 129 623 84 c 0,15,16
 623 38 623 38 607 -0.5 c 128,-1,17
 591 -39 591 -39 562.5 -67 c 128,-1,18
 534 -95 534 -95 495 -111 c 128,-1,19
 456 -127 456 -127 411 -127 c 0,0,1
EndSplineSet
EndChar

StartChar: slash
Encoding: 47 47 18
Width: 1288
GlyphClass: 2
Flags: W
LayerCount: 2
Fore
SplineSet
237 -266 m 2,0,1
 213 -314 213 -314 182 -314 c 0,2,3
 152 -314 152 -314 129.5 -305.5 c 128,-1,4
 107 -297 107 -297 93 -284.5 c 128,-1,5
 79 -272 79 -272 72 -259 c 128,-1,6
 65 -246 65 -246 65 -237 c 0,7,8
 65 -215 65 -215 73 -197 c 2,9,-1
 1059 1851 l 1,10,11
 1075 1890 1075 1890 1121 1890 c 0,12,13
 1146 1890 1146 1890 1165 1881 c 128,-1,14
 1184 1872 1184 1872 1197 1858.5 c 128,-1,15
 1210 1845 1210 1845 1216.5 1830 c 128,-1,16
 1223 1815 1223 1815 1223 1804 c 0,17,18
 1223 1788 1223 1788 1217 1776 c 2,19,-1
 237 -266 l 2,0,1
EndSplineSet
EndChar

StartChar: zero
Encoding: 48 48 19
Width: 1422
GlyphClass: 2
Flags: W
LayerCount: 2
Fore
SplineSet
120 856 m 0,0,1
 120 1043 120 1043 155.5 1204.5 c 128,-1,2
 191 1366 191 1366 264 1484.5 c 128,-1,3
 337 1603 337 1603 448 1671 c 128,-1,4
 559 1739 559 1739 711 1739 c 0,5,6
 855 1739 855 1739 965.5 1675 c 128,-1,7
 1076 1611 1076 1611 1150.5 1494.5 c 128,-1,8
 1225 1378 1225 1378 1263.5 1215.5 c 128,-1,9
 1302 1053 1302 1053 1302 856 c 0,10,11
 1302 658 1302 658 1263.5 495.5 c 128,-1,12
 1225 333 1225 333 1150 217.5 c 128,-1,13
 1075 102 1075 102 965 38.5 c 128,-1,14
 855 -25 855 -25 711 -25 c 256,15,16
 567 -25 567 -25 456.5 38.5 c 128,-1,17
 346 102 346 102 271.5 217.5 c 128,-1,18
 197 333 197 333 158.5 495.5 c 128,-1,19
 120 658 120 658 120 856 c 0,0,1
478 260 m 0,20,21
 570 141 570 141 711 141 c 0,22,23
 796 141 796 141 865 187 c 128,-1,24
 934 233 934 233 983.5 323 c 128,-1,25
 1033 413 1033 413 1060 546.5 c 128,-1,26
 1087 680 1087 680 1087 856 c 0,27,28
 1087 952 1087 952 1077 1042.5 c 128,-1,29
 1067 1133 1067 1133 1047 1212 c 128,-1,30
 1027 1291 1027 1291 996.5 1357 c 128,-1,31
 966 1423 966 1423 924 1470 c 128,-1,32
 882 1517 882 1517 829 1543 c 128,-1,33
 776 1569 776 1569 711 1569 c 0,34,35
 636 1569 636 1569 579 1536 c 128,-1,36
 522 1503 522 1503 480.5 1447 c 128,-1,37
 439 1391 439 1391 411 1318 c 128,-1,38
 383 1245 383 1245 366 1165 c 128,-1,39
 349 1085 349 1085 342 1003.5 c 128,-1,40
 335 922 335 922 335 849 c 0,41,42
 335 773 335 773 342 691.5 c 128,-1,43
 349 610 349 610 365.5 532 c 128,-1,44
 382 454 382 454 409.5 384 c 128,-1,45
 437 314 437 314 478 260 c 0,20,21
EndSplineSet
EndChar

StartChar: one
Encoding: 49 49 20
Width: 1089
GlyphClass: 2
Flags: W
LayerCount: 2
Fore
SplineSet
237 0 m 2,0,1
 159 0 159 0 159 84 c 0,2,3
 159 119 159 119 176.5 144.5 c 128,-1,4
 194 170 194 170 232 170 c 2,5,-1
 471 170 l 1,6,-1
 471 1527 l 1,7,-1
 307 1514 l 1,8,9
 267 1514 267 1514 246 1539 c 128,-1,10
 225 1564 225 1564 225 1600 c 256,11,12
 225 1636 225 1636 242 1660 c 128,-1,13
 259 1684 259 1684 290 1687 c 2,14,-1
 620 1716 l 1,15,16
 654 1716 654 1716 670 1704 c 128,-1,17
 686 1692 686 1692 686 1651 c 2,18,-1
 686 170 l 1,19,-1
 860 170 l 2,20,21
 931 170 931 170 931 81 c 0,22,23
 931 50 931 50 911.5 25 c 128,-1,24
 892 0 892 0 858 0 c 2,25,-1
 237 0 l 2,0,1
EndSplineSet
EndChar

StartChar: two
Encoding: 50 50 21
Width: 1297
GlyphClass: 2
Flags: W
LayerCount: 2
Fore
SplineSet
1131 1294 m 0,0,1
 1131 1208 1131 1208 1103.5 1134.5 c 128,-1,2
 1076 1061 1076 1061 1029 995.5 c 128,-1,3
 982 930 982 930 921 870 c 128,-1,4
 860 810 860 810 793.5 751.5 c 128,-1,5
 727 693 727 693 658.5 633.5 c 128,-1,6
 590 574 590 574 530 510 c 0,7,8
 458 434 458 434 411.5 364 c 128,-1,9
 365 294 365 294 342 225 c 1,10,-1
 981 225 l 1,11,-1
 1068 422 l 1,12,13
 1094 496 1094 496 1165 496 c 0,14,15
 1196 496 1196 496 1216.5 477 c 128,-1,16
 1237 458 1237 458 1237 436 c 1,17,18
 1236 425 1236 425 1235.5 413 c 128,-1,19
 1235 401 1235 401 1232 388 c 2,20,-1
 1169 109 l 1,21,22
 1149 35 1149 35 1090 35 c 2,23,-1
 155 35 l 1,24,-1
 146 174 l 1,25,26
 146 244 146 244 167 308.5 c 128,-1,27
 188 373 188 373 226.5 436 c 128,-1,28
 265 499 265 499 319 562 c 128,-1,29
 373 625 373 625 440 692 c 0,30,31
 544 796 544 796 628.5 883 c 128,-1,32
 713 970 713 970 773 1042.5 c 128,-1,33
 833 1115 833 1115 865.5 1174 c 128,-1,34
 898 1233 898 1233 898 1280 c 0,35,36
 898 1346 898 1346 873 1390.5 c 128,-1,37
 848 1435 848 1435 806.5 1462.5 c 128,-1,38
 765 1490 765 1490 711 1502 c 128,-1,39
 657 1514 657 1514 599 1514 c 0,40,41
 465 1514 465 1514 367 1452 c 1,42,-1
 310 1413 l 2,43,44
 281 1393 281 1393 250 1393 c 0,45,46
 234 1393 234 1393 218 1399 c 128,-1,47
 202 1405 202 1405 189.5 1415.5 c 128,-1,48
 177 1426 177 1426 169 1441 c 128,-1,49
 161 1456 161 1456 161 1474 c 0,50,51
 161 1501 161 1501 180.5 1528 c 128,-1,52
 200 1555 200 1555 231 1580 c 128,-1,53
 262 1605 262 1605 301.5 1625.5 c 128,-1,54
 341 1646 341 1646 380 1660 c 0,55,56
 440 1681 440 1681 502 1692 c 128,-1,57
 564 1703 564 1703 630 1704 c 1,58,-1
 644 1704 l 2,59,60
 754 1704 754 1704 844 1674 c 128,-1,61
 934 1644 934 1644 997.5 1590 c 128,-1,62
 1061 1536 1061 1536 1096 1460.5 c 128,-1,63
 1131 1385 1131 1385 1131 1294 c 0,0,1
EndSplineSet
EndChar

StartChar: three
Encoding: 51 51 22
Width: 1335
GlyphClass: 2
Flags: W
LayerCount: 2
Fore
SplineSet
704 855 m 1,0,-1
 578 843 l 1,1,2
 540 843 540 843 516.5 866 c 128,-1,3
 493 889 493 889 493 921 c 0,4,5
 493 955 493 955 523 979 c 0,6,7
 554 1003 554 1003 594.5 1026 c 128,-1,8
 635 1049 635 1049 678 1074 c 128,-1,9
 721 1099 721 1099 763 1127 c 128,-1,10
 805 1155 805 1155 838 1188 c 128,-1,11
 871 1221 871 1221 891 1260.5 c 128,-1,12
 911 1300 911 1300 911 1348 c 0,13,14
 911 1387 911 1387 894.5 1421 c 128,-1,15
 878 1455 878 1455 851.5 1480 c 128,-1,16
 825 1505 825 1505 792 1519 c 128,-1,17
 759 1533 759 1533 726 1533 c 0,18,19
 667 1533 667 1533 622 1522.5 c 128,-1,20
 577 1512 577 1512 540.5 1496 c 128,-1,21
 504 1480 504 1480 475.5 1462 c 128,-1,22
 447 1444 447 1444 422.5 1428 c 128,-1,23
 398 1412 398 1412 375 1401.5 c 128,-1,24
 352 1391 352 1391 328 1391 c 0,25,26
 299 1391 299 1391 280.5 1412 c 128,-1,27
 262 1433 262 1433 262 1463 c 0,28,29
 262 1498 262 1498 285.5 1529.5 c 128,-1,30
 309 1561 309 1561 348 1588.5 c 128,-1,31
 387 1616 387 1616 436.5 1637.5 c 128,-1,32
 486 1659 486 1659 537 1674.5 c 128,-1,33
 588 1690 588 1690 637 1698.5 c 128,-1,34
 686 1707 686 1707 724 1707 c 0,35,36
 805 1707 805 1707 875 1683 c 128,-1,37
 945 1659 945 1659 996.5 1615.5 c 128,-1,38
 1048 1572 1048 1572 1077 1510.5 c 128,-1,39
 1106 1449 1106 1449 1106 1374 c 0,40,41
 1106 1170 1106 1170 906 1056 c 1,42,-1
 776 981 l 1,43,44
 983 967 983 967 1093.5 861 c 128,-1,45
 1204 755 1204 755 1204 550 c 0,46,47
 1204 433 1204 433 1158 334 c 128,-1,48
 1112 235 1112 235 1032.5 162.5 c 128,-1,49
 953 90 953 90 846 49.5 c 128,-1,50
 739 9 739 9 617 9 c 0,51,52
 535 9 535 9 455.5 22 c 128,-1,53
 376 35 376 35 313.5 59.5 c 128,-1,54
 251 84 251 84 212.5 118.5 c 128,-1,55
 174 153 174 153 174 197 c 0,56,57
 174 231 174 231 196.5 250.5 c 128,-1,58
 219 270 219 270 244 270 c 0,59,60
 289 270 289 270 331 249 c 0,61,62
 455 186 455 186 613 186 c 0,63,64
 693 186 693 186 760 215 c 128,-1,65
 827 244 827 244 875 295.5 c 128,-1,66
 923 347 923 347 949.5 417 c 128,-1,67
 976 487 976 487 976 569 c 0,68,69
 976 633 976 633 957 686 c 128,-1,70
 938 739 938 739 902.5 776.5 c 128,-1,71
 867 814 867 814 817 834.5 c 128,-1,72
 767 855 767 855 704 855 c 1,0,-1
EndSplineSet
EndChar

StartChar: four
Encoding: 52 52 23
Width: 1484
GlyphClass: 2
Flags: W
LayerCount: 2
Fore
SplineSet
850 1376 m 1,0,-1
 319 713 l 1,1,-1
 850 713 l 1,2,-1
 850 1376 l 1,0,-1
1283 204 m 2,3,4
 1351 204 1351 204 1351 117 c 0,5,6
 1351 86 1351 86 1333 60 c 128,-1,7
 1315 34 1315 34 1281 34 c 2,8,-1
 578 34 l 2,9,10
 544 34 544 34 526 60 c 128,-1,11
 508 86 508 86 508 117 c 0,12,13
 508 204 508 204 577 204 c 2,14,-1
 850 204 l 1,15,-1
 850 562 l 1,16,-1
 157 562 l 2,17,18
 125 562 125 562 109.5 584.5 c 128,-1,19
 94 607 94 607 94 642 c 0,20,21
 94 678 94 678 115 699 c 1,22,23
 238 853 238 853 444.5 1105 c 128,-1,24
 651 1357 651 1357 941 1708 c 0,25,26
 959 1730 959 1730 1014 1730 c 0,27,28
 1051 1730 1051 1730 1051 1677 c 2,29,-1
 1051 713 l 1,30,-1
 1347 713 l 2,31,32
 1408 713 1408 713 1408 634 c 0,33,34
 1408 607 1408 607 1391 584.5 c 128,-1,35
 1374 562 1374 562 1344 562 c 2,36,-1
 1051 562 l 1,37,-1
 1051 204 l 1,38,-1
 1283 204 l 2,3,4
EndSplineSet
EndChar

StartChar: five
Encoding: 53 53 24
Width: 1264
GlyphClass: 2
Flags: W
LayerCount: 2
Fore
SplineSet
977 1801 m 0,0,1
 1042 1801 1042 1801 1042 1746 c 0,2,3
 1042 1702 1042 1702 1034.5 1660.5 c 128,-1,4
 1027 1619 1027 1619 1013 1587 c 128,-1,5
 999 1555 999 1555 978 1535.5 c 128,-1,6
 957 1516 957 1516 930 1516 c 2,7,-1
 441 1516 l 2,8,9
 415 1516 415 1516 395 1488.5 c 128,-1,10
 375 1461 375 1461 371 1416 c 1,11,-1
 345 949 l 1,12,13
 392 1007 392 1007 472 1039 c 128,-1,14
 552 1071 552 1071 680 1071 c 0,15,16
 719 1071 719 1071 764.5 1062.5 c 128,-1,17
 810 1054 810 1054 855 1037.5 c 128,-1,18
 900 1021 900 1021 941.5 997.5 c 128,-1,19
 983 974 983 974 1016 943 c 0,20,21
 1155 811 1155 811 1155 580 c 0,22,23
 1155 428 1155 428 1096 306 c 128,-1,24
 1037 184 1037 184 936.5 98.5 c 128,-1,25
 836 13 836 13 704 -32.5 c 128,-1,26
 572 -78 572 -78 426 -78 c 0,27,28
 352 -78 352 -78 290 -67.5 c 128,-1,29
 228 -57 228 -57 183 -37.5 c 128,-1,30
 138 -18 138 -18 113 10.5 c 128,-1,31
 88 39 88 39 88 75 c 0,32,33
 88 112 88 112 96.5 137 c 128,-1,34
 105 162 105 162 119 177 c 128,-1,35
 133 192 133 192 151.5 198.5 c 128,-1,36
 170 205 170 205 190 205 c 0,37,38
 239 205 239 205 280.5 191 c 128,-1,39
 322 177 322 177 362 160 c 0,40,41
 414 137 414 137 459.5 127 c 128,-1,42
 505 117 505 117 543 117 c 0,43,44
 626 117 626 117 698 147 c 128,-1,45
 770 177 770 177 823.5 232 c 128,-1,46
 877 287 877 287 907.5 364 c 128,-1,47
 938 441 938 441 938 535 c 0,48,49
 938 682 938 682 856.5 765 c 128,-1,50
 775 848 775 848 616 848 c 0,51,52
 562 848 562 848 521 839 c 128,-1,53
 480 830 480 830 447.5 817 c 128,-1,54
 415 804 415 804 388.5 788.5 c 128,-1,55
 362 773 362 773 338 760 c 128,-1,56
 314 747 314 747 290 738 c 128,-1,57
 266 729 266 729 239 729 c 0,58,59
 204 729 204 729 170 746 c 1,60,-1
 229 1626 l 1,61,62
 229 1680 229 1680 278.5 1697 c 128,-1,63
 328 1714 328 1714 428 1714 c 2,64,-1
 872 1712 l 1,65,66
 891 1755 891 1755 921 1778 c 128,-1,67
 951 1801 951 1801 977 1801 c 0,0,1
EndSplineSet
EndChar

StartChar: six
Encoding: 54 54 25
Width: 1353
GlyphClass: 2
Flags: W
LayerCount: 2
Fore
SplineSet
387 924 m 1,0,1
 543 1085 543 1085 754 1085 c 0,2,3
 875 1085 875 1085 972 1044.5 c 128,-1,4
 1069 1004 1069 1004 1137.5 930 c 128,-1,5
 1206 856 1206 856 1243 752 c 128,-1,6
 1280 648 1280 648 1280 522 c 0,7,8
 1280 397 1280 397 1240 296 c 128,-1,9
 1200 195 1200 195 1127.5 124 c 128,-1,10
 1055 53 1055 53 952.5 14 c 128,-1,11
 850 -25 850 -25 725 -25 c 0,12,13
 587 -25 587 -25 480 18 c 128,-1,14
 373 61 373 61 300.5 143.5 c 128,-1,15
 228 226 228 226 190.5 346.5 c 128,-1,16
 153 467 153 467 153 623 c 0,17,18
 153 801 153 801 190.5 960 c 128,-1,19
 228 1119 228 1119 302 1265 c 128,-1,20
 376 1411 376 1411 486 1547.5 c 128,-1,21
 596 1684 596 1684 741 1817 c 1,22,23
 784 1860 784 1860 833 1860 c 0,24,25
 880 1860 880 1860 908 1840 c 128,-1,26
 936 1820 936 1820 936 1770 c 0,27,28
 936 1723 936 1723 899 1692 c 0,29,30
 527 1383 527 1383 387 924 c 1,0,1
725 127 m 0,31,32
 806 127 806 127 871 155 c 128,-1,33
 936 183 936 183 981 234 c 128,-1,34
 1026 285 1026 285 1050.5 357 c 128,-1,35
 1075 429 1075 429 1075 518 c 0,36,37
 1075 608 1075 608 1051.5 680 c 128,-1,38
 1028 752 1028 752 983 803 c 128,-1,39
 938 854 938 854 874 881.5 c 128,-1,40
 810 909 810 909 729 909 c 256,41,42
 648 909 648 909 582.5 881 c 128,-1,43
 517 853 517 853 471 802 c 128,-1,44
 425 751 425 751 400 678.5 c 128,-1,45
 375 606 375 606 375 518 c 256,46,47
 375 430 375 430 398.5 358 c 128,-1,48
 422 286 422 286 467 234.5 c 128,-1,49
 512 183 512 183 577 155 c 128,-1,50
 642 127 642 127 725 127 c 0,31,32
EndSplineSet
EndChar

StartChar: seven
Encoding: 55 55 26
Width: 1365
GlyphClass: 2
Flags: W
LayerCount: 2
Fore
SplineSet
508 123 m 0,0,1
 508 273 508 273 530.5 410.5 c 128,-1,2
 553 548 553 548 597.5 681.5 c 128,-1,3
 642 815 642 815 708 950.5 c 128,-1,4
 774 1086 774 1086 861 1233 c 0,5,6
 914 1323 914 1323 954 1393.5 c 128,-1,7
 994 1464 994 1464 1022 1518 c 1,8,-1
 324 1518 l 1,9,-1
 289 1343 l 1,10,11
 259 1268 259 1268 187 1268 c 0,12,13
 144 1268 144 1268 118 1287 c 128,-1,14
 92 1306 92 1306 92 1343 c 0,15,16
 92 1362 92 1362 98 1380 c 1,17,-1
 150 1635 l 1,18,19
 161 1671 161 1671 178.5 1692 c 128,-1,20
 196 1713 196 1713 232 1713 c 2,21,-1
 1180 1712 l 2,22,23
 1195 1712 1195 1712 1210.5 1707 c 128,-1,24
 1226 1702 1226 1702 1238 1692.5 c 128,-1,25
 1250 1683 1250 1683 1258 1669.5 c 128,-1,26
 1266 1656 1266 1656 1266 1639 c 0,27,28
 1266 1624 1266 1624 1244 1554.5 c 128,-1,29
 1222 1485 1222 1485 1168 1371 c 1,30,31
 1129 1285 1129 1285 1086.5 1203.5 c 128,-1,32
 1044 1122 1044 1122 1001.5 1040 c 128,-1,33
 959 958 959 958 919.5 873 c 128,-1,34
 880 788 880 788 848 696 c 0,35,36
 750 419 750 419 750 121 c 0,37,38
 750 54 750 54 720.5 14.5 c 128,-1,39
 691 -25 691 -25 630 -25 c 256,40,41
 569 -25 569 -25 538.5 16 c 128,-1,42
 508 57 508 57 508 123 c 0,0,1
EndSplineSet
EndChar

StartChar: eight
Encoding: 56 56 27
Width: 1316
GlyphClass: 2
Flags: W
LayerCount: 2
Fore
SplineSet
100 442 m 0,0,1
 100 732 100 732 407 883 c 1,2,3
 331 930 331 930 279 975.5 c 128,-1,4
 227 1021 227 1021 195.5 1071.5 c 128,-1,5
 164 1122 164 1122 150.5 1180.5 c 128,-1,6
 137 1239 137 1239 137 1313 c 0,7,8
 137 1407 137 1407 173.5 1485 c 128,-1,9
 210 1563 210 1563 275 1619 c 128,-1,10
 340 1675 340 1675 430 1706 c 128,-1,11
 520 1737 520 1737 627 1737 c 0,12,13
 739 1737 739 1737 834 1708 c 128,-1,14
 929 1679 929 1679 998 1626 c 128,-1,15
 1067 1573 1067 1573 1106 1499.5 c 128,-1,16
 1145 1426 1145 1426 1145 1337 c 0,17,18
 1145 1058 1145 1058 829 901 c 1,19,20
 896 866 896 866 941 840 c 128,-1,21
 986 814 986 814 1009 797 c 1,22,23
 1111 727 1111 727 1163.5 637.5 c 128,-1,24
 1216 548 1216 548 1216 426 c 0,25,26
 1216 307 1216 307 1174 221.5 c 128,-1,27
 1132 136 1132 136 1057.5 81.5 c 128,-1,28
 983 27 983 27 881.5 1 c 128,-1,29
 780 -25 780 -25 661 -25 c 0,30,31
 530 -25 530 -25 426.5 4.5 c 128,-1,32
 323 34 323 34 250 92.5 c 128,-1,33
 177 151 177 151 138.5 238.5 c 128,-1,34
 100 326 100 326 100 442 c 0,0,1
549 805 m 1,35,36
 301 664 301 664 301 430 c 0,37,38
 301 364 301 364 326.5 311 c 128,-1,39
 352 258 352 258 399.5 221 c 128,-1,40
 447 184 447 184 515 164.5 c 128,-1,41
 583 145 583 145 668 145 c 0,42,43
 744 145 744 145 807.5 162.5 c 128,-1,44
 871 180 871 180 916.5 214 c 128,-1,45
 962 248 962 248 987 299 c 128,-1,46
 1012 350 1012 350 1012 416 c 0,47,48
 1012 481 1012 481 989 528.5 c 128,-1,49
 966 576 966 576 928.5 611.5 c 128,-1,50
 891 647 891 647 842.5 673 c 128,-1,51
 794 699 794 699 742.5 720.5 c 128,-1,52
 691 742 691 742 640.5 762 c 128,-1,53
 590 782 590 782 549 805 c 1,35,36
688 973 m 1,54,55
 940 1097 940 1097 940 1325 c 0,56,57
 940 1386 940 1386 918.5 1433.5 c 128,-1,58
 897 1481 897 1481 858 1514 c 128,-1,59
 819 1547 819 1547 763.5 1564 c 128,-1,60
 708 1581 708 1581 639 1581 c 0,61,62
 573 1581 573 1581 517.5 1564 c 128,-1,63
 462 1547 462 1547 421.5 1514 c 128,-1,64
 381 1481 381 1481 358.5 1434 c 128,-1,65
 336 1387 336 1387 336 1327 c 0,66,67
 336 1143 336 1143 574 1028 c 2,68,-1
 688 973 l 1,54,55
EndSplineSet
EndChar

StartChar: nine
Encoding: 57 57 28
Width: 1367
GlyphClass: 2
Flags: W
LayerCount: 2
Fore
SplineSet
988 770 m 1,0,1
 827 659 827 659 651 659 c 0,2,3
 533 659 533 659 436 697 c 128,-1,4
 339 735 339 735 269.5 804.5 c 128,-1,5
 200 874 200 874 162 972.5 c 128,-1,6
 124 1071 124 1071 124 1192 c 0,7,8
 124 1315 124 1315 163 1416 c 128,-1,9
 202 1517 202 1517 273.5 1589 c 128,-1,10
 345 1661 345 1661 446 1700 c 128,-1,11
 547 1739 547 1739 671 1739 c 0,12,13
 809 1739 809 1739 915 1697 c 128,-1,14
 1021 1655 1021 1655 1094 1573 c 128,-1,15
 1167 1491 1167 1491 1204.5 1370 c 128,-1,16
 1242 1249 1242 1249 1242 1092 c 0,17,18
 1242 920 1242 920 1206.5 768.5 c 128,-1,19
 1171 617 1171 617 1098.5 473.5 c 128,-1,20
 1026 330 1026 330 915.5 189 c 128,-1,21
 805 48 805 48 655 -102 c 0,22,23
 612 -145 612 -145 562 -145 c 0,24,25
 514 -145 514 -145 486 -119.5 c 128,-1,26
 458 -94 458 -94 458 -49 c 0,27,28
 458 -6 458 -6 479.5 29.5 c 128,-1,29
 501 65 501 65 532.5 95.5 c 128,-1,30
 564 126 564 126 599 154 c 128,-1,31
 634 182 634 182 661 210 c 0,32,33
 680 229 680 229 704 256 c 128,-1,34
 728 283 728 283 754 314 c 128,-1,35
 780 345 780 345 806 378.5 c 128,-1,36
 832 412 832 412 855 446 c 0,37,38
 961 605 961 605 988 770 c 1,0,1
671 1587 m 0,39,40
 590 1587 590 1587 525 1559 c 128,-1,41
 460 1531 460 1531 415 1480 c 128,-1,42
 370 1429 370 1429 345.5 1356.5 c 128,-1,43
 321 1284 321 1284 321 1196 c 0,44,45
 321 1111 321 1111 345 1042.5 c 128,-1,46
 369 974 369 974 414.5 925.5 c 128,-1,47
 460 877 460 877 525 851 c 128,-1,48
 590 825 590 825 671 825 c 256,49,50
 752 825 752 825 817 851.5 c 128,-1,51
 882 878 882 878 927 926.5 c 128,-1,52
 972 975 972 975 996.5 1043.5 c 128,-1,53
 1021 1112 1021 1112 1021 1196 c 0,54,55
 1021 1286 1021 1286 996.5 1358.5 c 128,-1,56
 972 1431 972 1431 926 1482 c 128,-1,57
 880 1533 880 1533 815.5 1560 c 128,-1,58
 751 1587 751 1587 671 1587 c 0,39,40
EndSplineSet
EndChar

StartChar: colon
Encoding: 58 58 29
Width: 747
GlyphClass: 2
Flags: W
LayerCount: 2
Fore
SplineSet
362 -70 m 0,0,1
 312 -70 312 -70 272.5 -52.5 c 128,-1,2
 233 -35 233 -35 205 -6 c 128,-1,3
 177 23 177 23 162 62 c 128,-1,4
 147 101 147 101 147 145 c 0,5,6
 147 190 147 190 162.5 229 c 128,-1,7
 178 268 178 268 206.5 297 c 128,-1,8
 235 326 235 326 274.5 343 c 128,-1,9
 314 360 314 360 362 360 c 0,10,11
 408 360 408 360 447.5 343 c 128,-1,12
 487 326 487 326 516 297 c 128,-1,13
 545 268 545 268 561 229 c 128,-1,14
 577 190 577 190 577 145 c 256,15,16
 577 100 577 100 561.5 61 c 128,-1,17
 546 22 546 22 517.5 -7 c 128,-1,18
 489 -36 489 -36 449.5 -53 c 128,-1,19
 410 -70 410 -70 362 -70 c 0,0,1
362 760 m 0,20,21
 312 760 312 760 272.5 777.5 c 128,-1,22
 233 795 233 795 205 824 c 128,-1,23
 177 853 177 853 162 892 c 128,-1,24
 147 931 147 931 147 975 c 0,25,26
 147 1020 147 1020 162.5 1059 c 128,-1,27
 178 1098 178 1098 206.5 1127 c 128,-1,28
 235 1156 235 1156 274.5 1173 c 128,-1,29
 314 1190 314 1190 362 1190 c 0,30,31
 408 1190 408 1190 447.5 1173 c 128,-1,32
 487 1156 487 1156 516 1127 c 128,-1,33
 545 1098 545 1098 561 1059 c 128,-1,34
 577 1020 577 1020 577 975 c 256,35,36
 577 930 577 930 561.5 891 c 128,-1,37
 546 852 546 852 517.5 823 c 128,-1,38
 489 794 489 794 449.5 777 c 128,-1,39
 410 760 410 760 362 760 c 0,20,21
EndSplineSet
EndChar

StartChar: semicolon
Encoding: 59 59 30
Width: 730
GlyphClass: 2
Flags: W
LayerCount: 2
Fore
SplineSet
460 -116 m 0,0,1
 386 -216 386 -216 267 -276 c 0,2,3
 255 -282 255 -282 243 -285.5 c 128,-1,4
 231 -289 231 -289 216 -289 c 0,5,6
 188 -289 188 -289 166.5 -268.5 c 128,-1,7
 145 -248 145 -248 145 -219 c 0,8,9
 145 -201 145 -201 161 -184.5 c 128,-1,10
 177 -168 177 -168 200.5 -150.5 c 128,-1,11
 224 -133 224 -133 249.5 -115 c 128,-1,12
 275 -97 275 -97 294 -77 c 0,13,14
 354 -13 354 -13 354 62 c 1,15,16
 266 62 266 62 216 99.5 c 128,-1,17
 166 137 166 137 166 212 c 0,18,19
 166 246 166 246 179 275 c 128,-1,20
 192 304 192 304 214 324 c 128,-1,21
 236 344 236 344 263.5 355.5 c 128,-1,22
 291 367 291 367 321 367 c 0,23,24
 372 367 372 367 412.5 351.5 c 128,-1,25
 453 336 453 336 481.5 308 c 128,-1,26
 510 280 510 280 525.5 241.5 c 128,-1,27
 541 203 541 203 541 157 c 0,28,29
 541 65 541 65 519.5 0 c 128,-1,30
 498 -65 498 -65 460 -116 c 0,0,1
354 760 m 0,31,32
 307 760 307 760 267.5 776.5 c 128,-1,33
 228 793 228 793 199.5 822 c 128,-1,34
 171 851 171 851 155.5 890.5 c 128,-1,35
 140 930 140 930 140 975 c 0,36,37
 140 1019 140 1019 155.5 1058 c 128,-1,38
 171 1097 171 1097 199.5 1126.5 c 128,-1,39
 228 1156 228 1156 267.5 1173 c 128,-1,40
 307 1190 307 1190 355 1190 c 0,41,42
 402 1190 402 1190 441.5 1173 c 128,-1,43
 481 1156 481 1156 509.5 1126.5 c 128,-1,44
 538 1097 538 1097 554 1058 c 128,-1,45
 570 1019 570 1019 570 975 c 256,46,47
 570 931 570 931 554 891.5 c 128,-1,48
 538 852 538 852 509.5 823 c 128,-1,49
 481 794 481 794 441.5 777 c 128,-1,50
 402 760 402 760 354 760 c 0,31,32
EndSplineSet
EndChar

StartChar: less
Encoding: 60 60 31
Width: 1856
GlyphClass: 2
Flags: W
LayerCount: 2
Fore
SplineSet
1577 183 m 2,0,-1
 128 713 l 1,1,2
 101 725 101 725 85 735 c 128,-1,3
 69 745 69 745 60.5 756 c 128,-1,4
 52 767 52 767 49 779.5 c 128,-1,5
 46 792 46 792 46 808 c 0,6,7
 46 846 46 846 69 866 c 128,-1,8
 92 886 92 886 128 900 c 2,9,-1
 1559 1430 l 2,10,11
 1572 1435 1572 1435 1584.5 1437.5 c 128,-1,12
 1597 1440 1597 1440 1611 1440 c 0,13,14
 1633 1440 1633 1440 1653.5 1432.5 c 128,-1,15
 1674 1425 1674 1425 1689.5 1410.5 c 128,-1,16
 1705 1396 1705 1396 1714.5 1374.5 c 128,-1,17
 1724 1353 1724 1353 1724 1325 c 0,18,19
 1724 1310 1724 1310 1720 1294 c 128,-1,20
 1716 1278 1716 1278 1706 1263 c 128,-1,21
 1696 1248 1696 1248 1679 1235 c 128,-1,22
 1662 1222 1662 1222 1637 1213 c 2,23,-1
 431 779 l 1,24,-1
 1637 367 l 1,25,26
 1727 335 1727 335 1727 264 c 0,27,28
 1727 238 1727 238 1716 220 c 128,-1,29
 1705 202 1705 202 1690 191.5 c 128,-1,30
 1675 181 1675 181 1658 176.5 c 128,-1,31
 1641 172 1641 172 1629 172 c 0,32,33
 1615 172 1615 172 1601.5 175 c 128,-1,34
 1588 178 1588 178 1577 183 c 2,0,-1
EndSplineSet
EndChar

StartChar: equal
Encoding: 61 61 32
Width: 1237
GlyphClass: 2
Flags: W
LayerCount: 2
Fore
SplineSet
1072 213 m 2,0,1
 1100 213 1100 213 1120 202 c 128,-1,2
 1140 191 1140 191 1153 174.5 c 128,-1,3
 1166 158 1166 158 1172 139.5 c 128,-1,4
 1178 121 1178 121 1178 107 c 0,5,6
 1178 87 1178 87 1171 68 c 128,-1,7
 1164 49 1164 49 1150.5 34 c 128,-1,8
 1137 19 1137 19 1117 10 c 128,-1,9
 1097 1 1097 1 1072 1 c 2,10,-1
 165 1 l 2,11,12
 142 1 142 1 123 9.5 c 128,-1,13
 104 18 104 18 89.5 31.5 c 128,-1,14
 75 45 75 45 67 61.5 c 128,-1,15
 59 78 59 78 59 95 c 0,16,17
 59 126 59 126 68 148.5 c 128,-1,18
 77 171 77 171 92 185.5 c 128,-1,19
 107 200 107 200 126 206.5 c 128,-1,20
 145 213 145 213 165 213 c 2,21,-1
 1072 213 l 2,0,1
1072 736 m 2,22,23
 1100 736 1100 736 1120 725 c 128,-1,24
 1140 714 1140 714 1153 697.5 c 128,-1,25
 1166 681 1166 681 1172 662.5 c 128,-1,26
 1178 644 1178 644 1178 630 c 0,27,28
 1178 610 1178 610 1171 591 c 128,-1,29
 1164 572 1164 572 1150.5 557 c 128,-1,30
 1137 542 1137 542 1117 533 c 128,-1,31
 1097 524 1097 524 1072 524 c 2,32,-1
 165 524 l 2,33,34
 142 524 142 524 123 532.5 c 128,-1,35
 104 541 104 541 89.5 554.5 c 128,-1,36
 75 568 75 568 67 584.5 c 128,-1,37
 59 601 59 601 59 618 c 0,38,39
 59 649 59 649 68.5 671.5 c 128,-1,40
 78 694 78 694 93 708.5 c 128,-1,41
 108 723 108 723 127 729.5 c 128,-1,42
 146 736 146 736 165 736 c 2,43,-1
 1072 736 l 2,22,23
EndSplineSet
EndChar

StartChar: greater
Encoding: 62 62 33
Width: 1856
GlyphClass: 2
Flags: W
LayerCount: 2
Fore
SplineSet
196 1430 m 2,0,-1
 1645 901 l 1,1,2
 1673 887 1673 887 1689 877 c 128,-1,3
 1705 867 1705 867 1713.5 857 c 128,-1,4
 1722 847 1722 847 1724.5 835 c 128,-1,5
 1727 823 1727 823 1727 806 c 0,6,7
 1727 768 1727 768 1704 748 c 128,-1,8
 1681 728 1681 728 1645 714 c 2,9,-1
 214 183 l 2,10,11
 188 173 188 173 162 173 c 256,12,13
 136 173 136 173 115 183.5 c 128,-1,14
 94 194 94 194 79.5 209.5 c 128,-1,15
 65 225 65 225 57 244.5 c 128,-1,16
 49 264 49 264 49 282 c 0,17,18
 49 369 49 369 136 401 c 2,19,-1
 1342 835 l 1,20,-1
 136 1247 l 2,21,22
 46 1277 46 1277 46 1350 c 0,23,24
 46 1385 46 1385 71 1412.5 c 128,-1,25
 96 1440 96 1440 143 1440 c 0,26,27
 169 1440 169 1440 196 1430 c 2,0,-1
EndSplineSet
EndChar

StartChar: question
Encoding: 63 63 34
Width: 1296
GlyphClass: 2
Flags: W
LayerCount: 2
Fore
SplineSet
745 158 m 0,0,1
 745 117 745 117 728.5 83.5 c 128,-1,2
 712 50 712 50 684.5 26 c 128,-1,3
 657 2 657 2 621.5 -11 c 128,-1,4
 586 -24 586 -24 547 -24 c 0,5,6
 514 -24 514 -24 487.5 -9.5 c 128,-1,7
 461 5 461 5 441.5 28.5 c 128,-1,8
 422 52 422 52 411.5 81 c 128,-1,9
 401 110 401 110 401 139 c 0,10,11
 401 195 401 195 416.5 234 c 128,-1,12
 432 273 432 273 457 297 c 128,-1,13
 482 321 482 321 513 332 c 128,-1,14
 544 343 544 343 575 343 c 0,15,16
 611 343 611 343 642 328 c 128,-1,17
 673 313 673 313 696 287.5 c 128,-1,18
 719 262 719 262 732 228.5 c 128,-1,19
 745 195 745 195 745 158 c 0,0,1
679 640 m 0,20,21
 679 479 679 479 584 479 c 0,22,23
 547 479 547 479 523.5 490.5 c 128,-1,24
 500 502 500 502 487 525 c 128,-1,25
 474 548 474 548 469.5 582.5 c 128,-1,26
 465 617 465 617 465 663 c 2,27,-1
 465 676 l 2,28,29
 465 818 465 818 602 919 c 0,30,31
 651 955 651 955 703.5 988.5 c 128,-1,32
 756 1022 756 1022 799 1062.5 c 128,-1,33
 842 1103 842 1103 869.5 1155 c 128,-1,34
 897 1207 897 1207 897 1279 c 0,35,36
 897 1348 897 1348 877 1403.5 c 128,-1,37
 857 1459 857 1459 821 1499 c 128,-1,38
 785 1539 785 1539 735.5 1560.5 c 128,-1,39
 686 1582 686 1582 626 1582 c 0,40,41
 538 1582 538 1582 436 1536 c 1,42,43
 425 1373 425 1373 409 1330 c 0,44,45
 373 1236 373 1236 268 1236 c 0,46,47
 239 1236 239 1236 214 1247 c 128,-1,48
 189 1258 189 1258 170 1279.5 c 128,-1,49
 151 1301 151 1301 140 1332 c 128,-1,50
 129 1363 129 1363 129 1402 c 0,51,52
 129 1480 129 1480 169.5 1542 c 128,-1,53
 210 1604 210 1604 278 1648 c 128,-1,54
 346 1692 346 1692 434.5 1715.5 c 128,-1,55
 523 1739 523 1739 618 1739 c 0,56,57
 734 1739 734 1739 831 1702.5 c 128,-1,58
 928 1666 928 1666 997.5 1601 c 128,-1,59
 1067 1536 1067 1536 1106 1446 c 128,-1,60
 1145 1356 1145 1356 1145 1250 c 0,61,62
 1145 1100 1145 1100 1024 991 c 0,63,64
 989 960 989 960 950.5 933 c 128,-1,65
 912 906 912 906 873.5 881 c 128,-1,66
 835 856 835 856 800 830.5 c 128,-1,67
 765 805 765 805 738 776.5 c 128,-1,68
 711 748 711 748 695 714.5 c 128,-1,69
 679 681 679 681 679 640 c 0,20,21
EndSplineSet
EndChar

StartChar: at
Encoding: 64 64 35
Width: 2267
GlyphClass: 2
Flags: W
LayerCount: 2
Fore
SplineSet
1158 1315 m 0,0,1
 1332 1315 1332 1315 1469 1208 c 1,2,3
 1517 1360 1517 1360 1602 1360 c 1,4,-1
 1674 1366 l 1,5,6
 1684 1365 1684 1365 1684 1348 c 0,7,8
 1684 1328 1684 1328 1673.5 1291.5 c 128,-1,9
 1663 1255 1663 1255 1649 1208 c 1,10,-1
 1504 580 l 2,11,12
 1500 565 1500 565 1498 550.5 c 128,-1,13
 1496 536 1496 536 1496 520 c 0,14,15
 1496 448 1496 448 1539 412.5 c 128,-1,16
 1582 377 1582 377 1657 377 c 0,17,18
 1729 377 1729 377 1787 402.5 c 128,-1,19
 1845 428 1845 428 1890 473.5 c 128,-1,20
 1935 519 1935 519 1967 580 c 128,-1,21
 1999 641 1999 641 2019.5 712.5 c 128,-1,22
 2040 784 2040 784 2049.5 862.5 c 128,-1,23
 2059 941 2059 941 2059 1020 c 0,24,25
 2059 1186 2059 1186 1999.5 1319 c 128,-1,26
 1940 1452 1940 1452 1833.5 1545 c 128,-1,27
 1727 1638 1727 1638 1580 1687.5 c 128,-1,28
 1433 1737 1433 1737 1258 1737 c 0,29,30
 1118 1737 1118 1737 987.5 1701 c 128,-1,31
 857 1665 857 1665 742 1598.5 c 128,-1,32
 627 1532 627 1532 531.5 1437 c 128,-1,33
 436 1342 436 1342 368 1223.5 c 128,-1,34
 300 1105 300 1105 262 966 c 128,-1,35
 224 827 224 827 224 672 c 0,36,37
 224 478 224 478 295.5 321 c 128,-1,38
 367 164 367 164 491.5 53.5 c 128,-1,39
 616 -57 616 -57 784.5 -116.5 c 128,-1,40
 953 -176 953 -176 1147 -176 c 0,41,42
 1246 -176 1246 -176 1337 -161.5 c 128,-1,43
 1428 -147 1428 -147 1511.5 -120 c 128,-1,44
 1595 -93 1595 -93 1671.5 -55 c 128,-1,45
 1748 -17 1748 -17 1818 29 c 2,46,-1
 1944 112 l 2,47,48
 1962 124 1962 124 1974.5 131 c 128,-1,49
 1987 138 1987 138 1996 137 c 1,50,51
 2013 137 2013 137 2026 131 c 128,-1,52
 2039 125 2039 125 2047.5 116.5 c 128,-1,53
 2056 108 2056 108 2060.5 98 c 128,-1,54
 2065 88 2065 88 2065 79 c 0,55,56
 2065 60 2065 60 2051 41 c 0,57,58
 1985 -43 1985 -43 1886 -111 c 128,-1,59
 1787 -179 1787 -179 1665 -227 c 128,-1,60
 1543 -275 1543 -275 1403.5 -300.5 c 128,-1,61
 1264 -326 1264 -326 1117 -326 c 0,62,63
 993 -326 993 -326 874.5 -302 c 128,-1,64
 756 -278 756 -278 648.5 -232 c 128,-1,65
 541 -186 541 -186 446 -118.5 c 128,-1,66
 351 -51 351 -51 275 35 c 128,-1,67
 199 121 199 121 144 225.5 c 128,-1,68
 89 330 89 330 60 450 c 0,69,70
 47 502 47 502 41 554 c 128,-1,71
 35 606 35 606 35 658 c 0,72,73
 35 812 35 812 74 963.5 c 128,-1,74
 113 1115 113 1115 186.5 1252.5 c 128,-1,75
 260 1390 260 1390 365.5 1508 c 128,-1,76
 471 1626 471 1626 603.5 1712 c 128,-1,77
 736 1798 736 1798 894.5 1847 c 128,-1,78
 1053 1896 1053 1896 1231 1896 c 0,79,80
 1385 1896 1385 1896 1526.5 1858 c 128,-1,81
 1668 1820 1668 1820 1788 1750 c 128,-1,82
 1908 1680 1908 1680 2002.5 1580 c 128,-1,83
 2097 1480 2097 1480 2157 1356 c 0,84,85
 2235 1195 2235 1195 2235 1031 c 0,86,87
 2235 856 2235 856 2195 710 c 128,-1,88
 2155 564 2155 564 2079 459 c 128,-1,89
 2003 354 2003 354 1892 296 c 128,-1,90
 1781 238 1781 238 1639 238 c 0,91,92
 1547 238 1547 238 1482.5 282.5 c 128,-1,93
 1418 327 1418 327 1389 416 c 1,94,95
 1244 217 1244 217 1035 217 c 0,96,97
 938 217 938 217 861.5 249 c 128,-1,98
 785 281 785 281 731.5 340.5 c 128,-1,99
 678 400 678 400 649.5 484.5 c 128,-1,100
 621 569 621 569 621 674 c 0,101,102
 621 745 621 745 637.5 820.5 c 128,-1,103
 654 896 654 896 685.5 967.5 c 128,-1,104
 717 1039 717 1039 763.5 1102 c 128,-1,105
 810 1165 810 1165 869.5 1212.5 c 128,-1,106
 929 1260 929 1260 1001.5 1287.5 c 128,-1,107
 1074 1315 1074 1315 1158 1315 c 0,0,1
1197 1163 m 0,108,109
 1108 1163 1108 1163 1037 1127 c 128,-1,110
 966 1091 966 1091 916.5 1025 c 128,-1,111
 867 959 867 959 840.5 866.5 c 128,-1,112
 814 774 814 774 814 662 c 0,113,114
 814 600 814 600 831 548 c 128,-1,115
 848 496 848 496 879 458 c 128,-1,116
 910 420 910 420 951.5 398.5 c 128,-1,117
 993 377 993 377 1043 377 c 0,118,119
 1119 377 1119 377 1176.5 401.5 c 128,-1,120
 1234 426 1234 426 1275.5 472 c 128,-1,121
 1317 518 1317 518 1344 585 c 128,-1,122
 1371 652 1371 652 1386 738 c 2,123,-1
 1426 981 l 1,124,125
 1426 1017 1426 1017 1406 1049.5 c 128,-1,126
 1386 1082 1386 1082 1353.5 1107.5 c 128,-1,127
 1321 1133 1321 1133 1280 1148 c 128,-1,128
 1239 1163 1239 1163 1197 1163 c 0,108,109
EndSplineSet
EndChar

StartChar: A
Encoding: 65 65 36
Width: 1964
GlyphClass: 2
Flags: W
LayerCount: 2
Fore
SplineSet
619 176 m 2,0,1
 691 176 691 176 691 84 c 0,2,3
 691 51 691 51 671.5 25.5 c 128,-1,4
 652 0 652 0 617 0 c 2,5,-1
 74 0 l 2,6,7
 39 0 39 0 19.5 25.5 c 128,-1,8
 0 51 0 51 0 84 c 0,9,10
 0 176 0 176 72 176 c 2,11,-1
 211 176 l 1,12,-1
 873 1671 l 1,13,14
 889 1711 889 1711 920.5 1737 c 128,-1,15
 952 1763 952 1763 994 1763 c 0,16,17
 1039 1763 1039 1763 1065.5 1740 c 128,-1,18
 1092 1717 1092 1717 1114 1667 c 1,19,-1
 1715 176 l 1,20,-1
 1893 176 l 2,21,22
 1964 176 1964 176 1964 84 c 0,23,24
 1964 51 1964 51 1945 25.5 c 128,-1,25
 1926 0 1926 0 1891 0 c 2,26,-1
 1246 0 l 2,27,28
 1211 0 1211 0 1191.5 25.5 c 128,-1,29
 1172 51 1172 51 1172 84 c 0,30,31
 1172 176 1172 176 1244 176 c 2,32,-1
 1463 176 l 1,33,-1
 1315 567 l 1,34,-1
 590 567 l 1,35,-1
 433 176 l 1,36,-1
 619 176 l 2,0,1
652 721 m 1,37,-1
 1258 721 l 1,38,-1
 965 1499 l 1,39,-1
 652 721 l 1,37,-1
EndSplineSet
EndChar

StartChar: B
Encoding: 66 66 37
Width: 1835
GlyphClass: 2
Flags: W
LayerCount: 2
Fore
SplineSet
974 1714 m 2,0,1
 1582 1714 1582 1714 1582 1279 c 0,2,3
 1582 1223 1582 1223 1566.5 1173.5 c 128,-1,4
 1551 1124 1551 1124 1521 1083.5 c 128,-1,5
 1491 1043 1491 1043 1446 1013 c 128,-1,6
 1401 983 1401 983 1341 967 c 1,7,8
 1435 953 1435 953 1511 917.5 c 128,-1,9
 1587 882 1587 882 1640 825.5 c 128,-1,10
 1693 769 1693 769 1722 692 c 128,-1,11
 1751 615 1751 615 1751 519 c 0,12,13
 1751 427 1751 427 1723.5 353 c 128,-1,14
 1696 279 1696 279 1646.5 221 c 128,-1,15
 1597 163 1597 163 1528.5 121.5 c 128,-1,16
 1460 80 1460 80 1378.5 53 c 128,-1,17
 1297 26 1297 26 1205 13 c 128,-1,18
 1113 0 1113 0 1017 0 c 2,19,-1
 110 0 l 2,20,21
 75 0 75 0 55.5 25.5 c 128,-1,22
 36 51 36 51 36 84 c 0,23,24
 36 176 36 176 108 176 c 2,25,-1
 372 176 l 1,26,-1
 372 1538 l 1,27,-1
 159 1538 l 2,28,29
 124 1538 124 1538 105 1563.5 c 128,-1,30
 86 1589 86 1589 86 1622 c 0,31,32
 86 1714 86 1714 157 1714 c 2,33,-1
 974 1714 l 2,0,1
1466 362 m 1,34,35
 1501 432 1501 432 1501 538 c 0,36,37
 1501 646 1501 646 1464 711.5 c 128,-1,38
 1427 777 1427 777 1365 812 c 0,39,40
 1269 866 1269 866 1056 866 c 2,41,-1
 606 866 l 1,42,-1
 606 176 l 1,43,-1
 1020 176 l 2,44,45
 1368 176 1368 176 1466 362 c 1,34,35
1381 1270 m 0,46,47
 1381 1410 1381 1410 1283.5 1474 c 128,-1,48
 1186 1538 1186 1538 993 1538 c 2,49,-1
 606 1538 l 1,50,-1
 606 995 l 1,51,-1
 1056 995 l 2,52,53
 1128 995 1128 995 1187.5 1014 c 128,-1,54
 1247 1033 1247 1033 1290 1068 c 128,-1,55
 1333 1103 1333 1103 1357 1154 c 128,-1,56
 1381 1205 1381 1205 1381 1270 c 0,46,47
EndSplineSet
EndChar

StartChar: C
Encoding: 67 67 38
Width: 1802
GlyphClass: 2
Flags: W
LayerCount: 2
Fore
SplineSet
1463 1642 m 2,0,1
 1463 1714 1463 1714 1555 1714 c 0,2,3
 1588 1714 1588 1714 1613.5 1694.5 c 128,-1,4
 1639 1675 1639 1675 1639 1640 c 2,5,-1
 1639 1266 l 2,6,7
 1639 1248 1639 1248 1631.5 1234.5 c 128,-1,8
 1624 1221 1624 1221 1613 1211.5 c 128,-1,9
 1602 1202 1602 1202 1588.5 1197 c 128,-1,10
 1575 1192 1575 1192 1563 1192 c 0,11,12
 1543 1192 1543 1192 1532.5 1194.5 c 128,-1,13
 1522 1197 1522 1197 1515 1204.5 c 128,-1,14
 1508 1212 1508 1212 1501 1225 c 128,-1,15
 1494 1238 1494 1238 1481 1259 c 128,-1,16
 1468 1280 1468 1280 1446 1310 c 128,-1,17
 1424 1340 1424 1340 1387 1381 c 0,18,19
 1312 1464 1312 1464 1210.5 1507 c 128,-1,20
 1109 1550 1109 1550 990 1550 c 0,21,22
 829 1550 829 1550 707.5 1498.5 c 128,-1,23
 586 1447 586 1447 504.5 1357 c 128,-1,24
 423 1267 423 1267 381.5 1144 c 128,-1,25
 340 1021 340 1021 340 878 c 0,26,27
 340 712 340 712 382.5 580.5 c 128,-1,28
 425 449 425 449 506.5 358 c 128,-1,29
 588 267 588 267 706.5 219 c 128,-1,30
 825 171 825 171 976 171 c 0,31,32
 1078 171 1078 171 1162.5 199 c 128,-1,33
 1247 227 1247 227 1312.5 281 c 128,-1,34
 1378 335 1378 335 1422 413 c 128,-1,35
 1466 491 1466 491 1486 590 c 0,36,37
 1490 608 1490 608 1500 621.5 c 128,-1,38
 1510 635 1510 635 1523.5 643.5 c 128,-1,39
 1537 652 1537 652 1551.5 656.5 c 128,-1,40
 1566 661 1566 661 1580 661 c 0,41,42
 1636 661 1636 661 1665 635 c 128,-1,43
 1694 609 1694 609 1694 571 c 0,44,45
 1694 486 1694 486 1669 409 c 128,-1,46
 1644 332 1644 332 1597 265.5 c 128,-1,47
 1550 199 1550 199 1484 145.5 c 128,-1,48
 1418 92 1418 92 1336 54 c 128,-1,49
 1254 16 1254 16 1158.5 -4.5 c 128,-1,50
 1063 -25 1063 -25 957 -25 c 0,51,52
 759 -25 759 -25 596.5 43 c 128,-1,53
 434 111 434 111 318.5 232.5 c 128,-1,54
 203 354 203 354 140 521.5 c 128,-1,55
 77 689 77 689 77 889 c 0,56,57
 77 1266 77 1266 332 1505 c 1,58,59
 584 1739 584 1739 976 1739 c 0,60,61
 1266 1739 1266 1739 1463 1538 c 1,62,-1
 1463 1642 l 2,0,1
EndSplineSet
EndChar

StartChar: D
Encoding: 68 68 39
Width: 1924
GlyphClass: 2
Flags: W
LayerCount: 2
Fore
SplineSet
610 176 m 1,0,1
 645 174 645 174 694.5 173 c 128,-1,2
 744 172 744 172 808 172 c 0,3,4
 871 172 871 172 945 181 c 128,-1,5
 1019 190 1019 190 1094 208.5 c 128,-1,6
 1169 227 1169 227 1239.5 255.5 c 128,-1,7
 1310 284 1310 284 1366 324 c 0,8,9
 1605 494 1605 494 1605 866 c 0,10,11
 1605 1023 1605 1023 1556.5 1148 c 128,-1,12
 1508 1273 1508 1273 1416.5 1359.5 c 128,-1,13
 1325 1446 1325 1446 1193.5 1492 c 128,-1,14
 1062 1538 1062 1538 896 1538 c 2,15,-1
 610 1538 l 1,16,-1
 610 176 l 1,0,1
173 1538 m 2,17,18
 102 1538 102 1538 102 1630 c 0,19,20
 102 1663 102 1663 121.5 1688.5 c 128,-1,21
 141 1714 141 1714 176 1714 c 2,22,-1
 868 1714 l 2,23,24
 1098 1714 1098 1714 1279.5 1657.5 c 128,-1,25
 1461 1601 1461 1601 1587 1492.5 c 128,-1,26
 1713 1384 1713 1384 1780 1226 c 128,-1,27
 1847 1068 1847 1068 1847 866 c 0,28,29
 1847 666 1847 666 1778.5 506 c 128,-1,30
 1710 346 1710 346 1582.5 233.5 c 128,-1,31
 1455 121 1455 121 1274 60.5 c 128,-1,32
 1093 0 1093 0 868 0 c 2,33,-1
 110 0 l 2,34,35
 75 0 75 0 55.5 25.5 c 128,-1,36
 36 51 36 51 36 84 c 0,37,38
 36 176 36 176 108 176 c 2,39,-1
 376 176 l 1,40,-1
 376 1538 l 1,41,-1
 173 1538 l 2,17,18
EndSplineSet
EndChar

StartChar: E
Encoding: 69 69 40
Width: 1881
GlyphClass: 2
Flags: W
LayerCount: 2
Fore
SplineSet
210 1538 m 2,0,1
 139 1538 139 1538 139 1630 c 0,2,3
 139 1663 139 1663 158 1688.5 c 128,-1,4
 177 1714 177 1714 212 1714 c 2,5,-1
 1609 1714 l 2,6,7
 1645 1714 1645 1714 1662 1692.5 c 128,-1,8
 1679 1671 1679 1671 1691 1636 c 1,9,-1
 1787 1319 l 2,10,11
 1793 1299 1793 1299 1793 1278 c 0,12,13
 1793 1266 1793 1266 1788.5 1253 c 128,-1,14
 1784 1240 1784 1240 1775 1229.5 c 128,-1,15
 1766 1219 1766 1219 1751.5 1212.5 c 128,-1,16
 1737 1206 1737 1206 1717 1206 c 0,17,18
 1681 1206 1681 1206 1656 1228 c 128,-1,19
 1631 1250 1631 1250 1617 1282 c 2,20,-1
 1509 1538 l 1,21,-1
 626 1538 l 1,22,-1
 626 967 l 1,23,-1
 960 967 l 1,24,-1
 1011 1153 l 2,25,26
 1029 1221 1029 1221 1091 1221 c 0,27,28
 1125 1221 1125 1221 1143 1198.5 c 128,-1,29
 1161 1176 1161 1176 1161 1141 c 1,30,-1
 1146 899 l 1,31,-1
 1161 649 l 1,32,33
 1161 614 1161 614 1143 591.5 c 128,-1,34
 1125 569 1125 569 1092 569 c 0,35,36
 1029 569 1029 569 1011 637 c 2,37,-1
 960 823 l 1,38,-1
 626 823 l 1,39,-1
 626 176 l 1,40,-1
 1509 176 l 1,41,-1
 1625 506 l 1,42,43
 1658 582 1658 582 1728 582 c 0,44,45
 1765 582 1765 582 1783 559.5 c 128,-1,46
 1801 537 1801 537 1801 508 c 0,47,48
 1801 497 1801 497 1799 487 c 128,-1,49
 1797 477 1797 477 1795 469 c 2,50,-1
 1732 78 l 1,51,52
 1721 42 1721 42 1703.5 21 c 128,-1,53
 1686 0 1686 0 1650 0 c 2,54,-1
 110 0 l 2,55,56
 75 0 75 0 55.5 25.5 c 128,-1,57
 36 51 36 51 36 84 c 0,58,59
 36 176 36 176 108 176 c 2,60,-1
 393 176 l 1,61,-1
 393 1538 l 1,62,-1
 210 1538 l 2,0,1
EndSplineSet
EndChar

StartChar: F
Encoding: 70 70 41
Width: 1782
GlyphClass: 2
Flags: W
LayerCount: 2
Fore
SplineSet
972 176 m 2,0,1
 1044 176 1044 176 1044 84 c 0,2,3
 1044 51 1044 51 1024.5 25.5 c 128,-1,4
 1005 0 1005 0 970 0 c 2,5,-1
 110 0 l 2,6,7
 75 0 75 0 55.5 25.5 c 128,-1,8
 36 51 36 51 36 84 c 0,9,10
 36 176 36 176 108 176 c 2,11,-1
 434 176 l 1,12,-1
 434 1538 l 1,13,-1
 190 1538 l 2,14,15
 118 1538 118 1538 118 1630 c 0,16,17
 118 1663 118 1663 137.5 1688.5 c 128,-1,18
 157 1714 157 1714 192 1714 c 2,19,-1
 1642 1714 l 2,20,21
 1678 1714 1678 1714 1695 1692.5 c 128,-1,22
 1712 1671 1712 1671 1724 1636 c 1,23,-1
 1800 1319 l 2,24,25
 1802 1308 1802 1308 1804 1296 c 128,-1,26
 1806 1284 1806 1284 1806 1271 c 0,27,28
 1806 1247 1806 1247 1785 1226.5 c 128,-1,29
 1764 1206 1764 1206 1729 1206 c 0,30,31
 1661 1206 1661 1206 1630 1282 c 1,32,-1
 1542 1538 l 1,33,-1
 667 1538 l 1,34,-1
 667 928 l 1,35,-1
 1007 928 l 1,36,-1
 1058 1114 l 2,37,38
 1076 1182 1076 1182 1138 1182 c 0,39,40
 1172 1182 1172 1182 1190 1159.5 c 128,-1,41
 1208 1137 1208 1137 1208 1102 c 1,42,-1
 1194 860 l 1,43,-1
 1208 610 l 1,44,45
 1208 575 1208 575 1190 552.5 c 128,-1,46
 1172 530 1172 530 1139 530 c 0,47,48
 1076 530 1076 530 1058 598 c 2,49,-1
 1007 784 l 1,50,-1
 667 784 l 1,51,-1
 667 176 l 1,52,-1
 972 176 l 2,0,1
EndSplineSet
EndChar

StartChar: G
Encoding: 71 71 42
Width: 1988
GlyphClass: 2
Flags: W
LayerCount: 2
Fore
SplineSet
1543 1642 m 2,0,1
 1543 1714 1543 1714 1635 1714 c 0,2,3
 1668 1714 1668 1714 1693.5 1694.5 c 128,-1,4
 1719 1675 1719 1675 1719 1640 c 2,5,-1
 1719 1266 l 2,6,7
 1719 1248 1719 1248 1711.5 1234.5 c 128,-1,8
 1704 1221 1704 1221 1693 1211.5 c 128,-1,9
 1682 1202 1682 1202 1668.5 1197 c 128,-1,10
 1655 1192 1655 1192 1643 1192 c 0,11,12
 1625 1192 1625 1192 1612.5 1196.5 c 128,-1,13
 1600 1201 1600 1201 1591.5 1208.5 c 128,-1,14
 1583 1216 1583 1216 1577.5 1225 c 128,-1,15
 1572 1234 1572 1234 1567 1243 c 0,16,17
 1563 1250 1563 1250 1545.5 1276.5 c 128,-1,18
 1528 1303 1528 1303 1497.5 1337.5 c 128,-1,19
 1467 1372 1467 1372 1423.5 1409 c 128,-1,20
 1380 1446 1380 1446 1324 1475 c 0,21,22
 1181 1550 1181 1550 1011 1550 c 0,23,24
 844 1550 844 1550 718 1497.5 c 128,-1,25
 592 1445 592 1445 508 1351.5 c 128,-1,26
 424 1258 424 1258 381.5 1129.5 c 128,-1,27
 339 1001 339 1001 339 850 c 0,28,29
 339 693 339 693 383.5 566 c 128,-1,30
 428 439 428 439 510.5 350 c 128,-1,31
 593 261 593 261 710.5 212.5 c 128,-1,32
 828 164 828 164 974 164 c 0,33,34
 1269 164 1269 164 1423.5 265 c 128,-1,35
 1578 366 1578 366 1578 569 c 2,36,-1
 1578 696 l 1,37,-1
 1426 696 l 2,38,39
 1391 696 1391 696 1372 721.5 c 128,-1,40
 1353 747 1353 747 1353 780 c 0,41,42
 1353 872 1353 872 1424 872 c 2,43,-1
 1840 872 l 2,44,45
 1912 872 1912 872 1912 780 c 0,46,47
 1912 747 1912 747 1892.5 721.5 c 128,-1,48
 1873 696 1873 696 1838 696 c 2,49,-1
 1754 696 l 1,50,-1
 1754 72 l 2,51,52
 1754 0 1754 0 1662 0 c 0,53,54
 1629 0 1629 0 1603.5 19.5 c 128,-1,55
 1578 39 1578 39 1578 74 c 2,56,-1
 1578 197 l 1,57,58
 1414 -25 1414 -25 974 -25 c 0,59,60
 773 -25 773 -25 608 38.5 c 128,-1,61
 443 102 443 102 325 217.5 c 128,-1,62
 207 333 207 333 142 494 c 128,-1,63
 77 655 77 655 77 850 c 0,64,65
 77 1051 77 1051 145 1215.5 c 128,-1,66
 213 1380 213 1380 334.5 1496 c 128,-1,67
 456 1612 456 1612 624.5 1675.5 c 128,-1,68
 793 1739 793 1739 994 1739 c 0,69,70
 1080 1739 1080 1739 1155.5 1726 c 128,-1,71
 1231 1713 1231 1713 1298.5 1688 c 128,-1,72
 1366 1663 1366 1663 1426.5 1625 c 128,-1,73
 1487 1587 1487 1587 1543 1538 c 1,74,-1
 1543 1642 l 2,0,1
EndSplineSet
EndChar

StartChar: H
Encoding: 72 72 43
Width: 2020
GlyphClass: 2
Flags: W
LayerCount: 2
Fore
SplineSet
768 176 m 2,0,1
 839 176 839 176 839 84 c 0,2,3
 839 51 839 51 820 25.5 c 128,-1,4
 801 0 801 0 766 0 c 2,5,-1
 110 0 l 2,6,7
 75 0 75 0 55.5 25.5 c 128,-1,8
 36 51 36 51 36 84 c 0,9,10
 36 176 36 176 108 176 c 2,11,-1
 331 176 l 1,12,-1
 331 1538 l 1,13,-1
 129 1538 l 2,14,15
 57 1538 57 1538 57 1630 c 0,16,17
 57 1663 57 1663 76.5 1688.5 c 128,-1,18
 96 1714 96 1714 131 1714 c 2,19,-1
 766 1714 l 2,20,21
 801 1714 801 1714 820 1688.5 c 128,-1,22
 839 1663 839 1663 839 1630 c 0,23,24
 839 1538 839 1538 768 1538 c 2,25,-1
 565 1538 l 1,26,-1
 565 963 l 1,27,-1
 1497 963 l 1,28,-1
 1497 1538 l 1,29,-1
 1294 1538 l 2,30,31
 1222 1538 1222 1538 1222 1630 c 0,32,33
 1222 1663 1222 1663 1241.5 1688.5 c 128,-1,34
 1261 1714 1261 1714 1296 1714 c 2,35,-1
 1910 1714 l 2,36,37
 1945 1714 1945 1714 1964.5 1688.5 c 128,-1,38
 1984 1663 1984 1663 1984 1630 c 0,39,40
 1984 1538 1984 1538 1912 1538 c 2,41,-1
 1730 1538 l 1,42,-1
 1730 176 l 1,43,-1
 1912 176 l 2,44,45
 1984 176 1984 176 1984 84 c 0,46,47
 1984 51 1984 51 1964.5 25.5 c 128,-1,48
 1945 0 1945 0 1910 0 c 2,49,-1
 1296 0 l 2,50,51
 1261 0 1261 0 1241.5 25.5 c 128,-1,52
 1222 51 1222 51 1222 84 c 0,53,54
 1222 176 1222 176 1294 176 c 2,55,-1
 1497 176 l 1,56,-1
 1497 788 l 1,57,-1
 565 788 l 1,58,-1
 565 176 l 1,59,-1
 768 176 l 2,0,1
EndSplineSet
EndChar

StartChar: I
Encoding: 73 73 44
Width: 1008
GlyphClass: 2
Flags: W
LayerCount: 2
Fore
SplineSet
866 176 m 2,0,1
 938 176 938 176 938 84 c 0,2,3
 938 51 938 51 918.5 25.5 c 128,-1,4
 899 0 899 0 864 0 c 2,5,-1
 147 0 l 2,6,7
 112 0 112 0 93 25.5 c 128,-1,8
 74 51 74 51 74 84 c 0,9,10
 74 176 74 176 145 176 c 2,11,-1
 389 176 l 1,12,-1
 389 1538 l 1,13,-1
 145 1538 l 2,14,15
 74 1538 74 1538 74 1630 c 0,16,17
 74 1663 74 1663 93 1688.5 c 128,-1,18
 112 1714 112 1714 147 1714 c 2,19,-1
 864 1714 l 2,20,21
 899 1714 899 1714 918.5 1688.5 c 128,-1,22
 938 1663 938 1663 938 1630 c 0,23,24
 938 1538 938 1538 866 1538 c 2,25,-1
 623 1538 l 1,26,-1
 623 176 l 1,27,-1
 866 176 l 2,0,1
EndSplineSet
EndChar

StartChar: J
Encoding: 74 74 45
Width: 1333
GlyphClass: 2
Flags: W
LayerCount: 2
Fore
SplineSet
1301 1630 m 0,0,1
 1301 1538 1301 1538 1230 1538 c 2,2,-1
 965 1538 l 1,3,-1
 965 443 l 2,4,5
 965 301 965 301 931 189.5 c 128,-1,6
 897 78 897 78 832.5 0.5 c 128,-1,7
 768 -77 768 -77 674 -117.5 c 128,-1,8
 580 -158 580 -158 461 -158 c 0,9,10
 385 -158 385 -158 317 -138.5 c 128,-1,11
 249 -119 249 -119 197.5 -85 c 128,-1,12
 146 -51 146 -51 115.5 -5.5 c 128,-1,13
 85 40 85 40 85 93 c 2,14,-1
 85 226 l 2,15,16
 85 284 85 284 112 313.5 c 128,-1,17
 139 343 139 343 182 343 c 256,18,19
 225 343 225 343 252.5 335 c 128,-1,20
 280 327 280 327 296 313.5 c 128,-1,21
 312 300 312 300 317.5 283 c 128,-1,22
 323 266 323 266 323 249 c 2,23,-1
 323 122 l 2,24,25
 323 104 323 104 336 87.5 c 128,-1,26
 349 71 349 71 369.5 58.5 c 128,-1,27
 390 46 390 46 415.5 38.5 c 128,-1,28
 441 31 441 31 467 31 c 0,29,30
 524 31 524 31 573 55.5 c 128,-1,31
 622 80 622 80 657 128 c 128,-1,32
 692 176 692 176 712 248.5 c 128,-1,33
 732 321 732 321 732 417 c 2,34,-1
 732 1538 l 1,35,-1
 410 1538 l 2,36,37
 339 1538 339 1538 339 1630 c 0,38,39
 339 1663 339 1663 358 1688.5 c 128,-1,40
 377 1714 377 1714 412 1714 c 2,41,-1
 1228 1714 l 2,42,43
 1263 1714 1263 1714 1282 1688.5 c 128,-1,44
 1301 1663 1301 1663 1301 1630 c 0,0,1
EndSplineSet
EndChar

StartChar: K
Encoding: 75 75 46
Width: 2032
GlyphClass: 2
Flags: W
LayerCount: 2
Fore
SplineSet
845 176 m 2,0,1
 917 176 917 176 917 84 c 0,2,3
 917 51 917 51 897.5 25.5 c 128,-1,4
 878 0 878 0 843 0 c 2,5,-1
 110 0 l 2,6,7
 75 0 75 0 55.5 25.5 c 128,-1,8
 36 51 36 51 36 84 c 0,9,10
 36 176 36 176 108 176 c 2,11,-1
 327 176 l 1,12,-1
 327 1538 l 1,13,-1
 108 1538 l 2,14,15
 36 1538 36 1538 36 1630 c 0,16,17
 36 1663 36 1663 55.5 1688.5 c 128,-1,18
 75 1714 75 1714 110 1714 c 2,19,-1
 761 1714 l 2,20,21
 796 1714 796 1714 815.5 1688.5 c 128,-1,22
 835 1663 835 1663 835 1630 c 0,23,24
 835 1538 835 1538 764 1538 c 2,25,-1
 561 1538 l 1,26,-1
 561 842 l 1,27,-1
 1353 1499 l 1,28,29
 1368 1514 1368 1514 1368 1530 c 0,30,31
 1368 1552 1368 1552 1335 1552 c 2,32,-1
 1265 1552 l 2,33,34
 1194 1552 1194 1552 1194 1630 c 0,35,36
 1194 1663 1194 1663 1213 1688.5 c 128,-1,37
 1232 1714 1232 1714 1267 1714 c 2,38,-1
 1796 1714 l 2,39,40
 1831 1714 1831 1714 1850 1688.5 c 128,-1,41
 1869 1663 1869 1663 1869 1630 c 0,42,43
 1869 1538 1869 1538 1798 1538 c 2,44,-1
 1640 1538 l 1,45,-1
 1034 1016 l 1,46,-1
 1820 176 l 1,47,-1
 1962 176 l 2,48,49
 2033 176 2033 176 2033 84 c 0,50,51
 2033 51 2033 51 2014 25.5 c 128,-1,52
 1995 0 1995 0 1960 0 c 2,53,-1
 1349 0 l 2,54,55
 1314 0 1314 0 1295 25.5 c 128,-1,56
 1276 51 1276 51 1276 84 c 0,57,58
 1276 176 1276 176 1347 176 c 2,59,-1
 1546 176 l 1,60,-1
 884 911 l 1,61,-1
 561 662 l 1,62,-1
 561 176 l 1,63,-1
 845 176 l 2,0,1
EndSplineSet
EndChar

StartChar: L
Encoding: 76 76 47
Width: 1838
GlyphClass: 2
Flags: W
LayerCount: 2
Fore
SplineSet
170 1538 m 2,0,1
 98 1538 98 1538 98 1630 c 0,2,3
 98 1663 98 1663 117.5 1688.5 c 128,-1,4
 137 1714 137 1714 172 1714 c 2,5,-1
 864 1714 l 2,6,7
 899 1714 899 1714 918.5 1688.5 c 128,-1,8
 938 1663 938 1663 938 1630 c 0,9,10
 938 1538 938 1538 866 1538 c 2,11,-1
 643 1538 l 1,12,-1
 643 176 l 1,13,-1
 1347 176 l 2,14,15
 1410 176 1410 176 1450.5 185.5 c 128,-1,16
 1491 195 1491 195 1515 211.5 c 128,-1,17
 1539 228 1539 228 1549.5 251.5 c 128,-1,18
 1560 275 1560 275 1562 303 c 2,19,-1
 1591 584 l 2,20,21
 1597 647 1597 647 1673 647 c 0,22,23
 1710 647 1710 647 1737.5 627 c 128,-1,24
 1765 607 1765 607 1765 567 c 1,25,-1
 1720 68 l 1,26,27
 1712 0 1712 0 1659 0 c 2,28,-1
 110 0 l 2,29,30
 75 0 75 0 55.5 25.5 c 128,-1,31
 36 51 36 51 36 84 c 0,32,33
 36 176 36 176 108 176 c 2,34,-1
 409 176 l 1,35,-1
 409 1538 l 1,36,-1
 170 1538 l 2,0,1
EndSplineSet
EndChar

StartChar: M
Encoding: 77 77 48
Width: 2417
GlyphClass: 2
Flags: W
LayerCount: 2
Fore
SplineSet
2310 176 m 2,0,1
 2381 176 2381 176 2381 84 c 0,2,3
 2381 51 2381 51 2362 25.5 c 128,-1,4
 2343 0 2343 0 2308 0 c 2,5,-1
 1714 0 l 2,6,7
 1679 0 1679 0 1659.5 25.5 c 128,-1,8
 1640 51 1640 51 1640 84 c 0,9,10
 1640 176 1640 176 1712 176 c 2,11,-1
 1894 176 l 1,12,-1
 1894 1235 l 1,13,-1
 1290 102 l 1,14,15
 1280 76 1280 76 1255.5 56.5 c 128,-1,16
 1231 37 1231 37 1198 37 c 0,17,18
 1133 37 1133 37 1106 92 c 2,19,-1
 540 1249 l 1,20,-1
 540 176 l 1,21,-1
 743 176 l 2,22,23
 815 176 815 176 815 84 c 0,24,25
 815 51 815 51 795.5 25.5 c 128,-1,26
 776 0 776 0 741 0 c 2,27,-1
 110 0 l 2,28,29
 75 0 75 0 55.5 25.5 c 128,-1,30
 36 51 36 51 36 84 c 0,31,32
 36 176 36 176 108 176 c 2,33,-1
 331 176 l 1,34,-1
 331 1538 l 1,35,-1
 129 1538 l 2,36,37
 57 1538 57 1538 57 1630 c 0,38,39
 57 1663 57 1663 76.5 1688.5 c 128,-1,40
 96 1714 96 1714 131 1714 c 2,41,-1
 467 1714 l 2,42,43
 508 1714 508 1714 534 1663 c 2,44,-1
 1196 328 l 1,45,-1
 1902 1671 l 2,46,47
 1924 1714 1924 1714 1968 1714 c 2,48,-1
 2287 1714 l 2,49,50
 2322 1714 2322 1714 2341.5 1688.5 c 128,-1,51
 2361 1663 2361 1663 2361 1630 c 0,52,53
 2361 1538 2361 1538 2289 1538 c 2,54,-1
 2107 1538 l 1,55,-1
 2107 176 l 1,56,-1
 2310 176 l 2,0,1
EndSplineSet
EndChar

StartChar: N
Encoding: 78 78 49
Width: 2024
GlyphClass: 2
Flags: W
LayerCount: 2
Fore
SplineSet
108 1538 m 2,0,1
 36 1538 36 1538 36 1630 c 0,2,3
 36 1663 36 1663 55.5 1688.5 c 128,-1,4
 75 1714 75 1714 110 1714 c 2,5,-1
 573 1714 l 2,6,7
 615 1714 615 1714 632 1679 c 1,8,-1
 1511 426 l 1,9,-1
 1511 1538 l 1,10,-1
 1331 1538 l 2,11,12
 1259 1538 1259 1538 1259 1630 c 0,13,14
 1259 1663 1259 1663 1278.5 1688.5 c 128,-1,15
 1298 1714 1298 1714 1333 1714 c 2,16,-1
 1915 1714 l 2,17,18
 1950 1714 1950 1714 1969 1688.5 c 128,-1,19
 1988 1663 1988 1663 1988 1630 c 0,20,21
 1988 1538 1988 1538 1917 1538 c 2,22,-1
 1718 1538 l 1,23,-1
 1718 53 l 2,24,25
 1718 17 1718 17 1693.5 -10 c 128,-1,26
 1669 -37 1669 -37 1621 -37 c 0,27,28
 1572 -37 1572 -37 1536 16 c 1,29,-1
 518 1456 l 1,30,-1
 518 176 l 1,31,-1
 694 176 l 2,32,33
 766 176 766 176 766 84 c 0,34,35
 766 51 766 51 746.5 25.5 c 128,-1,36
 727 0 727 0 692 0 c 2,37,-1
 110 0 l 2,38,39
 75 0 75 0 55.5 25.5 c 128,-1,40
 36 51 36 51 36 84 c 0,41,42
 36 176 36 176 108 176 c 2,43,-1
 307 176 l 1,44,-1
 307 1538 l 1,45,-1
 108 1538 l 2,0,1
EndSplineSet
EndChar

StartChar: O
Encoding: 79 79 50
Width: 1940
GlyphClass: 2
Flags: W
LayerCount: 2
Fore
SplineSet
966 -25 m 0,0,1
 764 -25 764 -25 600 39.5 c 128,-1,2
 436 104 436 104 319.5 220 c 128,-1,3
 203 336 203 336 140 497 c 128,-1,4
 77 658 77 658 77 850 c 0,5,6
 77 1039 77 1039 139 1201.5 c 128,-1,7
 201 1364 201 1364 316.5 1483.5 c 128,-1,8
 432 1603 432 1603 596.5 1671 c 128,-1,9
 761 1739 761 1739 966 1739 c 0,10,11
 1363 1739 1363 1739 1614 1494 c 1,12,13
 1863 1249 1863 1249 1863 850 c 0,14,15
 1863 655 1863 655 1798 494 c 128,-1,16
 1733 333 1733 333 1615 217.5 c 128,-1,17
 1497 102 1497 102 1332 38.5 c 128,-1,18
 1167 -25 1167 -25 966 -25 c 0,0,1
959 1550 m 0,19,20
 807 1550 807 1550 689 1497.5 c 128,-1,21
 571 1445 571 1445 490.5 1351.5 c 128,-1,22
 410 1258 410 1258 368.5 1129.5 c 128,-1,23
 327 1001 327 1001 327 850 c 0,24,25
 327 693 327 693 372.5 566 c 128,-1,26
 418 439 418 439 502 350 c 128,-1,27
 586 261 586 261 705.5 212.5 c 128,-1,28
 825 164 825 164 974 164 c 0,29,30
 1122 164 1122 164 1240.5 213 c 128,-1,31
 1359 262 1359 262 1442.5 351.5 c 128,-1,32
 1526 441 1526 441 1570.5 567 c 128,-1,33
 1615 693 1615 693 1615 848 c 0,34,35
 1615 1005 1615 1005 1568.5 1134.5 c 128,-1,36
 1522 1264 1522 1264 1436.5 1356.5 c 128,-1,37
 1351 1449 1351 1449 1230 1499.5 c 128,-1,38
 1109 1550 1109 1550 959 1550 c 0,19,20
EndSplineSet
EndChar

StartChar: P
Encoding: 80 80 51
Width: 1740
GlyphClass: 2
Flags: W
LayerCount: 2
Fore
SplineSet
1099 1526 m 0,0,1
 1006 1538 1006 1538 813 1538 c 2,2,-1
 606 1538 l 1,3,-1
 606 889 l 1,4,-1
 874 889 l 2,5,6
 968 889 968 889 1029.5 892 c 128,-1,7
 1091 895 1091 895 1133 901 c 128,-1,8
 1175 907 1175 907 1204 916 c 128,-1,9
 1233 925 1233 925 1262 936 c 0,10,11
 1341 967 1341 967 1388 1036 c 128,-1,12
 1435 1105 1435 1105 1435 1222 c 0,13,14
 1435 1300 1435 1300 1408.5 1354.5 c 128,-1,15
 1382 1409 1382 1409 1336.5 1444.5 c 128,-1,16
 1291 1480 1291 1480 1229.5 1499 c 128,-1,17
 1168 1518 1168 1518 1099 1526 c 0,0,1
129 1538 m 2,18,19
 57 1538 57 1538 57 1630 c 0,20,21
 57 1663 57 1663 76.5 1688.5 c 128,-1,22
 96 1714 96 1714 131 1714 c 2,23,-1
 784 1714 l 2,24,25
 926 1714 926 1714 1026.5 1708.5 c 128,-1,26
 1127 1703 1127 1703 1188 1693 c 0,27,28
 1313 1672 1313 1672 1404 1634 c 128,-1,29
 1495 1596 1495 1596 1554.5 1537.5 c 128,-1,30
 1614 1479 1614 1479 1642.5 1397.5 c 128,-1,31
 1671 1316 1671 1316 1671 1208 c 0,32,33
 1671 1083 1671 1083 1630.5 994 c 128,-1,34
 1590 905 1590 905 1510 848 c 128,-1,35
 1430 791 1430 791 1310.5 762 c 128,-1,36
 1191 733 1191 733 1032 728 c 0,37,38
 928 725 928 725 821 725 c 2,39,-1
 606 725 l 1,40,-1
 606 176 l 1,41,-1
 911 176 l 2,42,43
 983 176 983 176 983 84 c 0,44,45
 983 51 983 51 963.5 25.5 c 128,-1,46
 944 0 944 0 909 0 c 2,47,-1
 110 0 l 2,48,49
 75 0 75 0 55.5 25.5 c 128,-1,50
 36 51 36 51 36 84 c 0,51,52
 36 176 36 176 108 176 c 2,53,-1
 372 176 l 1,54,-1
 372 1538 l 1,55,-1
 129 1538 l 2,18,19
EndSplineSet
EndChar

StartChar: Q
Encoding: 81 81 52
Width: 1948
GlyphClass: 2
Flags: W
LayerCount: 2
Fore
SplineSet
976 1550 m 0,0,1
 823 1550 823 1550 704.5 1497.5 c 128,-1,2
 586 1445 586 1445 504.5 1351.5 c 128,-1,3
 423 1258 423 1258 381 1129.5 c 128,-1,4
 339 1001 339 1001 339 850 c 0,5,6
 339 693 339 693 383.5 566 c 128,-1,7
 428 439 428 439 510.5 350 c 128,-1,8
 593 261 593 261 710.5 212.5 c 128,-1,9
 828 164 828 164 974 164 c 0,10,11
 1124 164 1124 164 1245 212 c 128,-1,12
 1366 260 1366 260 1451.5 349 c 128,-1,13
 1537 438 1537 438 1583 565 c 128,-1,14
 1629 692 1629 692 1629 850 c 0,15,16
 1629 1010 1629 1010 1582 1139 c 128,-1,17
 1535 1268 1535 1268 1449.5 1359.5 c 128,-1,18
 1364 1451 1364 1451 1243.5 1500.5 c 128,-1,19
 1123 1550 1123 1550 976 1550 c 0,0,1
1140 -13 m 1,20,-1
 1368 -161 l 1,21,22
 1409 -183 1409 -183 1488 -183 c 256,23,24
 1567 -183 1567 -183 1689 -95 c 0,25,26
 1698 -88 1698 -88 1708.5 -85.5 c 128,-1,27
 1719 -83 1719 -83 1729 -83 c 0,28,29
 1753 -83 1753 -83 1773 -93 c 128,-1,30
 1793 -103 1793 -103 1807.5 -118.5 c 128,-1,31
 1822 -134 1822 -134 1830.5 -153 c 128,-1,32
 1839 -172 1839 -172 1839 -189 c 0,33,34
 1839 -221 1839 -221 1818.5 -247.5 c 128,-1,35
 1798 -274 1798 -274 1765 -295.5 c 128,-1,36
 1732 -317 1732 -317 1690.5 -333.5 c 128,-1,37
 1649 -350 1649 -350 1606.5 -361.5 c 128,-1,38
 1564 -373 1564 -373 1525 -378.5 c 128,-1,39
 1486 -384 1486 -384 1459 -384 c 0,40,41
 1396 -384 1396 -384 1341.5 -362 c 128,-1,42
 1287 -340 1287 -340 1238 -305.5 c 128,-1,43
 1189 -271 1189 -271 1145 -229 c 128,-1,44
 1101 -187 1101 -187 1059 -146 c 1,45,46
 1007 -97 1007 -97 961.5 -66 c 128,-1,47
 916 -35 916 -35 878 -21 c 1,48,49
 696 -6 696 -6 548 63.5 c 128,-1,50
 400 133 400 133 295.5 246.5 c 128,-1,51
 191 360 191 360 134 513.5 c 128,-1,52
 77 667 77 667 77 850 c 0,53,54
 77 1249 77 1249 326 1494 c 0,55,56
 576 1739 576 1739 974 1739 c 0,57,58
 1371 1739 1371 1739 1622 1494 c 1,59,60
 1871 1249 1871 1249 1871 850 c 0,61,62
 1871 676 1871 676 1819 528.5 c 128,-1,63
 1767 381 1767 381 1671.5 268.5 c 128,-1,64
 1576 156 1576 156 1441 83.5 c 128,-1,65
 1306 11 1306 11 1140 -13 c 1,20,-1
EndSplineSet
EndChar

StartChar: R
Encoding: 82 82 53
Width: 1828
GlyphClass: 2
Flags: W
LayerCount: 2
Fore
SplineSet
749 942 m 2,0,1
 849 942 849 942 917.5 944.5 c 128,-1,2
 986 947 986 947 1023 952 c 0,3,4
 1101 964 1101 964 1157.5 985 c 128,-1,5
 1214 1006 1214 1006 1251.5 1040 c 128,-1,6
 1289 1074 1289 1074 1307 1123 c 128,-1,7
 1325 1172 1325 1172 1325 1239 c 0,8,9
 1325 1317 1325 1317 1294.5 1372.5 c 128,-1,10
 1264 1428 1264 1428 1208.5 1463.5 c 128,-1,11
 1153 1499 1153 1499 1075 1516 c 128,-1,12
 997 1533 997 1533 903 1535 c 0,13,14
 786 1538 786 1538 712 1538 c 2,15,-1
 565 1538 l 1,16,-1
 565 942 l 1,17,-1
 749 942 l 2,0,1
149 1538 m 2,18,19
 77 1538 77 1538 77 1630 c 0,20,21
 77 1663 77 1663 96.5 1688.5 c 128,-1,22
 116 1714 116 1714 151 1714 c 2,23,-1
 743 1714 l 2,24,25
 877 1714 877 1714 971.5 1708.5 c 128,-1,26
 1066 1703 1066 1703 1125 1693 c 0,27,28
 1244 1672 1244 1672 1328 1636 c 128,-1,29
 1412 1600 1412 1600 1465.5 1546 c 128,-1,30
 1519 1492 1519 1492 1543.5 1418.5 c 128,-1,31
 1568 1345 1568 1345 1568 1249 c 0,32,33
 1568 1158 1568 1158 1538.5 1088 c 128,-1,34
 1509 1018 1509 1018 1451.5 966.5 c 128,-1,35
 1394 915 1394 915 1308 880.5 c 128,-1,36
 1222 846 1222 846 1108 827 c 1,37,38
 1204 785 1204 785 1274 717.5 c 128,-1,39
 1344 650 1344 650 1390 540 c 2,40,-1
 1540 177 l 1,41,-1
 1687 177 l 2,42,43
 1747 177 1747 177 1771 156.5 c 128,-1,44
 1795 136 1795 136 1795 96 c 0,45,46
 1795 63 1795 63 1789 43.5 c 128,-1,47
 1783 24 1783 24 1770 14.5 c 128,-1,48
 1757 5 1757 5 1736.5 2 c 128,-1,49
 1716 -1 1716 -1 1688 -1 c 2,50,-1
 1254 0 l 1,51,-1
 1249 0 l 2,52,53
 1232 0 1232 0 1219 7.5 c 128,-1,54
 1206 15 1206 15 1197.5 28 c 128,-1,55
 1189 41 1189 41 1184.5 57 c 128,-1,56
 1180 73 1180 73 1180 90 c 0,57,58
 1180 124 1180 124 1197.5 150.5 c 128,-1,59
 1215 177 1215 177 1252 177 c 2,60,-1
 1301 177 l 1,61,-1
 1189 460 l 2,62,63
 1162 526 1162 526 1122.5 581.5 c 128,-1,64
 1083 637 1083 637 1033 677.5 c 128,-1,65
 983 718 983 718 922 741 c 128,-1,66
 861 764 861 764 792 764 c 2,67,-1
 565 764 l 1,68,-1
 565 177 l 1,69,-1
 829 177 l 2,70,71
 865 177 865 177 883 150.5 c 128,-1,72
 901 124 901 124 901 90 c 0,73,74
 901 73 901 73 896.5 57 c 128,-1,75
 892 41 892 41 883 28 c 128,-1,76
 874 15 874 15 861 7.5 c 128,-1,77
 848 0 848 0 831 0 c 2,78,-1
 827 0 l 1,79,-1
 110 0 l 1,80,-1
 105 0 l 2,81,82
 88 0 88 0 75 7.5 c 128,-1,83
 62 15 62 15 53.5 28 c 128,-1,84
 45 41 45 41 40.5 57 c 128,-1,85
 36 73 36 73 36 90 c 0,86,87
 36 124 36 124 53.5 150.5 c 128,-1,88
 71 177 71 177 108 177 c 2,89,-1
 331 177 l 1,90,-1
 331 1538 l 1,91,-1
 149 1538 l 2,18,19
EndSplineSet
EndChar

StartChar: S
Encoding: 83 83 54
Width: 1511
GlyphClass: 2
Flags: W
LayerCount: 2
Fore
SplineSet
1348 1275 m 1,0,1
 1348 1193 1348 1193 1256 1193 c 0,2,3
 1179 1193 1179 1193 1172 1256 c 1,4,-1
 1168 1372 l 1,5,6
 1155 1476 1155 1476 1059 1528.5 c 128,-1,7
 963 1581 963 1581 776 1581 c 0,8,9
 688 1581 688 1581 619.5 1561.5 c 128,-1,10
 551 1542 551 1542 504.5 1505.5 c 128,-1,11
 458 1469 458 1469 433.5 1418 c 128,-1,12
 409 1367 409 1367 409 1304 c 0,13,14
 409 1245 409 1245 426 1202.5 c 128,-1,15
 443 1160 443 1160 476.5 1129 c 128,-1,16
 510 1098 510 1098 560.5 1076 c 128,-1,17
 611 1054 611 1054 678 1038 c 2,18,-1
 965 967 l 2,19,20
 1083 937 1083 937 1167.5 892.5 c 128,-1,21
 1252 848 1252 848 1306 786 c 128,-1,22
 1360 724 1360 724 1385 642.5 c 128,-1,23
 1410 561 1410 561 1410 458 c 0,24,25
 1410 348 1410 348 1366.5 259 c 128,-1,26
 1323 170 1323 170 1238 106 c 128,-1,27
 1153 42 1153 42 1027.5 7.5 c 128,-1,28
 902 -27 902 -27 738 -27 c 0,29,30
 493 -27 493 -27 314 95 c 1,31,32
 307 41 307 41 288.5 8 c 128,-1,33
 270 -25 270 -25 232 -25 c 0,34,35
 165 -25 165 -25 158 39 c 2,36,-1
 101 535 l 1,37,38
 101 614 101 614 197 614 c 0,39,40
 227 614 227 614 250 596.5 c 128,-1,41
 273 579 273 579 277 549 c 2,42,-1
 293 410 l 2,43,44
 298 363 298 363 336.5 316.5 c 128,-1,45
 375 270 375 270 433.5 233 c 128,-1,46
 492 196 492 196 565 173 c 128,-1,47
 638 150 638 150 713 150 c 0,48,49
 826 150 826 150 917 169 c 128,-1,50
 1008 188 1008 188 1072 225.5 c 128,-1,51
 1136 263 1136 263 1170.5 318.5 c 128,-1,52
 1205 374 1205 374 1205 446 c 0,53,54
 1205 486 1205 486 1199 517 c 128,-1,55
 1193 548 1193 548 1182.5 572 c 128,-1,56
 1172 596 1172 596 1157 614 c 128,-1,57
 1142 632 1142 632 1124 647 c 0,58,59
 1066 693 1066 693 930 732 c 2,60,-1
 602 825 l 1,61,62
 188 916 188 916 188 1271 c 0,63,64
 188 1375 188 1375 231.5 1461.5 c 128,-1,65
 275 1548 275 1548 353 1609.5 c 128,-1,66
 431 1671 431 1671 538 1705 c 128,-1,67
 645 1739 645 1739 772 1739 c 0,68,69
 829 1739 829 1739 885 1732.5 c 128,-1,70
 941 1726 941 1726 992 1712 c 128,-1,71
 1043 1698 1043 1698 1087.5 1677 c 128,-1,72
 1132 1656 1132 1656 1167 1627 c 1,73,74
 1167 1647 1167 1647 1173 1667 c 128,-1,75
 1179 1687 1179 1687 1191 1702.5 c 128,-1,76
 1203 1718 1203 1718 1220 1728 c 128,-1,77
 1237 1738 1237 1738 1259 1738 c 0,78,79
 1272 1738 1272 1738 1286 1734 c 128,-1,80
 1300 1730 1300 1730 1311.5 1722 c 128,-1,81
 1323 1714 1323 1714 1331 1701.5 c 128,-1,82
 1339 1689 1339 1689 1341 1672 c 1,83,-1
 1348 1275 l 1,0,1
EndSplineSet
EndChar

StartChar: T
Encoding: 84 84 55
Width: 1662
GlyphClass: 2
Flags: W
LayerCount: 2
Fore
SplineSet
368 84 m 0,0,1
 368 176 368 176 440 176 c 2,2,-1
 704 176 l 1,3,-1
 704 1538 l 1,4,-1
 214 1538 l 1,5,-1
 184 1251 l 2,6,7
 177 1184 177 1184 102 1184 c 0,8,9
 69 1184 69 1184 51.5 1206 c 128,-1,10
 34 1228 34 1228 34 1264 c 1,11,-1
 49 1636 l 2,12,13
 51 1675 51 1675 63.5 1694.5 c 128,-1,14
 76 1714 76 1714 110 1714 c 2,15,-1
 1552 1714 l 2,16,17
 1608 1714 1608 1714 1613 1636 c 1,18,-1
 1628 1264 l 1,19,20
 1628 1228 1628 1228 1610.5 1206 c 128,-1,21
 1593 1184 1593 1184 1559 1184 c 0,22,23
 1485 1184 1485 1184 1478 1251 c 2,24,-1
 1447 1538 l 1,25,-1
 937 1538 l 1,26,-1
 937 176 l 1,27,-1
 1202 176 l 2,28,29
 1273 176 1273 176 1273 84 c 0,30,31
 1273 51 1273 51 1254 25.5 c 128,-1,32
 1235 0 1235 0 1200 0 c 2,33,-1
 442 0 l 2,34,35
 407 0 407 0 387.5 25.5 c 128,-1,36
 368 51 368 51 368 84 c 0,0,1
EndSplineSet
EndChar

StartChar: U
Encoding: 85 85 56
Width: 1852
GlyphClass: 2
Flags: W
LayerCount: 2
Fore
SplineSet
1813 1630 m 0,0,1
 1813 1538 1813 1538 1741 1538 c 2,2,-1
 1567 1538 l 1,3,-1
 1567 602 l 2,4,5
 1567 463 1567 463 1522 348 c 128,-1,6
 1477 233 1477 233 1395 150 c 128,-1,7
 1313 67 1313 67 1198 21 c 128,-1,8
 1083 -25 1083 -25 944 -25 c 0,9,10
 788 -25 788 -25 662 19 c 128,-1,11
 536 63 536 63 447 144.5 c 128,-1,12
 358 226 358 226 310 342.5 c 128,-1,13
 262 459 262 459 262 604 c 2,14,-1
 262 1538 l 1,15,-1
 111 1538 l 2,16,17
 39 1538 39 1538 39 1630 c 0,18,19
 39 1663 39 1663 58.5 1688.5 c 128,-1,20
 78 1714 78 1714 113 1714 c 2,21,-1
 697 1714 l 2,22,23
 732 1714 732 1714 751 1688.5 c 128,-1,24
 770 1663 770 1663 770 1630 c 0,25,26
 770 1538 770 1538 699 1538 c 2,27,-1
 496 1538 l 1,28,-1
 496 604 l 2,29,30
 496 498 496 498 524 414.5 c 128,-1,31
 552 331 552 331 607.5 273 c 128,-1,32
 663 215 663 215 746 184.5 c 128,-1,33
 829 154 829 154 939 154 c 0,34,35
 1041 154 1041 154 1122 187.5 c 128,-1,36
 1203 221 1203 221 1259.5 281 c 128,-1,37
 1316 341 1316 341 1345.5 423 c 128,-1,38
 1375 505 1375 505 1375 602 c 2,39,-1
 1375 1538 l 1,40,-1
 1184 1538 l 2,41,42
 1112 1538 1112 1538 1112 1630 c 0,43,44
 1112 1663 1112 1663 1131.5 1688.5 c 128,-1,45
 1151 1714 1151 1714 1186 1714 c 2,46,-1
 1739 1714 l 2,47,48
 1774 1714 1774 1714 1793.5 1688.5 c 128,-1,49
 1813 1663 1813 1663 1813 1630 c 0,0,1
EndSplineSet
EndChar

StartChar: V
Encoding: 86 86 57
Width: 1856
GlyphClass: 2
Flags: W
LayerCount: 2
Fore
SplineSet
1231 1538 m 2,0,1
 1159 1538 1159 1538 1159 1630 c 0,2,3
 1159 1663 1159 1663 1178.5 1688.5 c 128,-1,4
 1198 1714 1198 1714 1233 1714 c 2,5,-1
 1766 1714 l 2,6,7
 1801 1714 1801 1714 1820 1688.5 c 128,-1,8
 1839 1663 1839 1663 1839 1630 c 0,9,10
 1839 1538 1839 1538 1768 1538 c 2,11,-1
 1598 1538 l 1,12,-1
 1047 29 l 1,13,14
 1035 2 1035 2 1025 -14 c 128,-1,15
 1015 -30 1015 -30 1004 -38.5 c 128,-1,16
 993 -47 993 -47 980.5 -50 c 128,-1,17
 968 -53 968 -53 952 -53 c 0,18,19
 914 -53 914 -53 894 -30 c 128,-1,20
 874 -7 874 -7 860 29 c 2,21,-1
 301 1538 l 1,22,-1
 90 1538 l 2,23,24
 19 1538 19 1538 19 1630 c 0,25,26
 19 1663 19 1663 38 1688.5 c 128,-1,27
 57 1714 57 1714 92 1714 c 2,28,-1
 707 1714 l 2,29,30
 742 1714 742 1714 761.5 1688.5 c 128,-1,31
 781 1663 781 1663 781 1630 c 0,32,33
 781 1538 781 1538 709 1538 c 2,34,-1
 547 1538 l 1,35,-1
 981 332 l 1,36,-1
 1393 1538 l 1,37,-1
 1231 1538 l 2,0,1
EndSplineSet
EndChar

StartChar: W
Encoding: 87 87 58
Width: 2314
GlyphClass: 2
Flags: W
LayerCount: 2
Fore
SplineSet
1358 1714 m 2,0,1
 1430 1714 1430 1714 1430 1622 c 0,2,3
 1430 1589 1430 1589 1410.5 1563.5 c 128,-1,4
 1391 1538 1391 1538 1356 1538 c 2,5,-1
 1256 1538 l 1,6,-1
 1534 401 l 1,7,-1
 1850 1538 l 1,8,-1
 1729 1538 l 2,9,10
 1694 1538 1694 1538 1674.5 1563.5 c 128,-1,11
 1655 1589 1655 1589 1655 1622 c 0,12,13
 1655 1714 1655 1714 1727 1714 c 2,14,-1
 2224 1714 l 2,15,16
 2296 1714 2296 1714 2296 1622 c 0,17,18
 2296 1589 2296 1589 2276.5 1563.5 c 128,-1,19
 2257 1538 2257 1538 2222 1538 c 2,20,-1
 2056 1538 l 1,21,-1
 1620 39 l 1,22,23
 1609 12 1609 12 1578.5 -7.5 c 128,-1,24
 1548 -27 1548 -27 1510 -27 c 256,25,26
 1472 -27 1472 -27 1444 -8.5 c 128,-1,27
 1416 10 1416 10 1411 47 c 1,28,-1
 1153 1135 l 1,29,-1
 856 39 l 1,30,31
 846 11 846 11 813 -8 c 128,-1,32
 780 -27 780 -27 740 -27 c 0,33,34
 653 -27 653 -27 637 51 c 1,35,-1
 254 1538 l 1,36,-1
 90 1538 l 2,37,38
 55 1538 55 1538 36 1563.5 c 128,-1,39
 17 1589 17 1589 17 1622 c 0,40,41
 17 1714 17 1714 88 1714 c 2,42,-1
 586 1714 l 2,43,44
 658 1714 658 1714 658 1622 c 0,45,46
 658 1589 658 1589 638.5 1563.5 c 128,-1,47
 619 1538 619 1538 584 1538 c 2,48,-1
 490 1538 l 1,49,-1
 774 381 l 1,50,-1
 1098 1538 l 1,51,-1
 1006 1538 l 2,52,53
 971 1538 971 1538 951.5 1563.5 c 128,-1,54
 932 1589 932 1589 932 1622 c 0,55,56
 932 1714 932 1714 1004 1714 c 2,57,-1
 1358 1714 l 2,0,1
EndSplineSet
EndChar

StartChar: X
Encoding: 88 88 59
Width: 1951
GlyphClass: 2
Flags: W
LayerCount: 2
Fore
SplineSet
1262 1538 m 2,0,1
 1190 1538 1190 1538 1190 1630 c 0,2,3
 1190 1663 1190 1663 1209.5 1688.5 c 128,-1,4
 1229 1714 1229 1714 1264 1714 c 2,5,-1
 1837 1714 l 2,6,7
 1872 1714 1872 1714 1891.5 1688.5 c 128,-1,8
 1911 1663 1911 1663 1911 1630 c 0,9,10
 1911 1538 1911 1538 1839 1538 c 2,11,-1
 1673 1538 l 1,12,-1
 1120 895 l 1,13,-1
 1739 176 l 1,14,-1
 1860 176 l 2,15,16
 1932 176 1932 176 1932 84 c 0,17,18
 1932 51 1932 51 1912.5 25.5 c 128,-1,19
 1893 0 1893 0 1858 0 c 2,20,-1
 1182 0 l 2,21,22
 1147 0 1147 0 1127.5 25.5 c 128,-1,23
 1108 51 1108 51 1108 84 c 0,24,25
 1108 176 1108 176 1180 176 c 2,26,-1
 1458 176 l 1,27,-1
 979 731 l 1,28,-1
 502 176 l 1,29,-1
 750 176 l 2,30,31
 821 176 821 176 821 84 c 0,32,33
 821 51 821 51 802 25.5 c 128,-1,34
 783 0 783 0 748 0 c 2,35,-1
 92 0 l 2,36,37
 57 0 57 0 38 25.5 c 128,-1,38
 19 51 19 51 19 84 c 0,39,40
 19 176 19 176 90 176 c 2,41,-1
 273 176 l 1,42,-1
 864 864 l 1,43,-1
 287 1538 l 1,44,-1
 152 1538 l 2,45,46
 80 1538 80 1538 80 1630 c 0,47,48
 80 1663 80 1663 99.5 1688.5 c 128,-1,49
 119 1714 119 1714 154 1714 c 2,50,-1
 748 1714 l 2,51,52
 783 1714 783 1714 802 1688.5 c 128,-1,53
 821 1663 821 1663 821 1630 c 0,54,55
 821 1538 821 1538 750 1538 c 2,56,-1
 568 1538 l 1,57,-1
 1006 1028 l 1,58,-1
 1444 1538 l 1,59,-1
 1262 1538 l 2,0,1
EndSplineSet
EndChar

StartChar: Y
Encoding: 89 89 60
Width: 1824
GlyphClass: 2
Flags: W
LayerCount: 2
Fore
SplineSet
1196 1538 m 2,0,1
 1124 1538 1124 1538 1124 1630 c 0,2,3
 1124 1663 1124 1663 1143.5 1688.5 c 128,-1,4
 1163 1714 1163 1714 1198 1714 c 2,5,-1
 1689 1714 l 2,6,7
 1724 1714 1724 1714 1743.5 1688.5 c 128,-1,8
 1763 1663 1763 1663 1763 1630 c 0,9,10
 1763 1538 1763 1538 1691 1538 c 2,11,-1
 1552 1538 l 1,12,-1
 1055 723 l 1,13,-1
 1055 176 l 1,14,-1
 1278 176 l 2,15,16
 1349 176 1349 176 1349 84 c 0,17,18
 1349 51 1349 51 1330 25.5 c 128,-1,19
 1311 0 1311 0 1276 0 c 2,20,-1
 559 0 l 2,21,22
 524 0 524 0 504.5 25.5 c 128,-1,23
 485 51 485 51 485 84 c 0,24,25
 485 176 485 176 557 176 c 2,26,-1
 821 176 l 1,27,-1
 821 739 l 1,28,-1
 346 1538 l 1,29,-1
 135 1538 l 2,30,31
 63 1538 63 1538 63 1630 c 0,32,33
 63 1663 63 1663 82.5 1688.5 c 128,-1,34
 102 1714 102 1714 137 1714 c 2,35,-1
 731 1714 l 2,36,37
 766 1714 766 1714 785.5 1688.5 c 128,-1,38
 805 1663 805 1663 805 1630 c 0,39,40
 805 1538 805 1538 733 1538 c 2,41,-1
 592 1538 l 1,42,-1
 977 891 l 1,43,-1
 1358 1538 l 1,44,-1
 1196 1538 l 2,0,1
EndSplineSet
EndChar

StartChar: Z
Encoding: 90 90 61
Width: 1646
GlyphClass: 2
Flags: W
LayerCount: 2
Fore
SplineSet
151 1239 m 2,0,-1
 150 1634 l 2,1,2
 150 1714 150 1714 253 1714 c 2,3,-1
 1383 1714 l 2,4,5
 1401 1714 1401 1714 1414.5 1707 c 128,-1,6
 1428 1700 1428 1700 1437.5 1688.5 c 128,-1,7
 1447 1677 1447 1677 1452 1663 c 128,-1,8
 1457 1649 1457 1649 1457 1636 c 0,9,10
 1457 1586 1457 1586 1441 1565 c 2,11,-1
 378 176 l 1,12,-1
 1314 176 l 1,13,-1
 1390 547 l 1,14,15
 1400 580 1400 580 1427 601.5 c 128,-1,16
 1454 623 1454 623 1489 623 c 0,17,18
 1529 623 1529 623 1547.5 599.5 c 128,-1,19
 1566 576 1566 576 1566 548 c 0,20,21
 1566 537 1566 537 1564 527.5 c 128,-1,22
 1562 518 1562 518 1560 510 c 1,23,-1
 1517 78 l 1,24,25
 1506 42 1506 42 1488 21 c 128,-1,26
 1470 0 1470 0 1435 0 c 2,27,-1
 155 0 l 2,28,29
 136 0 136 0 121.5 10.5 c 128,-1,30
 107 21 107 21 97.5 36.5 c 128,-1,31
 88 52 88 52 83.5 70.5 c 128,-1,32
 79 89 79 89 79 104 c 0,33,34
 78 152 78 152 124 213 c 2,35,-1
 1142 1538 l 1,36,-1
 345 1538 l 1,37,-1
 306 1241 l 1,38,39
 278 1165 278 1165 224 1165 c 0,40,41
 193 1165 193 1165 172 1186 c 128,-1,42
 151 1207 151 1207 151 1239 c 2,0,-1
EndSplineSet
EndChar

StartChar: bracketleft
Encoding: 91 91 62
Width: 908
GlyphClass: 2
Flags: W
LayerCount: 2
Fore
SplineSet
275 -518 m 2,0,1
 248 -518 248 -518 228.5 -508 c 128,-1,2
 209 -498 209 -498 196.5 -483.5 c 128,-1,3
 184 -469 184 -469 178.5 -452 c 128,-1,4
 173 -435 173 -435 173 -420 c 2,5,-1
 213 778 l 1,6,-1
 173 1976 l 2,7,8
 173 2001 173 2001 184 2020 c 128,-1,9
 195 2039 195 2039 210.5 2051 c 128,-1,10
 226 2063 226 2063 243.5 2069 c 128,-1,11
 261 2075 261 2075 275 2075 c 2,12,-1
 675 2075 l 2,13,14
 702 2075 702 2075 721 2063.5 c 128,-1,15
 740 2052 740 2052 752.5 2037 c 128,-1,16
 765 2022 765 2022 771 2006 c 128,-1,17
 777 1990 777 1990 777 1981 c 0,18,19
 777 1952 777 1952 768 1931.5 c 128,-1,20
 759 1911 759 1911 744.5 1897 c 128,-1,21
 730 1883 730 1883 712 1876.5 c 128,-1,22
 694 1870 694 1870 675 1870 c 2,23,-1
 394 1870 l 1,24,-1
 394 -313 l 1,25,-1
 675 -313 l 2,26,27
 702 -313 702 -313 721.5 -324 c 128,-1,28
 741 -335 741 -335 753 -350 c 128,-1,29
 765 -365 765 -365 771 -380.5 c 128,-1,30
 777 -396 777 -396 777 -405 c 0,31,32
 777 -435 777 -435 767.5 -456 c 128,-1,33
 758 -477 758 -477 743 -491 c 128,-1,34
 728 -505 728 -505 710 -511.5 c 128,-1,35
 692 -518 692 -518 675 -518 c 2,36,-1
 275 -518 l 2,0,1
EndSplineSet
EndChar

StartChar: backslash
Encoding: 92 92 63
Width: 1176
GlyphClass: 2
Flags: W
LayerCount: 2
Fore
SplineSet
-123 1776 m 2,0,1
 -129 1789 -129 1789 -129 1804 c 0,2,3
 -129 1820 -129 1820 -120.5 1835.5 c 128,-1,4
 -112 1851 -112 1851 -98 1863 c 128,-1,5
 -84 1875 -84 1875 -64.5 1882.5 c 128,-1,6
 -45 1890 -45 1890 -24 1890 c 0,7,8
 14 1890 14 1890 35 1851 c 1,9,-1
 1143 -463 l 2,10,11
 1150 -478 1150 -478 1150 -494 c 0,12,13
 1150 -511 1150 -511 1141 -526.5 c 128,-1,14
 1132 -542 1132 -542 1117.5 -554 c 128,-1,15
 1103 -566 1103 -566 1086 -573 c 128,-1,16
 1069 -580 1069 -580 1053 -580 c 0,17,18
 1001 -580 1001 -580 979 -532 c 2,19,-1
 -123 1776 l 2,0,1
EndSplineSet
EndChar

StartChar: bracketright
Encoding: 93 93 64
Width: 878
GlyphClass: 2
Flags: W
LayerCount: 2
Fore
SplineSet
635 -518 m 2,0,-1
 235 -518 l 2,1,2
 208 -518 208 -518 188.5 -507 c 128,-1,3
 169 -496 169 -496 157 -481 c 128,-1,4
 145 -466 145 -466 139 -450 c 128,-1,5
 133 -434 133 -434 133 -425 c 0,6,7
 133 -397 133 -397 141.5 -376 c 128,-1,8
 150 -355 150 -355 164.5 -341 c 128,-1,9
 179 -327 179 -327 197 -320 c 128,-1,10
 215 -313 215 -313 235 -313 c 2,11,-1
 516 -313 l 1,12,-1
 516 1870 l 1,13,-1
 235 1870 l 2,14,15
 208 1870 208 1870 189 1880.5 c 128,-1,16
 170 1891 170 1891 157.5 1905.5 c 128,-1,17
 145 1920 145 1920 139 1935.5 c 128,-1,18
 133 1951 133 1951 133 1961 c 0,19,20
 133 1990 133 1990 142 2011.5 c 128,-1,21
 151 2033 151 2033 166 2047 c 128,-1,22
 181 2061 181 2061 199 2068 c 128,-1,23
 217 2075 217 2075 235 2075 c 2,24,-1
 635 2075 l 2,25,26
 662 2075 662 2075 681 2064.5 c 128,-1,27
 700 2054 700 2054 712.5 2039 c 128,-1,28
 725 2024 725 2024 731 2007 c 128,-1,29
 737 1990 737 1990 737 1976 c 2,30,-1
 697 778 l 1,31,-1
 737 -420 l 2,32,33
 737 -438 737 -438 730.5 -456 c 128,-1,34
 724 -474 724 -474 711 -487.5 c 128,-1,35
 698 -501 698 -501 679 -509.5 c 128,-1,36
 660 -518 660 -518 635 -518 c 2,0,-1
EndSplineSet
EndChar

StartChar: asciicircum
Encoding: 94 94 65
Width: 1301
GlyphClass: 2
Flags: W
LayerCount: 2
Fore
SplineSet
1116 674 m 2,0,1
 1124 655 1124 655 1124 633 c 0,2,3
 1124 622 1124 622 1118 611.5 c 128,-1,4
 1112 601 1112 601 1102.5 592.5 c 128,-1,5
 1093 584 1093 584 1080.5 578.5 c 128,-1,6
 1068 573 1068 573 1056 573 c 0,7,8
 1010 573 1010 573 989 618 c 2,9,-1
 690 1257 l 1,10,-1
 364 623 l 1,11,12
 332 567 332 567 280 567 c 0,13,14
 255 567 255 567 237 576 c 128,-1,15
 219 585 219 585 207 598 c 128,-1,16
 195 611 195 611 189.5 624.5 c 128,-1,17
 184 638 184 638 184 647 c 0,18,19
 184 677 184 677 194 698 c 2,20,-1
 546 1411 l 2,21,22
 595 1511 595 1511 661 1511 c 0,23,24
 720 1511 720 1511 767 1419 c 1,25,-1
 1116 674 l 2,0,1
EndSplineSet
EndChar

StartChar: underscore
Encoding: 95 95 66
Width: 1237
GlyphClass: 2
Flags: W
LayerCount: 2
Fore
SplineSet
1072 213 m 2,0,1
 1100 213 1100 213 1120 202 c 128,-1,2
 1140 191 1140 191 1153 174.5 c 128,-1,3
 1166 158 1166 158 1172 139.5 c 128,-1,4
 1178 121 1178 121 1178 107 c 0,5,6
 1178 87 1178 87 1171 68 c 128,-1,7
 1164 49 1164 49 1150.5 34 c 128,-1,8
 1137 19 1137 19 1117 10 c 128,-1,9
 1097 1 1097 1 1072 1 c 2,10,-1
 165 1 l 2,11,12
 142 1 142 1 123 9.5 c 128,-1,13
 104 18 104 18 89.5 31.5 c 128,-1,14
 75 45 75 45 67 61.5 c 128,-1,15
 59 78 59 78 59 95 c 0,16,17
 59 126 59 126 68 148.5 c 128,-1,18
 77 171 77 171 92 185.5 c 128,-1,19
 107 200 107 200 126 206.5 c 128,-1,20
 145 213 145 213 165 213 c 2,21,-1
 1072 213 l 2,0,1
EndSplineSet
EndChar

StartChar: grave
Encoding: 96 96 67
Width: 633
GlyphClass: 2
Flags: W
LayerCount: 2
Fore
SplineSet
585 1509 m 0,0,1
 601 1499 601 1499 601 1479 c 0,2,3
 601 1471 601 1471 597 1462 c 128,-1,4
 593 1453 593 1453 587 1445 c 128,-1,5
 581 1437 581 1437 573.5 1432 c 128,-1,6
 566 1427 566 1427 558 1427 c 0,7,8
 542 1427 542 1427 508 1448 c 2,9,-1
 283 1585 l 1,10,11
 220 1625 220 1625 158 1664 c 128,-1,12
 96 1703 96 1703 36 1741 c 0,13,14
 9 1757 9 1757 9 1780 c 0,15,16
 9 1802 9 1802 18 1819 c 128,-1,17
 27 1836 27 1836 39.5 1847.5 c 128,-1,18
 52 1859 52 1859 66.5 1864.5 c 128,-1,19
 81 1870 81 1870 93 1870 c 0,20,21
 116 1870 116 1870 134 1855 c 0,22,23
 372 1650 372 1650 585 1509 c 0,0,1
EndSplineSet
EndChar

StartChar: a
Encoding: 97 97 68
Width: 1350
GlyphClass: 2
Flags: W
LayerCount: 2
Fore
SplineSet
1057 219 m 2,0,1
 1057 147 1057 147 1101 147 c 0,2,3
 1116 147 1116 147 1137.5 158.5 c 128,-1,4
 1159 170 1159 170 1181 185.5 c 128,-1,5
 1203 201 1203 201 1222.5 216 c 128,-1,6
 1242 231 1242 231 1252 238 c 0,7,8
 1277 255 1277 255 1294 255 c 0,9,10
 1309 255 1309 255 1321.5 245.5 c 128,-1,11
 1334 236 1334 236 1344 222 c 128,-1,12
 1354 208 1354 208 1359.5 191.5 c 128,-1,13
 1365 175 1365 175 1365 162 c 0,14,15
 1365 126 1365 126 1334.5 92.5 c 128,-1,16
 1304 59 1304 59 1260 32.5 c 128,-1,17
 1216 6 1216 6 1168 -9.5 c 128,-1,18
 1120 -25 1120 -25 1085 -25 c 0,19,20
 919 -25 919 -25 885 137 c 1,21,22
 739 -28 739 -28 442 -28 c 0,23,24
 364 -28 364 -28 298 -3 c 128,-1,25
 232 22 232 22 184.5 66.5 c 128,-1,26
 137 111 137 111 110.5 172.5 c 128,-1,27
 84 234 84 234 84 307 c 0,28,29
 84 547 84 547 345 636 c 0,30,31
 483 683 483 683 628 696 c 2,32,-1
 858 717 l 1,33,-1
 858 879 l 2,34,35
 858 1018 858 1018 631 1018 c 0,36,37
 579 1018 579 1018 538.5 1014 c 128,-1,38
 498 1010 498 1010 458.5 997.5 c 128,-1,39
 419 985 419 985 373.5 961 c 128,-1,40
 328 937 328 937 266 897 c 0,41,42
 257 891 257 891 247 889 c 128,-1,43
 237 887 237 887 229 886 c 1,44,45
 211 886 211 886 195 896 c 128,-1,46
 179 906 179 906 167.5 921 c 128,-1,47
 156 936 156 936 149.5 954 c 128,-1,48
 143 972 143 972 143 989 c 0,49,50
 143 1028 143 1028 166.5 1058.5 c 128,-1,51
 190 1089 190 1089 229.5 1111 c 128,-1,52
 269 1133 269 1133 319.5 1148 c 128,-1,53
 370 1163 370 1163 424.5 1171.5 c 128,-1,54
 479 1180 479 1180 533 1184 c 128,-1,55
 587 1188 587 1188 633 1188 c 0,56,57
 742 1188 742 1188 822 1166 c 128,-1,58
 902 1144 902 1144 954.5 1090.5 c 128,-1,59
 1007 1037 1007 1037 1032 947.5 c 128,-1,60
 1057 858 1057 858 1057 723 c 2,61,-1
 1057 219 l 2,0,1
512 145 m 0,62,63
 694 145 694 145 858 276 c 1,64,-1
 858 567 l 1,65,66
 805 561 805 561 743 555.5 c 128,-1,67
 681 550 681 550 619 540 c 128,-1,68
 557 530 557 530 499 514.5 c 128,-1,69
 441 499 441 499 396.5 472.5 c 128,-1,70
 352 446 352 446 325.5 407.5 c 128,-1,71
 299 369 299 369 299 313 c 0,72,73
 299 235 299 235 355.5 190 c 128,-1,74
 412 145 412 145 512 145 c 0,62,63
EndSplineSet
EndChar

StartChar: b
Encoding: 98 98 69
Width: 1417
GlyphClass: 2
Flags: W
LayerCount: 2
Fore
SplineSet
430 324 m 1,0,1
 555 145 555 145 776 145 c 0,2,3
 857 145 857 145 922 177.5 c 128,-1,4
 987 210 987 210 1032 268 c 128,-1,5
 1077 326 1077 326 1101.5 406 c 128,-1,6
 1126 486 1126 486 1126 582 c 0,7,8
 1126 676 1126 676 1102 756 c 128,-1,9
 1078 836 1078 836 1034 894.5 c 128,-1,10
 990 953 990 953 927 985.5 c 128,-1,11
 864 1018 864 1018 786 1018 c 0,12,13
 564 1018 564 1018 430 881 c 1,14,-1
 430 324 l 1,0,1
313 -8 m 0,15,16
 225 -8 225 -8 225 117 c 2,17,-1
 225 1524 l 1,18,-1
 -11 1462 l 1,19,20
 -16 1462 -16 1462 -16 1461 c 128,-1,21
 -16 1460 -16 1460 -26 1460 c 0,22,23
 -39 1460 -39 1460 -52.5 1468 c 128,-1,24
 -66 1476 -66 1476 -76.5 1488 c 128,-1,25
 -87 1500 -87 1500 -94 1514.5 c 128,-1,26
 -101 1529 -101 1529 -101 1541 c 0,27,28
 -101 1562 -101 1562 -97.5 1575.5 c 128,-1,29
 -94 1589 -94 1589 -85 1598 c 128,-1,30
 -76 1607 -76 1607 -61 1613 c 128,-1,31
 -46 1619 -46 1619 -23 1626 c 2,32,-1
 362 1737 l 1,33,34
 365 1740 365 1740 374 1740 c 0,35,36
 381 1740 381 1740 390.5 1737.5 c 128,-1,37
 400 1735 400 1735 409 1729 c 128,-1,38
 418 1723 418 1723 424 1713.5 c 128,-1,39
 430 1704 430 1704 430 1690 c 2,40,-1
 430 1035 l 1,41,42
 482 1083 482 1083 527.5 1113 c 128,-1,43
 573 1143 573 1143 617 1159.5 c 128,-1,44
 661 1176 661 1176 705.5 1182 c 128,-1,45
 750 1188 750 1188 800 1188 c 0,46,47
 925 1188 925 1188 1026 1141.5 c 128,-1,48
 1127 1095 1127 1095 1198.5 1014 c 128,-1,49
 1270 933 1270 933 1308.5 822 c 128,-1,50
 1347 711 1347 711 1347 582 c 0,51,52
 1347 446 1347 446 1307.5 334 c 128,-1,53
 1268 222 1268 222 1195.5 142.5 c 128,-1,54
 1123 63 1123 63 1020 19 c 128,-1,55
 917 -25 917 -25 790 -25 c 0,56,57
 682 -25 682 -25 584 18.5 c 128,-1,58
 486 62 486 62 409 150 c 1,59,60
 409 -8 409 -8 313 -8 c 0,15,16
EndSplineSet
EndChar

StartChar: c
Encoding: 99 99 70
Width: 1263
GlyphClass: 2
Flags: W
LayerCount: 2
Fore
SplineSet
1030 1126 m 0,0,1
 1168 1049 1168 1049 1168 878 c 0,2,3
 1168 812 1168 812 1143 775 c 128,-1,4
 1118 738 1118 738 1064 738 c 0,5,6
 1031 738 1031 738 1010.5 763 c 128,-1,7
 990 788 990 788 976.5 826 c 128,-1,8
 963 864 963 864 954 909 c 128,-1,9
 945 954 945 954 935 993 c 1,10,11
 889 1006 889 1006 842.5 1012 c 128,-1,12
 796 1018 796 1018 750 1018 c 0,13,14
 648 1018 648 1018 563.5 988 c 128,-1,15
 479 958 479 958 418.5 902.5 c 128,-1,16
 358 847 358 847 325 769 c 128,-1,17
 292 691 292 691 292 596 c 0,18,19
 292 500 292 500 322.5 422 c 128,-1,20
 353 344 353 344 408 289 c 128,-1,21
 463 234 463 234 540 204 c 128,-1,22
 617 174 617 174 710 174 c 256,23,24
 803 174 803 174 883.5 206 c 128,-1,25
 964 238 964 238 1038 302 c 0,26,27
 1069 328 1069 328 1108 328 c 0,28,29
 1144 328 1144 328 1170.5 306.5 c 128,-1,30
 1197 285 1197 285 1197 247 c 0,31,32
 1197 204 1197 204 1174 167.5 c 128,-1,33
 1151 131 1151 131 1112.5 100.5 c 128,-1,34
 1074 70 1074 70 1023.5 46.5 c 128,-1,35
 973 23 973 23 917 7.5 c 128,-1,36
 861 -8 861 -8 804 -16.5 c 128,-1,37
 747 -25 747 -25 696 -25 c 0,38,39
 637 -25 637 -25 576.5 -14 c 128,-1,40
 516 -3 516 -3 457.5 18 c 128,-1,41
 399 39 399 39 346.5 69.5 c 128,-1,42
 294 100 294 100 252 140 c 0,43,44
 70 311 70 311 70 596 c 0,45,46
 70 695 70 695 96.5 781.5 c 128,-1,47
 123 868 123 868 176 939.5 c 128,-1,48
 229 1011 229 1011 307.5 1065 c 128,-1,49
 386 1119 386 1119 491 1152 c 0,50,51
 547 1169 547 1169 600.5 1178.5 c 128,-1,52
 654 1188 654 1188 708 1188 c 0,53,54
 814 1188 814 1188 891 1174.5 c 128,-1,55
 968 1161 968 1161 1030 1126 c 0,0,1
EndSplineSet
EndChar

StartChar: d
Encoding: 100 100 71
Width: 1497
GlyphClass: 2
Flags: W
LayerCount: 2
Fore
SplineSet
988 881 m 1,0,1
 854 1018 854 1018 632 1018 c 0,2,3
 555 1018 555 1018 492.5 985 c 128,-1,4
 430 952 430 952 385.5 894 c 128,-1,5
 341 836 341 836 316.5 756 c 128,-1,6
 292 676 292 676 292 582 c 0,7,8
 292 485 292 485 317 404.5 c 128,-1,9
 342 324 342 324 387.5 266.5 c 128,-1,10
 433 209 433 209 497.5 177 c 128,-1,11
 562 145 562 145 642 145 c 0,12,13
 860 145 860 145 988 324 c 1,14,-1
 988 881 l 1,0,1
1045 -10 m 0,15,16
 988 -10 988 -10 988 78 c 2,17,-1
 988 150 l 1,18,19
 922 70 922 70 829 22.5 c 128,-1,20
 736 -25 736 -25 628 -25 c 0,21,22
 500 -25 500 -25 397 18.5 c 128,-1,23
 294 62 294 62 221.5 142 c 128,-1,24
 149 222 149 222 109.5 333.5 c 128,-1,25
 70 445 70 445 70 582 c 0,26,27
 70 715 70 715 110.5 826.5 c 128,-1,28
 151 938 151 938 223.5 1018 c 128,-1,29
 296 1098 296 1098 398 1143 c 128,-1,30
 500 1188 500 1188 623 1188 c 0,31,32
 824 1188 824 1188 988 1055 c 1,33,-1
 988 1524 l 1,34,-1
 752 1462 l 1,35,36
 747 1462 747 1462 747 1461 c 128,-1,37
 747 1460 747 1460 736 1460 c 0,38,39
 724 1460 724 1460 711 1468 c 128,-1,40
 698 1476 698 1476 687 1488 c 128,-1,41
 676 1500 676 1500 669 1514 c 128,-1,42
 662 1528 662 1528 662 1541 c 0,43,44
 662 1563 662 1563 665.5 1576.5 c 128,-1,45
 669 1590 669 1590 678 1599 c 128,-1,46
 687 1608 687 1608 702 1614 c 128,-1,47
 717 1620 717 1620 740 1626 c 2,48,-1
 1125 1737 l 1,49,50
 1128 1740 1128 1740 1137 1740 c 0,51,52
 1144 1740 1144 1740 1154 1737.5 c 128,-1,53
 1164 1735 1164 1735 1172.5 1729 c 128,-1,54
 1181 1723 1181 1723 1187 1713.5 c 128,-1,55
 1193 1704 1193 1704 1193 1690 c 2,56,-1
 1193 176 l 1,57,-1
 1338 197 l 2,58,59
 1343 198 1343 198 1352.5 198.5 c 128,-1,60
 1362 199 1362 199 1376 199 c 256,61,62
 1390 199 1390 199 1403.5 194 c 128,-1,63
 1417 189 1417 189 1428 179 c 128,-1,64
 1439 169 1439 169 1446 155 c 128,-1,65
 1453 141 1453 141 1453 122 c 0,66,67
 1453 95 1453 95 1438.5 76 c 128,-1,68
 1424 57 1424 57 1400.5 44.5 c 128,-1,69
 1377 32 1377 32 1347.5 26 c 128,-1,70
 1318 20 1318 20 1287 18 c 0,71,72
 1257 16 1257 16 1234.5 13.5 c 128,-1,73
 1212 11 1212 11 1194 8.5 c 128,-1,74
 1176 6 1176 6 1160 3 c 128,-1,75
 1144 0 1144 0 1126 -2 c 0,76,77
 1096 -6 1096 -6 1076 -8 c 128,-1,78
 1056 -10 1056 -10 1045 -10 c 0,15,16
EndSplineSet
EndChar

StartChar: e
Encoding: 101 101 72
Width: 1304
GlyphClass: 2
Flags: W
LayerCount: 2
Fore
SplineSet
283 559 m 1,0,1
 283 467 283 467 313 392.5 c 128,-1,2
 343 318 343 318 398.5 266 c 128,-1,3
 454 214 454 214 532.5 186 c 128,-1,4
 611 158 611 158 707 158 c 0,5,6
 760 158 760 158 804 168 c 128,-1,7
 848 178 848 178 888 197.5 c 128,-1,8
 928 217 928 217 965.5 245.5 c 128,-1,9
 1003 274 1003 274 1044 311 c 0,10,11
 1076 340 1076 340 1114 340 c 256,12,13
 1152 340 1152 340 1179.5 316 c 128,-1,14
 1207 292 1207 292 1207 249 c 256,15,16
 1207 206 1207 206 1182 169 c 128,-1,17
 1157 132 1157 132 1116 102 c 128,-1,18
 1075 72 1075 72 1021 48 c 128,-1,19
 967 24 967 24 909.5 8 c 128,-1,20
 852 -8 852 -8 794 -16.5 c 128,-1,21
 736 -25 736 -25 686 -25 c 0,22,23
 551 -25 551 -25 437.5 19 c 128,-1,24
 324 63 324 63 242.5 142 c 128,-1,25
 161 221 161 221 115.5 331 c 128,-1,26
 70 441 70 441 70 574 c 0,27,28
 70 715 70 715 114 829 c 128,-1,29
 158 943 158 943 237.5 1022.5 c 128,-1,30
 317 1102 317 1102 428.5 1145 c 128,-1,31
 540 1188 540 1188 675 1188 c 0,32,33
 780 1188 780 1188 875.5 1149.5 c 128,-1,34
 971 1111 971 1111 1044.5 1044.5 c 128,-1,35
 1118 978 1118 978 1161.5 887.5 c 128,-1,36
 1205 797 1205 797 1205 692 c 0,37,38
 1205 625 1205 625 1158 602 c 0,39,40
 1134 591 1134 591 1041 580 c 1,41,-1
 283 559 l 1,0,1
954 756 m 0,42,43
 954 816 954 816 934 864.5 c 128,-1,44
 914 913 914 913 878.5 947 c 128,-1,45
 843 981 843 981 794.5 999.5 c 128,-1,46
 746 1018 746 1018 689 1018 c 0,47,48
 588 1018 588 1018 513.5 994.5 c 128,-1,49
 439 971 439 971 388.5 929 c 128,-1,50
 338 887 338 887 311.5 828.5 c 128,-1,51
 285 770 285 770 279 700 c 1,52,-1
 880 713 l 1,53,54
 954 718 954 718 954 756 c 0,42,43
EndSplineSet
EndChar

StartChar: f
Encoding: 102 102 73
Width: 1042
GlyphClass: 2
Flags: W
LayerCount: 2
Fore
SplineSet
1012 1493 m 2,0,1
 1012 1411 1012 1411 926 1411 c 0,2,3
 889 1411 889 1411 862 1429.5 c 128,-1,4
 835 1448 835 1448 835 1487 c 2,5,-1
 835 1556 l 1,6,7
 759 1549 759 1549 707 1530 c 128,-1,8
 655 1511 655 1511 622.5 1473.5 c 128,-1,9
 590 1436 590 1436 576 1377 c 128,-1,10
 562 1318 562 1318 562 1231 c 1,11,-1
 565 1122 l 1,12,-1
 784 1122 l 2,13,14
 856 1122 856 1122 856 1030 c 0,15,16
 856 997 856 997 836.5 971.5 c 128,-1,17
 817 946 817 946 782 946 c 2,18,-1
 563 946 l 1,19,-1
 563 176 l 1,20,-1
 817 176 l 2,21,22
 889 176 889 176 889 84 c 0,23,24
 889 51 889 51 869.5 25.5 c 128,-1,25
 850 0 850 0 815 0 c 2,26,-1
 145 0 l 2,27,28
 63 0 63 0 63 86 c 0,29,30
 63 123 63 123 81.5 149.5 c 128,-1,31
 100 176 100 176 139 176 c 2,32,-1
 360 176 l 1,33,-1
 360 946 l 1,34,-1
 182 946 l 2,35,36
 100 946 100 946 100 1032 c 0,37,38
 100 1069 100 1069 118.5 1095.5 c 128,-1,39
 137 1122 137 1122 176 1122 c 2,40,-1
 360 1122 l 1,41,-1
 360 1227 l 2,42,43
 360 1739 360 1739 928 1739 c 0,44,45
 961 1739 961 1739 986.5 1719.5 c 128,-1,46
 1012 1700 1012 1700 1012 1665 c 2,47,-1
 1012 1493 l 2,0,1
EndSplineSet
EndChar

StartChar: g
Encoding: 103 103 74
Width: 1371
GlyphClass: 2
Flags: W
LayerCount: 2
Fore
SplineSet
139 262 m 0,0,1
 139 408 139 408 299 448 c 1,2,3
 196 517 196 517 161 567 c 0,4,5
 96 659 96 659 96 767 c 0,6,7
 96 873 96 873 136.5 952 c 128,-1,8
 177 1031 177 1031 246 1083.5 c 128,-1,9
 315 1136 315 1136 407.5 1162 c 128,-1,10
 500 1188 500 1188 604 1188 c 0,11,12
 822 1188 822 1188 964 1075 c 1,13,-1
 1100 1208 l 2,14,15
 1135 1242 1135 1242 1181 1259 c 128,-1,16
 1227 1276 1227 1276 1287 1276 c 0,17,18
 1407 1276 1407 1276 1407 1188 c 0,19,20
 1407 1145 1407 1145 1361 1118.5 c 128,-1,21
 1315 1092 1315 1092 1221 1092 c 1,22,-1
 1048 983 l 1,23,24
 1118 839 1118 839 1118 738 c 0,25,26
 1118 641 1118 641 1078.5 568 c 128,-1,27
 1039 495 1039 495 969 446 c 128,-1,28
 899 397 899 397 803.5 372 c 128,-1,29
 708 347 708 347 596 347 c 1,30,-1
 503 349 l 1,31,32
 323 349 323 349 323 253 c 0,33,34
 323 205 323 205 373 188.5 c 128,-1,35
 423 172 423 172 516 173 c 2,36,-1
 608 174 l 2,37,38
 705 175 705 175 775 170.5 c 128,-1,39
 845 166 845 166 888 158 c 0,40,41
 975 143 975 143 1036 115.5 c 128,-1,42
 1097 88 1097 88 1135.5 46 c 128,-1,43
 1174 4 1174 4 1191.5 -53 c 128,-1,44
 1209 -110 1209 -110 1209 -184 c 0,45,46
 1209 -264 1209 -264 1179 -321.5 c 128,-1,47
 1149 -379 1149 -379 1093.5 -417.5 c 128,-1,48
 1038 -456 1038 -456 960 -476 c 128,-1,49
 882 -496 882 -496 787 -500 c 0,50,51
 727 -502 727 -502 677.5 -503 c 128,-1,52
 628 -504 628 -504 586 -504 c 0,53,54
 545 -504 545 -504 502 -500 c 128,-1,55
 459 -496 459 -496 416.5 -487 c 128,-1,56
 374 -478 374 -478 334 -464.5 c 128,-1,57
 294 -451 294 -451 258 -432 c 0,58,59
 100 -348 100 -348 100 -186 c 0,60,61
 100 -76 100 -76 143.5 -12 c 128,-1,62
 187 52 187 52 266 88 c 1,63,64
 139 152 139 152 139 262 c 0,0,1
596 0 m 2,65,66
 545 -1 545 -1 487.5 7 c 128,-1,67
 430 15 430 15 364 30 c 1,68,69
 328 -6 328 -6 308.5 -32 c 128,-1,70
 289 -58 289 -58 280 -79.5 c 128,-1,71
 271 -101 271 -101 269.5 -120 c 128,-1,72
 268 -139 268 -139 268 -160 c 0,73,74
 268 -202 268 -202 293 -235 c 128,-1,75
 318 -268 318 -268 358.5 -290.5 c 128,-1,76
 399 -313 399 -313 451.5 -324.5 c 128,-1,77
 504 -336 504 -336 559 -336 c 0,78,79
 671 -336 671 -336 756.5 -330 c 128,-1,80
 842 -324 842 -324 899 -305.5 c 128,-1,81
 956 -287 956 -287 985 -253.5 c 128,-1,82
 1014 -220 1014 -220 1014 -164 c 0,83,84
 1014 -117 1014 -117 994 -85.5 c 128,-1,85
 974 -54 974 -54 935 -34.5 c 128,-1,86
 896 -15 896 -15 837 -7 c 128,-1,87
 778 1 778 1 700 1 c 2,88,-1
 596 0 l 2,65,66
602 487 m 0,89,90
 899 487 899 487 899 757 c 0,91,92
 899 900 899 900 826.5 975.5 c 128,-1,93
 754 1051 754 1051 610 1051 c 0,94,95
 540 1051 540 1051 483 1031 c 128,-1,96
 426 1011 426 1011 386 972.5 c 128,-1,97
 346 934 346 934 324.5 878.5 c 128,-1,98
 303 823 303 823 303 752 c 0,99,100
 303 688 303 688 324 638.5 c 128,-1,101
 345 589 345 589 383.5 555.5 c 128,-1,102
 422 522 422 522 477.5 504.5 c 128,-1,103
 533 487 533 487 602 487 c 0,89,90
EndSplineSet
EndChar

StartChar: h
Encoding: 104 104 75
Width: 1544
GlyphClass: 2
Flags: W
LayerCount: 2
Fore
SplineSet
882 84 m 0,0,1
 882 176 882 176 952 176 c 2,2,-1
 1083 176 l 1,3,-1
 1083 762 l 2,4,5
 1083 883 1083 883 1023.5 950.5 c 128,-1,6
 964 1018 964 1018 841 1018 c 0,7,8
 743 1018 743 1018 655.5 963 c 128,-1,9
 568 908 568 908 499 799 c 1,10,-1
 499 176 l 1,11,-1
 663 176 l 2,12,13
 724 176 724 176 724 86 c 0,14,15
 724 70 724 70 720 54.5 c 128,-1,16
 716 39 716 39 708 27 c 128,-1,17
 700 15 700 15 688 7.5 c 128,-1,18
 676 0 676 0 661 0 c 2,19,-1
 172 0 l 2,20,21
 129 0 129 0 112.5 22.5 c 128,-1,22
 96 45 96 45 96 84 c 0,23,24
 96 176 96 176 165 176 c 2,25,-1
 294 176 l 1,26,-1
 294 1524 l 1,27,-1
 59 1462 l 1,28,29
 54 1462 54 1462 54 1461 c 128,-1,30
 54 1460 54 1460 43 1460 c 0,31,32
 31 1460 31 1460 18 1468 c 128,-1,33
 5 1476 5 1476 -6 1488 c 128,-1,34
 -17 1500 -17 1500 -24 1514 c 128,-1,35
 -31 1528 -31 1528 -31 1541 c 0,36,37
 -31 1562 -31 1562 -27.5 1575.5 c 128,-1,38
 -24 1589 -24 1589 -15 1598 c 128,-1,39
 -6 1607 -6 1607 9 1613 c 128,-1,40
 24 1619 24 1619 47 1626 c 2,41,-1
 432 1737 l 1,42,43
 435 1740 435 1740 444 1740 c 0,44,45
 451 1740 451 1740 460.5 1737.5 c 128,-1,46
 470 1735 470 1735 478.5 1729 c 128,-1,47
 487 1723 487 1723 493 1713.5 c 128,-1,48
 499 1704 499 1704 499 1690 c 2,49,-1
 499 1004 l 1,50,51
 571 1090 571 1090 668.5 1139 c 128,-1,52
 766 1188 766 1188 894 1188 c 0,53,54
 976 1188 976 1188 1047.5 1160.5 c 128,-1,55
 1119 1133 1119 1133 1172 1080.5 c 128,-1,56
 1225 1028 1225 1028 1255.5 952.5 c 128,-1,57
 1286 877 1286 877 1286 780 c 2,58,-1
 1286 176 l 1,59,-1
 1449 176 l 2,60,61
 1511 176 1511 176 1511 86 c 0,62,63
 1511 53 1511 53 1495 26.5 c 128,-1,64
 1479 0 1479 0 1447 0 c 2,65,-1
 958 0 l 2,66,67
 915 0 915 0 898.5 22.5 c 128,-1,68
 882 45 882 45 882 84 c 0,0,1
EndSplineSet
EndChar

StartChar: i
Encoding: 105 105 76
Width: 788
GlyphClass: 2
Flags: W
LayerCount: 2
Fore
SplineSet
302 1472 m 1,0,1
 258 1516 258 1516 258 1563 c 0,2,3
 258 1609 258 1609 272 1641 c 128,-1,4
 286 1673 286 1673 307 1693 c 128,-1,5
 328 1713 328 1713 351.5 1722 c 128,-1,6
 375 1731 375 1731 394 1731 c 0,7,8
 439 1731 439 1731 471 1717 c 128,-1,9
 503 1703 503 1703 523 1682 c 128,-1,10
 543 1661 543 1661 552 1637 c 128,-1,11
 561 1613 561 1613 561 1594 c 0,12,13
 561 1550 561 1550 548.5 1518.5 c 128,-1,14
 536 1487 536 1487 515 1466.5 c 128,-1,15
 494 1446 494 1446 466.5 1436.5 c 128,-1,16
 439 1427 439 1427 409 1427 c 0,17,18
 378 1427 378 1427 350 1438 c 128,-1,19
 322 1449 322 1449 302 1472 c 1,0,1
184 0 m 2,20,21
 102 0 102 0 102 83 c 0,22,23
 102 120 102 120 120.5 146.5 c 128,-1,24
 139 173 139 173 178 173 c 2,25,-1
 315 173 l 1,26,-1
 315 983 l 1,27,-1
 172 944 l 2,28,29
 166 942 166 942 159 942 c 0,30,31
 147 942 147 942 133 948 c 128,-1,32
 119 954 119 954 106 964.5 c 128,-1,33
 93 975 93 975 84.5 990 c 128,-1,34
 76 1005 76 1005 76 1023 c 0,35,36
 76 1089 76 1089 133 1106 c 1,37,-1
 453 1186 l 2,38,39
 463 1188 463 1188 469 1188 c 0,40,41
 520 1188 520 1188 520 1141 c 2,42,-1
 520 173 l 1,43,-1
 674 173 l 2,44,45
 746 173 746 173 746 81 c 0,46,47
 746 48 746 48 726.5 24 c 128,-1,48
 707 0 707 0 672 0 c 2,49,-1
 184 0 l 2,20,21
EndSplineSet
EndChar

StartChar: j
Encoding: 106 106 77
Width: 809
GlyphClass: 2
Flags: W
LayerCount: 2
Fore
SplineSet
203 -496 m 0,0,1
 -75 -496 -75 -496 -75 -243 c 0,2,3
 -75 -205 -75 -205 -68.5 -181 c 128,-1,4
 -62 -157 -62 -157 -50 -143.5 c 128,-1,5
 -38 -130 -38 -130 -21 -125 c 128,-1,6
 -4 -120 -4 -120 16 -120 c 0,7,8
 113 -120 113 -120 113 -220 c 1,9,10
 120 -244 120 -244 120 -263 c 128,-1,11
 120 -282 120 -282 125.5 -295.5 c 128,-1,12
 131 -309 131 -309 149 -316 c 128,-1,13
 167 -323 167 -323 209 -323 c 0,14,15
 275 -323 275 -323 320 -294 c 128,-1,16
 365 -265 365 -265 393 -209 c 128,-1,17
 421 -153 421 -153 433 -71.5 c 128,-1,18
 445 10 445 10 445 115 c 2,19,-1
 445 983 l 1,20,-1
 301 944 l 2,21,22
 295 942 295 942 288 942 c 0,23,24
 276 942 276 942 262 948 c 128,-1,25
 248 954 248 954 235 964.5 c 128,-1,26
 222 975 222 975 213.5 990 c 128,-1,27
 205 1005 205 1005 205 1023 c 0,28,29
 205 1089 205 1089 262 1106 c 1,30,-1
 582 1186 l 2,31,32
 592 1188 592 1188 598 1188 c 0,33,34
 650 1188 650 1188 650 1143 c 2,35,-1
 650 115 l 2,36,37
 650 28 650 28 643 -38 c 128,-1,38
 636 -104 636 -104 622 -152 c 0,39,40
 595 -246 595 -246 556 -311.5 c 128,-1,41
 517 -377 517 -377 465.5 -418 c 128,-1,42
 414 -459 414 -459 348.5 -477.5 c 128,-1,43
 283 -496 283 -496 203 -496 c 0,0,1
381 1686 m 0,44,45
 418 1735 418 1735 462 1735 c 0,46,47
 505 1735 505 1735 537.5 1723.5 c 128,-1,48
 570 1712 570 1712 591 1692.5 c 128,-1,49
 612 1673 612 1673 622.5 1647 c 128,-1,50
 633 1621 633 1621 633 1592 c 0,51,52
 633 1560 633 1560 622 1534 c 128,-1,53
 611 1508 611 1508 593 1489 c 128,-1,54
 575 1470 575 1470 552.5 1460 c 128,-1,55
 530 1450 530 1450 507 1450 c 0,56,57
 429 1450 429 1450 387.5 1485 c 128,-1,58
 346 1520 346 1520 346 1580 c 0,59,60
 346 1608 346 1608 355 1635.5 c 128,-1,61
 364 1663 364 1663 381 1686 c 0,44,45
EndSplineSet
EndChar

StartChar: k
Encoding: 107 107 78
Width: 1492
GlyphClass: 2
Flags: W
LayerCount: 2
Fore
SplineSet
59 1462 m 1,0,-1
 48 1460 l 1,1,2
 27 1460 27 1460 12.5 1470 c 128,-1,3
 -2 1480 -2 1480 -12 1493 c 128,-1,4
 -22 1506 -22 1506 -26.5 1519.5 c 128,-1,5
 -31 1533 -31 1533 -31 1541 c 0,6,7
 -31 1562 -31 1562 -27.5 1575.5 c 128,-1,8
 -24 1589 -24 1589 -15 1598 c 128,-1,9
 -6 1607 -6 1607 8.5 1613.5 c 128,-1,10
 23 1620 23 1620 46 1626 c 2,11,-1
 431 1737 l 2,12,13
 435 1739 435 1739 443 1739 c 256,14,15
 451 1739 451 1739 460.5 1736.5 c 128,-1,16
 470 1734 470 1734 478.5 1728.5 c 128,-1,17
 487 1723 487 1723 493 1713.5 c 128,-1,18
 499 1704 499 1704 499 1690 c 2,19,-1
 499 620 l 1,20,21
 557 659 557 659 618.5 701 c 128,-1,22
 680 743 680 743 742 785 c 128,-1,23
 804 827 804 827 864.5 868 c 128,-1,24
 925 909 925 909 982 946 c 1,25,-1
 876 946 l 2,26,27
 837 946 837 946 818.5 972 c 128,-1,28
 800 998 800 998 800 1036 c 0,29,30
 800 1122 800 1122 882 1122 c 2,31,-1
 1345 1122 l 2,32,33
 1380 1122 1380 1122 1399.5 1111.5 c 128,-1,34
 1419 1101 1419 1101 1419 1075 c 0,35,36
 1419 1018 1419 1018 1399 982 c 128,-1,37
 1379 946 1379 946 1347 946 c 2,38,-1
 1236 946 l 2,39,40
 1190 946 1190 946 1138 904 c 1,41,-1
 821 664 l 1,42,-1
 1111 291 l 1,43,44
 1134 259 1134 259 1153.5 238.5 c 128,-1,45
 1173 218 1173 218 1199 207 c 128,-1,46
 1225 196 1225 196 1263.5 192 c 128,-1,47
 1302 188 1302 188 1363 188 c 2,48,-1
 1378 188 l 2,49,50
 1418 188 1418 188 1441 182.5 c 128,-1,51
 1464 177 1464 177 1476 166.5 c 128,-1,52
 1488 156 1488 156 1491 141.5 c 128,-1,53
 1494 127 1494 127 1494 109 c 0,54,55
 1494 73 1494 73 1486 51.5 c 128,-1,56
 1478 30 1478 30 1461.5 18.5 c 128,-1,57
 1445 7 1445 7 1418.5 3.5 c 128,-1,58
 1392 0 1392 0 1355 0 c 2,59,-1
 919 0 l 2,60,61
 881 0 881 0 862 26 c 128,-1,62
 843 52 843 52 843 90 c 0,63,64
 843 176 843 176 925 176 c 2,65,-1
 984 176 l 1,66,-1
 683 579 l 1,67,-1
 499 467 l 1,68,-1
 499 176 l 1,69,-1
 651 176 l 2,70,71
 722 176 722 176 722 84 c 0,72,73
 722 51 722 51 703 25.5 c 128,-1,74
 684 0 684 0 649 0 c 2,75,-1
 145 0 l 2,76,77
 63 0 63 0 63 86 c 0,78,79
 63 123 63 123 81.5 149.5 c 128,-1,80
 100 176 100 176 139 176 c 2,81,-1
 294 176 l 1,82,-1
 294 1524 l 1,83,-1
 59 1462 l 1,0,-1
EndSplineSet
EndChar

StartChar: l
Encoding: 108 108 79
Width: 914
GlyphClass: 2
Flags: W
LayerCount: 2
Fore
SplineSet
570 1689 m 1,0,-1
 570 176 l 1,1,-1
 814 176 l 2,2,3
 886 176 886 176 886 84 c 0,4,5
 886 51 886 51 866.5 25.5 c 128,-1,6
 847 0 847 0 812 0 c 2,7,-1
 144 0 l 2,8,9
 62 0 62 0 62 86 c 0,10,11
 62 123 62 123 80.5 149.5 c 128,-1,12
 99 176 99 176 138 176 c 2,13,-1
 365 176 l 1,14,-1
 365 1523 l 1,15,-1
 119 1459 l 1,16,17
 98 1459 98 1459 83.5 1469 c 128,-1,18
 69 1479 69 1479 59 1492 c 128,-1,19
 49 1505 49 1505 44.5 1518.5 c 128,-1,20
 40 1532 40 1532 40 1540 c 0,21,22
 40 1561 40 1561 43.5 1574.5 c 128,-1,23
 47 1588 47 1588 56 1597 c 128,-1,24
 65 1606 65 1606 79.5 1616.5 c 128,-1,25
 94 1627 94 1627 117 1633 c 2,26,-1
 502 1736 l 1,27,28
 506 1739 506 1739 515 1739 c 0,29,30
 531 1739 531 1739 549.5 1727.5 c 128,-1,31
 568 1716 568 1716 570 1689 c 1,0,-1
EndSplineSet
EndChar

StartChar: m
Encoding: 109 109 80
Width: 2532
GlyphClass: 2
Flags: W
LayerCount: 2
Fore
SplineSet
148 0 m 2,0,1
 66 0 66 0 66 86 c 0,2,3
 66 123 66 123 84.5 149.5 c 128,-1,4
 103 176 103 176 142 176 c 2,5,-1
 290 176 l 1,6,-1
 290 979 l 1,7,-1
 146 944 l 2,8,9
 140 942 140 942 133 942 c 0,10,11
 121 942 121 942 107 947.5 c 128,-1,12
 93 953 93 953 80 963.5 c 128,-1,13
 67 974 67 974 58.5 989 c 128,-1,14
 50 1004 50 1004 50 1022 c 0,15,16
 50 1088 50 1088 107 1106 c 1,17,-1
 386 1186 l 1,18,19
 391 1186 391 1186 391 1187 c 128,-1,20
 391 1188 391 1188 396 1188 c 2,21,-1
 402 1188 l 2,22,23
 423 1188 423 1188 438 1175.5 c 128,-1,24
 453 1163 453 1163 453 1141 c 1,25,-1
 474 952 l 1,26,27
 504 1003 504 1003 556 1046 c 128,-1,28
 608 1089 608 1089 674 1120.5 c 128,-1,29
 740 1152 740 1152 815.5 1170 c 128,-1,30
 891 1188 891 1188 968 1188 c 0,31,32
 1110 1188 1110 1188 1215.5 1124 c 128,-1,33
 1321 1060 1321 1060 1369 934 c 1,34,35
 1451 1051 1451 1051 1575 1119.5 c 128,-1,36
 1699 1188 1699 1188 1858 1188 c 0,37,38
 1952 1188 1952 1188 2030 1158 c 128,-1,39
 2108 1128 2108 1128 2164 1074 c 128,-1,40
 2220 1020 2220 1020 2251 945 c 128,-1,41
 2282 870 2282 870 2282 780 c 2,42,-1
 2282 176 l 1,43,-1
 2428 176 l 2,44,45
 2499 176 2499 176 2499 84 c 0,46,47
 2499 51 2499 51 2480 25.5 c 128,-1,48
 2461 0 2461 0 2426 0 c 2,49,-1
 1938 0 l 2,50,51
 1856 0 1856 0 1856 86 c 0,52,53
 1856 123 1856 123 1874.5 149.5 c 128,-1,54
 1893 176 1893 176 1932 176 c 2,55,-1
 2080 176 l 1,56,-1
 2080 762 l 2,57,58
 2080 883 2080 883 2020.5 950.5 c 128,-1,59
 1961 1018 1961 1018 1838 1018 c 0,60,61
 1550 1018 1550 1018 1396 733 c 1,62,-1
 1396 176 l 1,63,-1
 1561 176 l 2,64,65
 1633 176 1633 176 1633 84 c 0,66,67
 1633 51 1633 51 1613.5 25.5 c 128,-1,68
 1594 0 1594 0 1559 0 c 2,69,-1
 1031 0 l 2,70,71
 949 0 949 0 949 86 c 0,72,73
 949 123 949 123 967.5 149.5 c 128,-1,74
 986 176 986 176 1025 176 c 2,75,-1
 1193 176 l 1,76,-1
 1193 762 l 2,77,78
 1193 883 1193 883 1133.5 950.5 c 128,-1,79
 1074 1018 1074 1018 969 1018 c 0,80,81
 874 1018 874 1018 799 997.5 c 128,-1,82
 724 977 724 977 666 940.5 c 128,-1,83
 608 904 608 904 566 853.5 c 128,-1,84
 524 803 524 803 494 743 c 1,85,-1
 494 176 l 1,86,-1
 679 176 l 2,87,88
 750 176 750 176 750 84 c 0,89,90
 750 51 750 51 731 25.5 c 128,-1,91
 712 0 712 0 677 0 c 2,92,-1
 148 0 l 2,0,1
EndSplineSet
EndChar

StartChar: n
Encoding: 110 110 81
Width: 1543
GlyphClass: 2
Flags: W
LayerCount: 2
Fore
SplineSet
949 0 m 2,0,1
 867 0 867 0 867 86 c 0,2,3
 867 123 867 123 885.5 149.5 c 128,-1,4
 904 176 904 176 943 176 c 2,5,-1
 1111 176 l 1,6,-1
 1111 762 l 2,7,8
 1111 883 1111 883 1051.5 950.5 c 128,-1,9
 992 1018 992 1018 869 1018 c 0,10,11
 798 1018 798 1018 730.5 993 c 128,-1,12
 663 968 663 968 610.5 925.5 c 128,-1,13
 558 883 558 883 526 826.5 c 128,-1,14
 494 770 494 770 494 707 c 2,15,-1
 494 176 l 1,16,-1
 640 176 l 2,17,18
 711 176 711 176 711 84 c 0,19,20
 711 51 711 51 692 25.5 c 128,-1,21
 673 0 673 0 638 0 c 2,22,-1
 171 0 l 2,23,24
 89 0 89 0 89 86 c 0,25,26
 89 123 89 123 107.5 149.5 c 128,-1,27
 126 176 126 176 165 176 c 2,28,-1
 289 176 l 1,29,-1
 289 979 l 1,30,-1
 146 944 l 2,31,32
 140 942 140 942 133 942 c 0,33,34
 121 942 121 942 107 947.5 c 128,-1,35
 93 953 93 953 80 963.5 c 128,-1,36
 67 974 67 974 58.5 989 c 128,-1,37
 50 1004 50 1004 50 1022 c 0,38,39
 50 1088 50 1088 107 1106 c 1,40,-1
 386 1186 l 1,41,42
 391 1186 391 1186 391 1187 c 128,-1,43
 391 1188 391 1188 396 1188 c 2,44,-1
 402 1188 l 2,45,46
 423 1188 423 1188 438 1175.5 c 128,-1,47
 453 1163 453 1163 453 1141 c 1,48,-1
 474 952 l 1,49,50
 501 1000 501 1000 547.5 1043 c 128,-1,51
 594 1086 594 1086 650.5 1118 c 128,-1,52
 707 1150 707 1150 768 1169 c 128,-1,53
 829 1188 829 1188 884 1188 c 0,54,55
 996 1188 996 1188 1077 1157.5 c 128,-1,56
 1158 1127 1158 1127 1210.5 1073 c 128,-1,57
 1263 1019 1263 1019 1288 944 c 128,-1,58
 1313 869 1313 869 1313 780 c 2,59,-1
 1313 176 l 1,60,-1
 1438 176 l 2,61,62
 1510 176 1510 176 1510 84 c 0,63,64
 1510 51 1510 51 1490.5 25.5 c 128,-1,65
 1471 0 1471 0 1436 0 c 2,66,-1
 949 0 l 2,0,1
EndSplineSet
EndChar

StartChar: o
Encoding: 111 111 82
Width: 1369
GlyphClass: 2
Flags: W
LayerCount: 2
Fore
SplineSet
690 1018 m 0,0,1
 595 1018 595 1018 521 985.5 c 128,-1,2
 447 953 447 953 396 895 c 128,-1,3
 345 837 345 837 318.5 757 c 128,-1,4
 292 677 292 677 292 582 c 0,5,6
 292 481 292 481 320.5 400 c 128,-1,7
 349 319 349 319 401.5 262.5 c 128,-1,8
 454 206 454 206 527.5 175.5 c 128,-1,9
 601 145 601 145 691 145 c 0,10,11
 779 145 779 145 850.5 176 c 128,-1,12
 922 207 922 207 972.5 264 c 128,-1,13
 1023 321 1023 321 1050.5 402 c 128,-1,14
 1078 483 1078 483 1078 582 c 256,15,16
 1078 681 1078 681 1050.5 761.5 c 128,-1,17
 1023 842 1023 842 972 899 c 128,-1,18
 921 956 921 956 849.5 987 c 128,-1,19
 778 1018 778 1018 690 1018 c 0,0,1
690 -25 m 0,20,21
 547 -25 547 -25 432.5 19.5 c 128,-1,22
 318 64 318 64 237.5 144 c 128,-1,23
 157 224 157 224 113.5 336 c 128,-1,24
 70 448 70 448 70 582 c 0,25,26
 70 718 70 718 114 830 c 128,-1,27
 158 942 158 942 239 1021.5 c 128,-1,28
 320 1101 320 1101 435 1144.5 c 128,-1,29
 550 1188 550 1188 691 1188 c 0,30,31
 827 1188 827 1188 939.5 1144.5 c 128,-1,32
 1052 1101 1052 1101 1131.5 1021.5 c 128,-1,33
 1211 942 1211 942 1255 830.5 c 128,-1,34
 1299 719 1299 719 1299 582 c 0,35,36
 1299 446 1299 446 1255 334 c 128,-1,37
 1211 222 1211 222 1131 142.5 c 128,-1,38
 1051 63 1051 63 939 19 c 128,-1,39
 827 -25 827 -25 690 -25 c 0,20,21
EndSplineSet
EndChar

StartChar: p
Encoding: 112 112 83
Width: 1477
GlyphClass: 2
Flags: W
LayerCount: 2
Fore
SplineSet
453 283 m 1,0,1
 591 145 591 145 830 145 c 0,2,3
 911 145 911 145 976.5 176.5 c 128,-1,4
 1042 208 1042 208 1088.5 266 c 128,-1,5
 1135 324 1135 324 1160.5 404 c 128,-1,6
 1186 484 1186 484 1186 582 c 256,7,8
 1186 680 1186 680 1161 760.5 c 128,-1,9
 1136 841 1136 841 1090 898 c 128,-1,10
 1044 955 1044 955 979.5 986.5 c 128,-1,11
 915 1018 915 1018 836 1018 c 0,12,13
 588 1018 588 1018 453 840 c 1,14,-1
 453 283 l 1,0,1
129 -575 m 2,15,16
 47 -575 47 -575 47 -489 c 0,17,18
 47 -452 47 -452 65.5 -425.5 c 128,-1,19
 84 -399 84 -399 123 -399 c 2,20,-1
 248 -399 l 1,21,-1
 248 979 l 1,22,-1
 105 944 l 2,23,24
 99 942 99 942 92 942 c 0,25,26
 80 942 80 942 65.5 947.5 c 128,-1,27
 51 953 51 953 38 963.5 c 128,-1,28
 25 974 25 974 16.5 989 c 128,-1,29
 8 1004 8 1004 8 1022 c 0,30,31
 8 1054 8 1054 22.5 1076 c 128,-1,32
 37 1098 37 1098 66 1106 c 2,33,-1
 344 1186 l 1,34,35
 349 1186 349 1186 349 1187 c 128,-1,36
 349 1188 349 1188 354 1188 c 2,37,-1
 361 1188 l 2,38,39
 382 1188 382 1188 397 1175.5 c 128,-1,40
 412 1163 412 1163 412 1141 c 1,41,-1
 432 952 l 1,42,43
 486 1065 486 1065 595 1126.5 c 128,-1,44
 704 1188 704 1188 879 1188 c 0,45,46
 930 1188 930 1188 983 1176 c 128,-1,47
 1036 1164 1036 1164 1086 1142 c 128,-1,48
 1136 1120 1136 1120 1180.5 1088.5 c 128,-1,49
 1225 1057 1225 1057 1260 1018 c 0,50,51
 1407 851 1407 851 1407 582 c 0,52,53
 1407 447 1407 447 1365.5 335 c 128,-1,54
 1324 223 1324 223 1248.5 143 c 128,-1,55
 1173 63 1173 63 1066.5 19 c 128,-1,56
 960 -25 960 -25 830 -25 c 0,57,58
 613 -25 613 -25 453 109 c 1,59,-1
 453 -399 l 1,60,-1
 655 -399 l 2,61,62
 691 -399 691 -399 709 -425.5 c 128,-1,63
 727 -452 727 -452 727 -486 c 256,64,65
 727 -520 727 -520 709.5 -547.5 c 128,-1,66
 692 -575 692 -575 658 -575 c 2,67,-1
 653 -575 l 1,68,-1
 129 -575 l 2,15,16
EndSplineSet
EndChar

StartChar: q
Encoding: 113 113 84
Width: 1369
GlyphClass: 2
Flags: W
LayerCount: 2
Fore
SplineSet
963 109 m 1,0,1
 821 -25 821 -25 628 -25 c 0,2,3
 503 -25 503 -25 400 19.5 c 128,-1,4
 297 64 297 64 223.5 144 c 128,-1,5
 150 224 150 224 110 335.5 c 128,-1,6
 70 447 70 447 70 582 c 0,7,8
 70 718 70 718 108 829.5 c 128,-1,9
 146 941 146 941 216 1020.5 c 128,-1,10
 286 1100 286 1100 385.5 1144 c 128,-1,11
 485 1188 485 1188 607 1188 c 0,12,13
 713 1188 713 1188 812 1142.5 c 128,-1,14
 911 1097 911 1097 990 1006 c 1,15,16
 995 1047 995 1047 1003.5 1072 c 128,-1,17
 1012 1097 1012 1097 1025 1110.5 c 128,-1,18
 1038 1124 1038 1124 1056.5 1128.5 c 128,-1,19
 1075 1133 1075 1133 1099 1133 c 0,20,21
 1130 1133 1130 1133 1149 1106.5 c 128,-1,22
 1168 1080 1168 1080 1168 1028 c 2,23,-1
 1168 -399 l 1,24,-1
 1293 -399 l 2,25,26
 1332 -399 1332 -399 1350.5 -425 c 128,-1,27
 1369 -451 1369 -451 1369 -489 c 0,28,29
 1369 -575 1369 -575 1287 -575 c 2,30,-1
 763 -575 l 1,31,-1
 758 -575 l 2,32,33
 724 -575 724 -575 706.5 -547.5 c 128,-1,34
 689 -520 689 -520 689 -486 c 256,35,36
 689 -452 689 -452 706.5 -425.5 c 128,-1,37
 724 -399 724 -399 761 -399 c 2,38,-1
 963 -399 l 1,39,-1
 963 109 l 1,0,1
963 840 m 1,40,41
 840 1018 840 1018 621 1018 c 0,42,43
 544 1018 544 1018 483 985.5 c 128,-1,44
 422 953 422 953 379.5 895 c 128,-1,45
 337 837 337 837 314.5 757 c 128,-1,46
 292 677 292 677 292 582 c 0,47,48
 292 486 292 486 316 405.5 c 128,-1,49
 340 325 340 325 384 267 c 128,-1,50
 428 209 428 209 490 177 c 128,-1,51
 552 145 552 145 628 145 c 0,52,53
 838 145 838 145 963 283 c 1,54,-1
 963 840 l 1,40,41
EndSplineSet
EndChar

StartChar: r
Encoding: 114 114 85
Width: 1114
GlyphClass: 2
Flags: W
LayerCount: 2
Fore
SplineSet
1060 901 m 2,0,1
 1060 819 1060 819 974 819 c 0,2,3
 937 819 937 819 910.5 837.5 c 128,-1,4
 884 856 884 856 884 895 c 2,5,-1
 884 1006 l 1,6,7
 830 1006 830 1006 778 994.5 c 128,-1,8
 726 983 726 983 679.5 960 c 128,-1,9
 633 937 633 937 594 903.5 c 128,-1,10
 555 870 555 870 527 827 c 1,11,-1
 527 176 l 1,12,-1
 795 176 l 2,13,14
 867 176 867 176 867 84 c 0,15,16
 867 51 867 51 847.5 25.5 c 128,-1,17
 828 0 828 0 793 0 c 2,18,-1
 132 0 l 2,19,20
 50 0 50 0 50 86 c 0,21,22
 50 123 50 123 68.5 149.5 c 128,-1,23
 87 176 87 176 126 176 c 2,24,-1
 322 176 l 1,25,-1
 322 979 l 1,26,-1
 179 944 l 2,27,28
 173 942 173 942 166 942 c 0,29,30
 154 942 154 942 140 947.5 c 128,-1,31
 126 953 126 953 113 963.5 c 128,-1,32
 100 974 100 974 91.5 989 c 128,-1,33
 83 1004 83 1004 83 1022 c 0,34,35
 83 1088 83 1088 140 1106 c 1,36,-1
 419 1186 l 1,37,38
 424 1186 424 1186 424 1187 c 128,-1,39
 424 1188 424 1188 429 1188 c 2,40,-1
 435 1188 l 2,41,42
 456 1188 456 1188 471 1175.5 c 128,-1,43
 486 1163 486 1163 486 1141 c 1,44,-1
 507 952 l 1,45,46
 659 1188 659 1188 976 1188 c 0,47,48
 1009 1188 1009 1188 1034.5 1168.5 c 128,-1,49
 1060 1149 1060 1149 1060 1114 c 2,50,-1
 1060 901 l 2,0,1
EndSplineSet
EndChar

StartChar: s
Encoding: 115 115 86
Width: 1227
GlyphClass: 2
Flags: W
LayerCount: 2
Fore
SplineSet
200 0 m 0,0,1
 111 0 111 0 111 74 c 2,2,-1
 111 412 l 1,3,4
 113 444 113 444 135.5 459.5 c 128,-1,5
 158 475 158 475 194 475 c 0,6,7
 231 475 231 475 248.5 454.5 c 128,-1,8
 266 434 266 434 278 380 c 0,9,10
 291 323 291 323 325.5 276 c 128,-1,11
 360 229 360 229 413 195 c 128,-1,12
 466 161 466 161 536 142 c 128,-1,13
 606 123 606 123 690 123 c 0,14,15
 799 123 799 123 862.5 163 c 128,-1,16
 926 203 926 203 926 281 c 0,17,18
 926 321 926 321 919 349.5 c 128,-1,19
 912 378 912 378 892 399.5 c 128,-1,20
 872 421 872 421 836.5 438.5 c 128,-1,21
 801 456 801 456 744 474 c 2,22,-1
 472 559 l 2,23,24
 397 583 397 583 346 606 c 128,-1,25
 295 629 295 629 262 652.5 c 128,-1,26
 229 676 229 676 209 699.5 c 128,-1,27
 189 723 189 723 176 748 c 0,28,29
 150 795 150 795 150 877 c 0,30,31
 150 955 150 955 181 1013.5 c 128,-1,32
 212 1072 212 1072 269 1110.5 c 128,-1,33
 326 1149 326 1149 405.5 1168.5 c 128,-1,34
 485 1188 485 1188 583 1188 c 0,35,36
 651 1188 651 1188 708 1173 c 128,-1,37
 765 1158 765 1158 808 1135.5 c 128,-1,38
 851 1113 851 1113 880 1086.5 c 128,-1,39
 909 1060 909 1060 922 1037 c 1,40,-1
 923 1122 l 2,41,42
 923 1153 923 1153 944.5 1171.5 c 128,-1,43
 966 1190 966 1190 998 1190 c 0,44,45
 1087 1190 1087 1190 1086 1112 c 2,46,-1
 1082 823 l 1,47,48
 1074 754 1074 754 1000 754 c 0,49,50
 984 754 984 754 974 757.5 c 128,-1,51
 964 761 964 761 957 770.5 c 128,-1,52
 950 780 950 780 944.5 795.5 c 128,-1,53
 939 811 939 811 932 835 c 0,54,55
 917 884 917 884 881.5 923.5 c 128,-1,56
 846 963 846 963 797.5 990.5 c 128,-1,57
 749 1018 749 1018 692.5 1033 c 128,-1,58
 636 1048 636 1048 581 1048 c 0,59,60
 531 1048 531 1048 489 1039 c 128,-1,61
 447 1030 447 1030 416 1012 c 128,-1,62
 385 994 385 994 368 967 c 128,-1,63
 351 940 351 940 351 905 c 0,64,65
 351 873 351 873 359 849.5 c 128,-1,66
 367 826 367 826 386.5 808 c 128,-1,67
 406 790 406 790 440 775 c 128,-1,68
 474 760 474 760 525 747 c 1,69,-1
 781 663 l 2,70,71
 881 630 881 630 948.5 596.5 c 128,-1,72
 1016 563 1016 563 1057 522 c 128,-1,73
 1098 481 1098 481 1115.5 429.5 c 128,-1,74
 1133 378 1133 378 1133 311 c 0,75,76
 1133 233 1133 233 1106.5 170 c 128,-1,77
 1080 107 1080 107 1028.5 63.5 c 128,-1,78
 977 20 977 20 901 -3.5 c 128,-1,79
 825 -27 825 -27 725 -27 c 0,80,81
 647 -27 647 -27 577 -16.5 c 128,-1,82
 507 -6 507 -6 449 12 c 128,-1,83
 391 30 391 30 347.5 54 c 128,-1,84
 304 78 304 78 281 105 c 1,85,86
 281 70 281 70 274 49 c 128,-1,87
 267 28 267 28 255.5 17 c 128,-1,88
 244 6 244 6 229.5 3 c 128,-1,89
 215 0 215 0 200 0 c 0,0,1
EndSplineSet
EndChar

StartChar: t
Encoding: 116 116 87
Width: 890
GlyphClass: 2
Flags: W
LayerCount: 2
Fore
SplineSet
445 279 m 2,0,1
 445 134 445 134 572 134 c 0,2,3
 646 134 646 134 696 188 c 1,4,5
 744 242 744 242 779 242 c 256,6,7
 814 242 814 242 833.5 219.5 c 128,-1,8
 853 197 853 197 853 159 c 0,9,10
 853 120 853 120 823.5 86 c 128,-1,11
 794 52 794 52 748.5 27 c 128,-1,12
 703 2 703 2 647 -12.5 c 128,-1,13
 591 -27 591 -27 538 -27 c 0,14,15
 480 -27 480 -27 427 -5 c 128,-1,16
 374 17 374 17 333.5 55 c 128,-1,17
 293 93 293 93 269 142.5 c 128,-1,18
 245 192 245 192 245 248 c 2,19,-1
 245 956 l 1,20,-1
 95 956 l 2,21,22
 13 956 13 956 13 1042 c 0,23,24
 13 1079 13 1079 31.5 1106 c 128,-1,25
 50 1133 50 1133 89 1133 c 2,26,-1
 245 1133 l 1,27,28
 245 1528 245 1528 363 1528 c 0,29,30
 409 1528 409 1528 443 1503 c 1,31,-1
 445 1424 l 1,32,-1
 445 1133 l 1,33,-1
 707 1133 l 2,34,35
 743 1133 743 1133 761 1106.5 c 128,-1,36
 779 1080 779 1080 779 1046 c 0,37,38
 779 1029 779 1029 774.5 1013 c 128,-1,39
 770 997 770 997 761 984 c 128,-1,40
 752 971 752 971 739 963.5 c 128,-1,41
 726 956 726 956 709 956 c 2,42,-1
 705 956 l 1,43,-1
 445 956 l 1,44,-1
 445 279 l 2,0,1
EndSplineSet
EndChar

StartChar: u
Encoding: 117 117 88
Width: 1491
GlyphClass: 2
Flags: W
LayerCount: 2
Fore
SplineSet
408 1188 m 0,0,1
 459 1188 459 1188 459 1139 c 2,2,-1
 459 401 l 2,3,4
 459 282 459 282 512.5 213.5 c 128,-1,5
 566 145 566 145 675 145 c 0,6,7
 735 145 735 145 792.5 161 c 128,-1,8
 850 177 850 177 899.5 205 c 128,-1,9
 949 233 949 233 987.5 271 c 128,-1,10
 1026 309 1026 309 1047 354 c 1,11,-1
 1047 979 l 1,12,-1
 904 944 l 2,13,14
 898 942 898 942 891 942 c 0,15,16
 879 942 879 942 864.5 947.5 c 128,-1,17
 850 953 850 953 837 963.5 c 128,-1,18
 824 974 824 974 815.5 989 c 128,-1,19
 807 1004 807 1004 807 1023 c 0,20,21
 807 1090 807 1090 865 1106 c 1,22,-1
 1184 1186 l 2,23,24
 1194 1188 1194 1188 1201 1188 c 0,25,26
 1252 1188 1252 1188 1252 1139 c 2,27,-1
 1252 190 l 1,28,-1
 1403 190 l 2,29,30
 1437 190 1437 190 1455 166.5 c 128,-1,31
 1473 143 1473 143 1473 110 c 0,32,33
 1473 41 1473 41 1416 25 c 1,34,-1
 1143 -4 l 1,35,36
 1114 -4 1114 -4 1096.5 15 c 128,-1,37
 1079 34 1079 34 1072 84 c 2,38,-1
 1057 182 l 1,39,40
 1027 138 1027 138 979.5 100 c 128,-1,41
 932 62 932 62 876.5 34 c 128,-1,42
 821 6 821 6 762 -9.5 c 128,-1,43
 703 -25 703 -25 651 -25 c 0,44,45
 545 -25 545 -25 470 6.5 c 128,-1,46
 395 38 395 38 347 93 c 128,-1,47
 299 148 299 148 276.5 222.5 c 128,-1,48
 254 297 254 297 254 383 c 2,49,-1
 254 979 l 1,50,-1
 111 944 l 2,51,52
 105 942 105 942 98 942 c 0,53,54
 86 942 86 942 72 948 c 128,-1,55
 58 954 58 954 45 964.5 c 128,-1,56
 32 975 32 975 23.5 990 c 128,-1,57
 15 1005 15 1005 15 1023 c 0,58,59
 15 1089 15 1089 72 1106 c 1,60,-1
 392 1186 l 2,61,62
 402 1188 402 1188 408 1188 c 0,0,1
EndSplineSet
EndChar

StartChar: v
Encoding: 118 118 89
Width: 1409
GlyphClass: 2
Flags: W
LayerCount: 2
Fore
SplineSet
-10 1047 m 0,0,1
 -10 1133 -10 1133 72 1133 c 2,2,-1
 535 1133 l 2,3,4
 570 1133 570 1133 589 1107.5 c 128,-1,5
 608 1082 608 1082 608 1049 c 0,6,7
 608 956 608 956 537 956 c 2,8,-1
 422 956 l 1,9,-1
 741 272 l 1,10,-1
 1034 956 l 1,11,-1
 938 956 l 2,12,13
 901 956 901 956 883.5 982.5 c 128,-1,14
 866 1009 866 1009 866 1043 c 0,15,16
 866 1060 866 1060 870.5 1076 c 128,-1,17
 875 1092 875 1092 883.5 1105 c 128,-1,18
 892 1118 892 1118 905 1125.5 c 128,-1,19
 918 1133 918 1133 935 1133 c 2,20,-1
 940 1133 l 1,21,-1
 1337 1133 l 2,22,23
 1419 1133 1419 1133 1419 1047 c 0,24,25
 1419 1010 1419 1010 1400.5 983 c 128,-1,26
 1382 956 1382 956 1343 956 c 2,27,-1
 1212 956 l 1,28,-1
 836 117 l 1,29,30
 816 80 816 80 801 57 c 128,-1,31
 786 34 786 34 773.5 21.5 c 128,-1,32
 761 9 761 9 749 4.5 c 128,-1,33
 737 0 737 0 724 0 c 0,34,35
 700 0 700 0 684.5 5 c 128,-1,36
 669 10 669 10 656.5 23.5 c 128,-1,37
 644 37 644 37 631 61.5 c 128,-1,38
 618 86 618 86 598 125 c 2,39,-1
 184 956 l 1,40,-1
 66 956 l 2,41,42
 28 956 28 956 9 982.5 c 128,-1,43
 -10 1009 -10 1009 -10 1047 c 0,0,1
EndSplineSet
EndChar

StartChar: w
Encoding: 119 119 90
Width: 1987
GlyphClass: 2
Flags: W
LayerCount: 2
Fore
SplineSet
694 1047 m 0,0,1
 694 1133 694 1133 775 1133 c 2,2,-1
 1218 1133 l 1,3,-1
 1222 1133 l 2,4,5
 1239 1133 1239 1133 1252 1125.5 c 128,-1,6
 1265 1118 1265 1118 1274 1105 c 128,-1,7
 1283 1092 1283 1092 1287.5 1076 c 128,-1,8
 1292 1060 1292 1060 1292 1043 c 0,9,10
 1292 1009 1292 1009 1274 982.5 c 128,-1,11
 1256 956 1256 956 1220 956 c 2,12,-1
 1058 956 l 1,13,-1
 1363 299 l 1,14,-1
 1662 956 l 1,15,-1
 1562 956 l 2,16,17
 1525 956 1525 956 1507.5 982.5 c 128,-1,18
 1490 1009 1490 1009 1490 1043 c 0,19,20
 1490 1060 1490 1060 1494.5 1076 c 128,-1,21
 1499 1092 1499 1092 1507.5 1105 c 128,-1,22
 1516 1118 1516 1118 1529 1125.5 c 128,-1,23
 1542 1133 1542 1133 1559 1133 c 2,24,-1
 1564 1133 l 1,25,-1
 1910 1133 l 2,26,27
 1992 1133 1992 1133 1992 1047 c 0,28,29
 1992 1010 1992 1010 1973.5 983 c 128,-1,30
 1955 956 1955 956 1916 956 c 2,31,-1
 1814 956 l 1,32,-1
 1441 117 l 1,33,34
 1430 95 1430 95 1420 73.5 c 128,-1,35
 1410 52 1410 52 1398.5 34.5 c 128,-1,36
 1387 17 1387 17 1374 6.5 c 128,-1,37
 1361 -4 1361 -4 1345 -4 c 0,38,39
 1324 -4 1324 -4 1301.5 18 c 128,-1,40
 1279 40 1279 40 1257 86 c 2,41,-1
 1003 608 l 1,42,-1
 784 117 l 2,43,44
 734 4 734 4 679 4 c 0,45,46
 621 4 621 4 562 125 c 2,47,-1
 155 956 l 1,48,-1
 71 956 l 2,49,50
 32 956 32 956 13.5 982.5 c 128,-1,51
 -5 1009 -5 1009 -5 1047 c 0,52,53
 -5 1133 -5 1133 77 1133 c 2,54,-1
 458 1133 l 1,55,-1
 462 1133 l 2,56,57
 479 1133 479 1133 492 1125.5 c 128,-1,58
 505 1118 505 1118 514 1105 c 128,-1,59
 523 1092 523 1092 527.5 1076 c 128,-1,60
 532 1060 532 1060 532 1043 c 0,61,62
 532 1009 532 1009 514 982.5 c 128,-1,63
 496 956 496 956 460 956 c 2,64,-1
 380 956 l 1,65,-1
 706 299 l 1,66,-1
 921 774 l 1,67,-1
 833 956 l 1,68,-1
 769 956 l 2,69,70
 730 956 730 956 712 982.5 c 128,-1,71
 694 1009 694 1009 694 1047 c 0,0,1
EndSplineSet
EndChar

StartChar: x
Encoding: 120 120 91
Width: 1523
GlyphClass: 2
Flags: W
LayerCount: 2
Fore
SplineSet
939 0 m 2,0,1
 857 0 857 0 857 86 c 0,2,3
 857 123 857 123 875 149.5 c 128,-1,4
 893 176 893 176 932 176 c 2,5,-1
 1049 176 l 1,6,-1
 752 473 l 1,7,-1
 435 176 l 1,8,-1
 513 176 l 2,9,10
 584 176 584 176 584 84 c 0,11,12
 584 51 584 51 565 25.5 c 128,-1,13
 546 0 546 0 511 0 c 2,14,-1
 105 0 l 2,15,16
 23 0 23 0 23 86 c 0,17,18
 23 123 23 123 41.5 149.5 c 128,-1,19
 60 176 60 176 99 176 c 2,20,-1
 234 176 l 1,21,-1
 652 575 l 1,22,-1
 277 956 l 1,23,-1
 126 956 l 2,24,25
 44 956 44 956 44 1043 c 0,26,27
 44 1080 44 1080 62 1106.5 c 128,-1,28
 80 1133 80 1133 119 1133 c 2,29,-1
 554 1133 l 2,30,31
 625 1133 625 1133 625 1041 c 0,32,33
 625 1008 625 1008 606 982 c 128,-1,34
 587 956 587 956 552 956 c 2,35,-1
 515 956 l 1,36,-1
 781 698 l 1,37,-1
 1049 956 l 1,38,-1
 1000 956 l 2,39,40
 918 956 918 956 918 1043 c 0,41,42
 918 1080 918 1080 936.5 1106.5 c 128,-1,43
 955 1133 955 1133 994 1133 c 2,44,-1
 1428 1133 l 2,45,46
 1500 1133 1500 1133 1500 1041 c 0,47,48
 1500 1008 1500 1008 1480.5 982 c 128,-1,49
 1461 956 1461 956 1426 956 c 2,50,-1
 1266 956 l 1,51,-1
 885 598 l 1,52,-1
 1324 176 l 1,53,-1
 1428 176 l 2,54,55
 1500 176 1500 176 1500 84 c 0,56,57
 1500 51 1500 51 1480.5 25.5 c 128,-1,58
 1461 0 1461 0 1426 0 c 2,59,-1
 939 0 l 2,0,1
EndSplineSet
EndChar

StartChar: y
Encoding: 121 121 92
Width: 1384
GlyphClass: 2
Flags: W
LayerCount: 2
Fore
SplineSet
-16 1047 m 0,0,1
 -16 1133 -16 1133 66 1133 c 2,2,-1
 524 1133 l 1,3,-1
 528 1133 l 2,4,5
 545 1133 545 1133 558 1125.5 c 128,-1,6
 571 1118 571 1118 580 1105 c 128,-1,7
 589 1092 589 1092 593.5 1076 c 128,-1,8
 598 1060 598 1060 598 1043 c 0,9,10
 598 1009 598 1009 580 982.5 c 128,-1,11
 562 956 562 956 526 956 c 2,12,-1
 406 956 l 1,13,-1
 754 209 l 1,14,-1
 1030 956 l 1,15,-1
 914 956 l 2,16,17
 877 956 877 956 859.5 982.5 c 128,-1,18
 842 1009 842 1009 842 1043 c 0,19,20
 842 1060 842 1060 846.5 1076 c 128,-1,21
 851 1092 851 1092 859.5 1105 c 128,-1,22
 868 1118 868 1118 881 1125.5 c 128,-1,23
 894 1133 894 1133 911 1133 c 2,24,-1
 916 1133 l 1,25,-1
 1319 1133 l 2,26,27
 1401 1133 1401 1133 1401 1047 c 0,28,29
 1401 1010 1401 1010 1382.5 983 c 128,-1,30
 1364 956 1364 956 1325 956 c 2,31,-1
 1208 956 l 1,32,-1
 793 -121 l 1,33,34
 775 -164 775 -164 753.5 -215.5 c 128,-1,35
 732 -267 732 -267 705 -319.5 c 128,-1,36
 678 -372 678 -372 645 -420.5 c 128,-1,37
 612 -469 612 -469 571 -507 c 128,-1,38
 530 -545 530 -545 479.5 -567.5 c 128,-1,39
 429 -590 429 -590 367 -590 c 0,40,41
 331 -590 331 -590 306.5 -579 c 128,-1,42
 282 -568 282 -568 267 -552.5 c 128,-1,43
 252 -537 252 -537 246 -521 c 128,-1,44
 240 -505 240 -505 240 -495 c 0,45,46
 240 -435 240 -435 270 -402.5 c 128,-1,47
 300 -370 300 -370 346 -369 c 256,48,49
 392 -368 392 -368 430 -353 c 128,-1,50
 468 -338 468 -338 498 -311 c 128,-1,51
 528 -284 528 -284 551.5 -247 c 128,-1,52
 575 -210 575 -210 594 -166 c 1,53,-1
 658 -6 l 1,54,55
 655 -6 655 -6 647.5 4 c 128,-1,56
 640 14 640 14 630 36 c 2,57,-1
 608 84 l 1,58,-1
 180 956 l 1,59,-1
 59 956 l 2,60,61
 20 956 20 956 2 982.5 c 128,-1,62
 -16 1009 -16 1009 -16 1047 c 0,0,1
EndSplineSet
EndChar

StartChar: z
Encoding: 122 122 93
Width: 1296
GlyphClass: 2
Flags: W
LayerCount: 2
Fore
SplineSet
166 0 m 2,0,1
 84 0 84 0 84 86 c 0,2,3
 84 134 84 134 109 160 c 2,4,-1
 848 954 l 1,5,-1
 301 954 l 1,6,-1
 289 762 l 1,7,8
 282 692 282 692 207 692 c 0,9,10
 127 692 127 692 127 769 c 1,11,-1
 146 1063 l 2,12,13
 148 1089 148 1089 167.5 1109.5 c 128,-1,14
 187 1130 187 1130 213 1130 c 2,15,-1
 1108 1130 l 2,16,17
 1186 1130 1186 1130 1186 1086 c 0,18,19
 1186 1034 1186 1034 1106 954 c 1,20,-1
 363 176 l 1,21,-1
 1051 176 l 1,22,-1
 1081 467 l 1,23,24
 1083 498 1083 498 1105.5 514 c 128,-1,25
 1128 530 1128 530 1157 530 c 0,26,27
 1246 530 1246 530 1246 461 c 1,28,-1
 1204 68 l 1,29,30
 1200 43 1200 43 1180.5 21.5 c 128,-1,31
 1161 0 1161 0 1129 0 c 2,32,-1
 166 0 l 2,0,1
EndSplineSet
EndChar

StartChar: braceleft
Encoding: 123 123 94
Width: 1027
GlyphClass: 2
Flags: W
LayerCount: 2
Fore
SplineSet
386 720 m 1,0,1
 569 685 569 685 569 490 c 0,2,3
 569 460 569 460 564.5 421.5 c 128,-1,4
 560 383 560 383 553 340.5 c 128,-1,5
 546 298 546 298 538 254.5 c 128,-1,6
 530 211 530 211 521.5 171 c 128,-1,7
 513 131 513 131 506 98 c 128,-1,8
 499 65 499 65 495 43 c 0,9,10
 481 -33 481 -33 481 -89 c 0,11,12
 481 -218 481 -218 566.5 -279.5 c 128,-1,13
 652 -341 652 -341 844 -341 c 0,14,15
 871 -341 871 -341 890 -351.5 c 128,-1,16
 909 -362 909 -362 921.5 -376.5 c 128,-1,17
 934 -391 934 -391 940 -406.5 c 128,-1,18
 946 -422 946 -422 946 -432 c 0,19,20
 946 -462 946 -462 936.5 -483.5 c 128,-1,21
 927 -505 927 -505 912 -519 c 128,-1,22
 897 -533 897 -533 879 -539.5 c 128,-1,23
 861 -546 861 -546 844 -546 c 0,24,25
 687 -546 687 -546 576.5 -520 c 128,-1,26
 466 -494 466 -494 395.5 -441.5 c 128,-1,27
 325 -389 325 -389 292.5 -311 c 128,-1,28
 260 -233 260 -233 260 -128 c 0,29,30
 260 -48 260 -48 274.5 33 c 128,-1,31
 289 114 289 114 306 194 c 0,32,33
 352 412 352 412 352 466 c 0,34,35
 352 491 352 491 350 509.5 c 128,-1,36
 348 528 348 528 344 541.5 c 128,-1,37
 340 555 340 555 333 564.5 c 128,-1,38
 326 574 326 574 316 582 c 0,39,40
 272 617 272 617 171 617 c 0,41,42
 144 617 144 617 124.5 627.5 c 128,-1,43
 105 638 105 638 93 653 c 128,-1,44
 81 668 81 668 75 686 c 128,-1,45
 69 704 69 704 69 719 c 2,46,-1
 69 720 l 2,47,48
 69 747 69 747 79.5 766 c 128,-1,49
 90 785 90 785 105.5 797.5 c 128,-1,50
 121 810 121 810 140 816 c 128,-1,51
 159 822 159 822 177 822 c 0,52,53
 266 822 266 822 309 852 c 128,-1,54
 352 882 352 882 352 949 c 0,55,56
 352 1012 352 1012 337.5 1088 c 128,-1,57
 323 1164 323 1164 306 1246 c 0,58,59
 260 1464 260 1464 260 1562 c 0,60,61
 260 1665 260 1665 292 1744.5 c 128,-1,62
 324 1824 324 1824 393.5 1877 c 128,-1,63
 463 1930 463 1930 574 1957.5 c 128,-1,64
 685 1985 685 1985 844 1985 c 0,65,66
 871 1985 871 1985 890 1973.5 c 128,-1,67
 909 1962 909 1962 921.5 1947 c 128,-1,68
 934 1932 934 1932 940 1916 c 128,-1,69
 946 1900 946 1900 946 1891 c 0,70,71
 946 1862 946 1862 937 1841.5 c 128,-1,72
 928 1821 928 1821 913.5 1807 c 128,-1,73
 899 1793 899 1793 881 1786.5 c 128,-1,74
 863 1780 863 1780 844 1780 c 0,75,76
 746 1780 746 1780 677.5 1764.5 c 128,-1,77
 609 1749 609 1749 565.5 1718.5 c 128,-1,78
 522 1688 522 1688 502 1641.5 c 128,-1,79
 482 1595 482 1595 482 1532 c 0,80,81
 482 1471 482 1471 495.5 1398.5 c 128,-1,82
 509 1326 509 1326 526 1248 c 0,83,84
 548 1148 548 1148 558.5 1073.5 c 128,-1,85
 569 999 569 999 569 949 c 0,86,87
 569 754 569 754 386 720 c 1,0,1
EndSplineSet
EndChar

StartChar: bar
Encoding: 124 124 95
Width: 778
GlyphClass: 2
Flags: W
LayerCount: 2
Fore
SplineSet
312 -164 m 0,0,1
 224 -164 224 -164 224 -82 c 2,2,-1
 224 1769 l 2,3,4
 224 1801 224 1801 247 1821 c 128,-1,5
 270 1841 270 1841 314 1841 c 0,6,7
 392 1841 392 1841 400 1769 c 1,8,-1
 400 -98 l 2,9,10
 400 -123 400 -123 378 -143.5 c 128,-1,11
 356 -164 356 -164 312 -164 c 0,0,1
EndSplineSet
EndChar

StartChar: braceright
Encoding: 125 125 96
Width: 1026
GlyphClass: 2
Flags: W
LayerCount: 2
Fore
SplineSet
642 720 m 1,0,1
 459 754 459 754 459 949 c 0,2,3
 459 979 459 979 463.5 1018 c 128,-1,4
 468 1057 468 1057 474.5 1099.5 c 128,-1,5
 481 1142 481 1142 489.5 1186 c 128,-1,6
 498 1230 498 1230 506 1269.5 c 128,-1,7
 514 1309 514 1309 521 1342 c 128,-1,8
 528 1375 528 1375 532 1396 c 0,9,10
 539 1432 539 1432 543 1465.5 c 128,-1,11
 547 1499 547 1499 547 1528 c 0,12,13
 547 1658 547 1658 460 1719 c 128,-1,14
 373 1780 373 1780 184 1780 c 0,15,16
 157 1780 157 1780 138 1790.5 c 128,-1,17
 119 1801 119 1801 106.5 1815.5 c 128,-1,18
 94 1830 94 1830 88 1845.5 c 128,-1,19
 82 1861 82 1861 82 1871 c 0,20,21
 82 1900 82 1900 91 1921.5 c 128,-1,22
 100 1943 100 1943 115 1957 c 128,-1,23
 130 1971 130 1971 148 1978 c 128,-1,24
 166 1985 166 1985 184 1985 c 0,25,26
 340 1985 340 1985 451 1959 c 128,-1,27
 562 1933 562 1933 632 1880.5 c 128,-1,28
 702 1828 702 1828 734.5 1749.5 c 128,-1,29
 767 1671 767 1671 767 1567 c 0,30,31
 767 1487 767 1487 753 1406 c 128,-1,32
 739 1325 739 1325 722 1246 c 0,33,34
 676 1028 676 1028 676 973 c 0,35,36
 676 947 676 947 678 929 c 128,-1,37
 680 911 680 911 684 897.5 c 128,-1,38
 688 884 688 884 695 875 c 128,-1,39
 702 866 702 866 712 858 c 0,40,41
 757 822 757 822 857 822 c 0,42,43
 884 822 884 822 903 811.5 c 128,-1,44
 922 801 922 801 934.5 785.5 c 128,-1,45
 947 770 947 770 953 752.5 c 128,-1,46
 959 735 959 735 959 720 c 2,47,-1
 959 719 l 2,48,49
 959 692 959 692 948.5 672.5 c 128,-1,50
 938 653 938 653 922 641 c 128,-1,51
 906 629 906 629 887 623 c 128,-1,52
 868 617 868 617 851 617 c 0,53,54
 760 617 760 617 718 586.5 c 128,-1,55
 676 556 676 556 676 489 c 0,56,57
 676 426 676 426 690.5 350.5 c 128,-1,58
 705 275 705 275 722 194 c 0,59,60
 745 83 745 83 756.5 4 c 128,-1,61
 768 -75 768 -75 768 -123 c 0,62,63
 768 -227 768 -227 736 -306 c 128,-1,64
 704 -385 704 -385 634.5 -438 c 128,-1,65
 565 -491 565 -491 454 -518.5 c 128,-1,66
 343 -546 343 -546 184 -546 c 0,67,68
 157 -546 157 -546 138 -535 c 128,-1,69
 119 -524 119 -524 106.5 -508.5 c 128,-1,70
 94 -493 94 -493 88 -477.5 c 128,-1,71
 82 -462 82 -462 82 -453 c 0,72,73
 82 -424 82 -424 91 -402.5 c 128,-1,74
 100 -381 100 -381 114.5 -367.5 c 128,-1,75
 129 -354 129 -354 147 -347.5 c 128,-1,76
 165 -341 165 -341 184 -341 c 0,77,78
 281 -341 281 -341 350 -325.5 c 128,-1,79
 419 -310 419 -310 462.5 -279.5 c 128,-1,80
 506 -249 506 -249 526 -202.5 c 128,-1,81
 546 -156 546 -156 546 -93 c 0,82,83
 546 -31 546 -31 532.5 41.5 c 128,-1,84
 519 114 519 114 502 192 c 0,85,86
 479 292 479 292 469 366 c 128,-1,87
 459 440 459 440 459 490 c 0,88,89
 459 685 459 685 642 720 c 1,0,1
EndSplineSet
EndChar

StartChar: asciitilde
Encoding: 126 126 97
Width: 1338
GlyphClass: 2
Flags: W
LayerCount: 2
Fore
SplineSet
159 1065 m 0,0,1
 159 1126 159 1126 176 1178 c 128,-1,2
 193 1230 193 1230 222.5 1268 c 128,-1,3
 252 1306 252 1306 292 1328 c 128,-1,4
 332 1350 332 1350 379 1350 c 0,5,6
 526 1350 526 1350 689 1259 c 0,7,8
 749 1226 749 1226 781.5 1207.5 c 128,-1,9
 814 1189 814 1189 832.5 1180 c 128,-1,10
 851 1171 851 1171 862.5 1169.5 c 128,-1,11
 874 1168 874 1168 891 1168 c 0,12,13
 923 1168 923 1168 946.5 1180 c 128,-1,14
 970 1192 970 1192 988.5 1210 c 128,-1,15
 1007 1228 1007 1228 1021 1249 c 128,-1,16
 1035 1270 1035 1270 1048.5 1288 c 128,-1,17
 1062 1306 1062 1306 1075.5 1318 c 128,-1,18
 1089 1330 1089 1330 1106 1330 c 0,19,20
 1136 1330 1136 1330 1158.5 1316.5 c 128,-1,21
 1181 1303 1181 1303 1181 1276 c 0,22,23
 1181 1214 1181 1214 1160.5 1161.5 c 128,-1,24
 1140 1109 1140 1109 1104.5 1071.5 c 128,-1,25
 1069 1034 1069 1034 1022 1013 c 128,-1,26
 975 992 975 992 922 992 c 0,27,28
 881 992 881 992 839.5 1002 c 128,-1,29
 798 1012 798 1012 760.5 1026 c 128,-1,30
 723 1040 723 1040 692 1055.5 c 128,-1,31
 661 1071 661 1071 641 1082 c 0,32,33
 562 1125 562 1125 504.5 1149 c 128,-1,34
 447 1173 447 1173 419 1173 c 0,35,36
 385 1173 385 1173 362.5 1161 c 128,-1,37
 340 1149 340 1149 324 1131 c 128,-1,38
 308 1113 308 1113 297 1092.5 c 128,-1,39
 286 1072 286 1072 276 1054 c 128,-1,40
 266 1036 266 1036 255 1024 c 128,-1,41
 244 1012 244 1012 228 1012 c 0,42,43
 203 1012 203 1012 181 1025 c 128,-1,44
 159 1038 159 1038 159 1065 c 0,0,1
EndSplineSet
EndChar

StartChar: exclamdown
Encoding: 161 161 105
Width: 728
GlyphClass: 2
Flags: W
LayerCount: 2
Fore
SplineSet
502 154 m 0,0,1
 502 -25 502 -25 367 -25 c 0,2,3
 307 -25 307 -25 269 13 c 128,-1,4
 231 51 231 51 231 123 c 0,5,6
 231 209 231 209 237 309.5 c 128,-1,7
 243 410 243 410 256 527 c 0,8,9
 281 750 281 750 293 906.5 c 128,-1,10
 305 1063 305 1063 305 1157 c 0,11,12
 305 1183 305 1183 323 1201 c 128,-1,13
 341 1219 341 1219 366 1219 c 0,14,15
 392 1219 392 1219 410 1201 c 128,-1,16
 428 1183 428 1183 428 1157 c 0,17,18
 428 1063 428 1063 434.5 959 c 128,-1,19
 441 855 441 855 454 738 c 0,20,21
 502 297 502 297 502 154 c 0,0,1
364 1739 m 0,22,23
 404 1739 404 1739 436.5 1724.5 c 128,-1,24
 469 1710 469 1710 492.5 1685 c 128,-1,25
 516 1660 516 1660 528.5 1628 c 128,-1,26
 541 1596 541 1596 541 1562 c 0,27,28
 541 1525 541 1525 527.5 1493 c 128,-1,29
 514 1461 514 1461 490.5 1437 c 128,-1,30
 467 1413 467 1413 435 1399.5 c 128,-1,31
 403 1386 403 1386 365 1386 c 0,32,33
 329 1386 329 1386 297 1399 c 128,-1,34
 265 1412 265 1412 240.5 1435.5 c 128,-1,35
 216 1459 216 1459 202 1491 c 128,-1,36
 188 1523 188 1523 188 1562 c 0,37,38
 188 1599 188 1599 201.5 1631.5 c 128,-1,39
 215 1664 215 1664 239 1688 c 128,-1,40
 263 1712 263 1712 295 1725.5 c 128,-1,41
 327 1739 327 1739 364 1739 c 0,22,23
EndSplineSet
EndChar

StartChar: cent
Encoding: 162 162 106
Width: 1295
GlyphClass: 2
Flags: W
LayerCount: 2
Fore
SplineSet
791 1566 m 1,0,-1
 791 1328 l 1,1,2
 885 1325 885 1325 959.5 1305 c 128,-1,3
 1034 1285 1034 1285 1085.5 1246.5 c 128,-1,4
 1137 1208 1137 1208 1164.5 1151 c 128,-1,5
 1192 1094 1192 1094 1192 1018 c 0,6,7
 1192 952 1192 952 1167 915 c 128,-1,8
 1142 878 1142 878 1088 878 c 0,9,10
 1055 878 1055 878 1034.5 903 c 128,-1,11
 1014 928 1014 928 1000.5 966 c 128,-1,12
 987 1004 987 1004 978 1049 c 128,-1,13
 969 1094 969 1094 959 1133 c 1,14,15
 880 1153 880 1153 791 1158 c 1,16,-1
 791 317 l 1,17,18
 945 337 945 337 1062 442 c 1,19,20
 1076 456 1076 456 1094.5 462 c 128,-1,21
 1113 468 1113 468 1131 468 c 0,22,23
 1168 468 1168 468 1194.5 447 c 128,-1,24
 1221 426 1221 426 1221 388 c 0,25,26
 1221 331 1221 331 1180 284 c 128,-1,27
 1139 237 1139 237 1076 202 c 128,-1,28
 1013 167 1013 167 937 145 c 128,-1,29
 861 123 861 123 791 117 c 1,30,-1
 791 -113 l 2,31,32
 791 -142 791 -142 770 -157 c 128,-1,33
 749 -172 749 -172 723 -172 c 256,34,35
 697 -172 697 -172 676 -155.5 c 128,-1,36
 655 -139 655 -139 655 -104 c 2,37,-1
 655 120 l 1,38,39
 526 133 526 133 422 182 c 128,-1,40
 318 231 318 231 245 311 c 128,-1,41
 172 391 172 391 133 499 c 128,-1,42
 94 607 94 607 94 736 c 0,43,44
 94 854 94 854 133.5 955 c 128,-1,45
 173 1056 173 1056 246.5 1132.5 c 128,-1,46
 320 1209 320 1209 423.5 1258 c 128,-1,47
 527 1307 527 1307 655 1322 c 1,48,-1
 655 1566 l 2,49,50
 655 1595 655 1595 676 1609 c 128,-1,51
 697 1623 697 1623 723 1623 c 256,52,53
 749 1623 749 1623 770 1609.5 c 128,-1,54
 791 1596 791 1596 791 1570 c 2,55,-1
 791 1566 l 1,0,-1
655 1147 m 1,56,57
 578 1131 578 1131 515 1096.5 c 128,-1,58
 452 1062 452 1062 408 1009.5 c 128,-1,59
 364 957 364 957 340 887.5 c 128,-1,60
 316 818 316 818 316 731 c 0,61,62
 316 643 316 643 341.5 572 c 128,-1,63
 367 501 367 501 412 449 c 128,-1,64
 457 397 457 397 519 364 c 128,-1,65
 581 331 581 331 655 320 c 1,66,-1
 655 1147 l 1,56,57
EndSplineSet
EndChar

StartChar: sterling
Encoding: 163 163 107
Width: 1336
GlyphClass: 2
Flags: W
LayerCount: 2
Fore
SplineSet
628 154 m 1,0,1
 491 -29 491 -29 311 -29 c 0,2,3
 254 -29 254 -29 205.5 -10 c 128,-1,4
 157 9 157 9 121.5 43 c 128,-1,5
 86 77 86 77 66.5 124 c 128,-1,6
 47 171 47 171 47 227 c 0,7,8
 47 290 47 290 71.5 341 c 128,-1,9
 96 392 96 392 137 428 c 128,-1,10
 178 464 178 464 231.5 483 c 128,-1,11
 285 502 285 502 344 502 c 0,12,13
 465 502 465 502 571 438 c 1,14,15
 573 449 573 449 574 462 c 128,-1,16
 575 475 575 475 575 490 c 0,17,18
 575 530 575 530 572 562.5 c 128,-1,19
 569 595 569 595 558 632.5 c 128,-1,20
 547 670 547 670 525.5 719 c 128,-1,21
 504 768 504 768 467 840 c 1,22,-1
 450 870 l 1,23,-1
 178 870 l 2,24,25
 143 870 143 870 123.5 891.5 c 128,-1,26
 104 913 104 913 104 946 c 0,27,28
 104 1018 104 1018 176 1018 c 2,29,-1
 383 1018 l 1,30,31
 297 1223 297 1223 297 1378 c 0,32,33
 297 1461 297 1461 331.5 1534 c 128,-1,34
 366 1607 366 1607 425 1661 c 128,-1,35
 484 1715 484 1715 563 1746.5 c 128,-1,36
 642 1778 642 1778 731 1778 c 0,37,38
 977 1778 977 1778 1114 1616 c 0,39,40
 1123 1605 1123 1605 1129.5 1596.5 c 128,-1,41
 1136 1588 1136 1588 1140 1580.5 c 128,-1,42
 1144 1573 1144 1573 1145.5 1565 c 128,-1,43
 1147 1557 1147 1557 1147 1546 c 0,44,45
 1147 1516 1147 1516 1135.5 1494.5 c 128,-1,46
 1124 1473 1124 1473 1106.5 1458.5 c 128,-1,47
 1089 1444 1089 1444 1068 1437 c 128,-1,48
 1047 1430 1047 1430 1028 1430 c 0,49,50
 1005 1430 1005 1430 984.5 1439.5 c 128,-1,51
 964 1449 964 1449 946 1463.5 c 128,-1,52
 928 1478 928 1478 912.5 1495 c 128,-1,53
 897 1512 897 1512 883 1528 c 0,54,55
 826 1593 826 1593 733 1593 c 0,56,57
 639 1593 639 1593 581.5 1528.5 c 128,-1,58
 524 1464 524 1464 524 1341 c 0,59,60
 524 1222 524 1222 618 1018 c 1,61,-1
 962 1018 l 2,62,63
 1034 1018 1034 1018 1034 946 c 0,64,65
 1034 913 1034 913 1014.5 891.5 c 128,-1,66
 995 870 995 870 960 870 c 2,67,-1
 684 870 l 1,68,69
 755 672 755 672 755 552 c 0,70,71
 755 433 755 433 714 319 c 1,72,73
 800 230 800 230 835 204 c 0,74,75
 915 145 915 145 999 145 c 0,76,77
 1054 145 1054 145 1124 198 c 0,78,79
 1151 219 1151 219 1176.5 235.5 c 128,-1,80
 1202 252 1202 252 1227 252 c 0,81,82
 1250 252 1250 252 1266.5 243.5 c 128,-1,83
 1283 235 1283 235 1293.5 222.5 c 128,-1,84
 1304 210 1304 210 1309 194.5 c 128,-1,85
 1314 179 1314 179 1314 164 c 0,86,87
 1314 122 1314 122 1286 86.5 c 128,-1,88
 1258 51 1258 51 1214.5 26 c 128,-1,89
 1171 1 1171 1 1119.5 -13 c 128,-1,90
 1068 -27 1068 -27 1021 -27 c 0,91,92
 975 -27 975 -27 940.5 -22.5 c 128,-1,93
 906 -18 906 -18 878.5 -10 c 128,-1,94
 851 -2 851 -2 828 9 c 128,-1,95
 805 20 805 20 782 34 c 0,96,97
 728 66 728 66 628 154 c 1,0,1
512 256 m 1,98,99
 492 272 492 272 472 288.5 c 128,-1,100
 452 305 452 305 430 318.5 c 128,-1,101
 408 332 408 332 383 340 c 128,-1,102
 358 348 358 348 328 348 c 0,103,104
 301 348 301 348 276 340.5 c 128,-1,105
 251 333 251 333 232.5 318.5 c 128,-1,106
 214 304 214 304 203 282 c 128,-1,107
 192 260 192 260 192 231 c 0,108,109
 192 209 192 209 201.5 191 c 128,-1,110
 211 173 211 173 226.5 160 c 128,-1,111
 242 147 242 147 263.5 140 c 128,-1,112
 285 133 285 133 309 133 c 0,113,114
 347 133 347 133 376.5 141 c 128,-1,115
 406 149 406 149 429.5 164.5 c 128,-1,116
 453 180 453 180 472.5 203 c 128,-1,117
 492 226 492 226 512 256 c 1,98,99
EndSplineSet
EndChar

StartChar: currency
Encoding: 164 164 108
Width: 1128
GlyphClass: 2
Flags: W
LayerCount: 2
Fore
SplineSet
833 1086 m 2,0,1
 855 1108 855 1108 877 1108 c 256,2,3
 899 1108 899 1108 914.5 1101 c 128,-1,4
 930 1094 930 1094 940 1083.5 c 128,-1,5
 950 1073 950 1073 954.5 1060 c 128,-1,6
 959 1047 959 1047 959 1036 c 0,7,8
 958 1022 958 1022 953 1008 c 128,-1,9
 948 994 948 994 937 983 c 2,10,-1
 667 714 l 1,11,-1
 937 444 l 2,12,13
 950 430 950 430 955 416.5 c 128,-1,14
 960 403 960 403 960 392 c 0,15,16
 960 374 960 374 952 360.5 c 128,-1,17
 944 347 944 347 932.5 337.5 c 128,-1,18
 921 328 921 328 908 323.5 c 128,-1,19
 895 319 895 319 884 319 c 0,20,21
 870 319 870 319 857 324.5 c 128,-1,22
 844 330 844 330 833 341 c 2,23,-1
 564 610 l 1,24,-1
 295 341 l 1,25,26
 280 328 280 328 266.5 323 c 128,-1,27
 253 318 253 318 242 318 c 0,28,29
 224 318 224 318 210.5 326 c 128,-1,30
 197 334 197 334 188 344.5 c 128,-1,31
 179 355 179 355 174 366.5 c 128,-1,32
 169 378 169 378 169 386 c 0,33,34
 169 422 169 422 191 444 c 2,35,-1
 460 714 l 1,36,-1
 191 983 l 2,37,38
 178 997 178 997 173 1010 c 128,-1,39
 168 1023 168 1023 168 1035 c 0,40,41
 168 1054 168 1054 176 1067.5 c 128,-1,42
 184 1081 184 1081 195.5 1090 c 128,-1,43
 207 1099 207 1099 220 1103.5 c 128,-1,44
 233 1108 233 1108 244 1108 c 0,45,46
 271 1108 271 1108 295 1086 c 1,47,-1
 564 817 l 1,48,-1
 833 1086 l 2,0,1
EndSplineSet
EndChar

StartChar: yen
Encoding: 165 165 109
Width: 1824
GlyphClass: 2
Flags: W
LayerCount: 2
Fore
SplineSet
1196 1538 m 2,0,1
 1124 1538 1124 1538 1124 1630 c 0,2,3
 1124 1663 1124 1663 1143.5 1688.5 c 128,-1,4
 1163 1714 1163 1714 1198 1714 c 2,5,-1
 1689 1714 l 2,6,7
 1724 1714 1724 1714 1743.5 1688.5 c 128,-1,8
 1763 1663 1763 1663 1763 1630 c 0,9,10
 1763 1538 1763 1538 1691 1538 c 2,11,-1
 1552 1538 l 1,12,-1
 1130 846 l 1,13,-1
 1406 846 l 2,14,15
 1437 846 1437 846 1458.5 824 c 128,-1,16
 1480 802 1480 802 1480 771 c 256,17,18
 1480 740 1480 740 1458.5 718.5 c 128,-1,19
 1437 697 1437 697 1406 697 c 2,20,-1
 1055 697 l 1,21,-1
 1055 584 l 1,22,-1
 1406 584 l 2,23,24
 1437 584 1437 584 1458.5 562.5 c 128,-1,25
 1480 541 1480 541 1480 510 c 256,26,27
 1480 479 1480 479 1458.5 457 c 128,-1,28
 1437 435 1437 435 1406 435 c 2,29,-1
 1055 435 l 1,30,-1
 1055 176 l 1,31,-1
 1278 176 l 2,32,33
 1349 176 1349 176 1349 84 c 0,34,35
 1349 51 1349 51 1330 25.5 c 128,-1,36
 1311 0 1311 0 1276 0 c 2,37,-1
 559 0 l 2,38,39
 524 0 524 0 504.5 25.5 c 128,-1,40
 485 51 485 51 485 84 c 0,41,42
 485 176 485 176 557 176 c 2,43,-1
 821 176 l 1,44,-1
 821 435 l 1,45,-1
 471 435 l 2,46,47
 440 435 440 435 418.5 457 c 128,-1,48
 397 479 397 479 397 510 c 256,49,50
 397 541 397 541 418.5 562.5 c 128,-1,51
 440 584 440 584 471 584 c 2,52,-1
 821 584 l 1,53,-1
 821 697 l 1,54,-1
 471 697 l 2,55,56
 440 697 440 697 418.5 718.5 c 128,-1,57
 397 740 397 740 397 771 c 256,58,59
 397 802 397 802 418.5 824 c 128,-1,60
 440 846 440 846 471 846 c 2,61,-1
 757 846 l 1,62,-1
 346 1538 l 1,63,-1
 135 1538 l 2,64,65
 63 1538 63 1538 63 1630 c 0,66,67
 63 1663 63 1663 82.5 1688.5 c 128,-1,68
 102 1714 102 1714 137 1714 c 2,69,-1
 731 1714 l 2,70,71
 766 1714 766 1714 785.5 1688.5 c 128,-1,72
 805 1663 805 1663 805 1630 c 0,73,74
 805 1538 805 1538 733 1538 c 2,75,-1
 592 1538 l 1,76,-1
 977 891 l 1,77,-1
 1358 1538 l 1,78,-1
 1196 1538 l 2,0,1
EndSplineSet
EndChar

StartChar: brokenbar
Encoding: 166 166 110
Width: 778
GlyphClass: 2
Flags: W
LayerCount: 2
Fore
SplineSet
312 -164 m 0,0,1
 224 -164 224 -164 224 -82 c 2,2,-1
 224 1769 l 2,3,4
 224 1801 224 1801 247 1821 c 128,-1,5
 270 1841 270 1841 314 1841 c 0,6,7
 392 1841 392 1841 400 1769 c 1,8,-1
 400 -98 l 2,9,10
 400 -123 400 -123 378 -143.5 c 128,-1,11
 356 -164 356 -164 312 -164 c 0,0,1
EndSplineSet
EndChar

StartChar: section
Encoding: 167 167 111
Width: 877
GlyphClass: 2
Flags: W
LayerCount: 2
Fore
SplineSet
229 1262 m 1,0,1
 100 1440 100 1440 100 1593 c 0,2,3
 100 1669 100 1669 127.5 1732 c 128,-1,4
 155 1795 155 1795 203 1840.5 c 128,-1,5
 251 1886 251 1886 317 1911.5 c 128,-1,6
 383 1937 383 1937 460 1937 c 0,7,8
 535 1937 535 1937 605 1915.5 c 128,-1,9
 675 1894 675 1894 729 1857 c 128,-1,10
 783 1820 783 1820 815 1769.5 c 128,-1,11
 847 1719 847 1719 847 1661 c 0,12,13
 847 1627 847 1627 826.5 1607 c 128,-1,14
 806 1587 806 1587 774 1587 c 0,15,16
 711 1587 711 1587 687 1651 c 0,17,18
 675 1683 675 1683 655.5 1710.5 c 128,-1,19
 636 1738 636 1738 608.5 1758.5 c 128,-1,20
 581 1779 581 1779 545.5 1790.5 c 128,-1,21
 510 1802 510 1802 468 1802 c 0,22,23
 424 1802 424 1802 387.5 1788 c 128,-1,24
 351 1774 351 1774 324.5 1749.5 c 128,-1,25
 298 1725 298 1725 283 1692 c 128,-1,26
 268 1659 268 1659 268 1621 c 0,27,28
 268 1565 268 1565 289 1513.5 c 128,-1,29
 310 1462 310 1462 341.5 1415 c 128,-1,30
 373 1368 373 1368 411 1325.5 c 128,-1,31
 449 1283 449 1283 484 1247 c 0,32,33
 561 1169 561 1169 623.5 1099 c 128,-1,34
 686 1029 686 1029 730 964.5 c 128,-1,35
 774 900 774 900 797.5 839 c 128,-1,36
 821 778 821 778 821 717 c 0,37,38
 821 643 821 643 808.5 585.5 c 128,-1,39
 796 528 796 528 773.5 485 c 128,-1,40
 751 442 751 442 721 413 c 128,-1,41
 691 384 691 384 655 366 c 1,42,43
 784 178 784 178 784 35 c 0,44,45
 784 -40 784 -40 757.5 -103 c 128,-1,46
 731 -166 731 -166 683 -211.5 c 128,-1,47
 635 -257 635 -257 568.5 -283 c 128,-1,48
 502 -309 502 -309 423 -309 c 0,49,50
 348 -309 348 -309 278 -287.5 c 128,-1,51
 208 -266 208 -266 154 -229 c 128,-1,52
 100 -192 100 -192 68 -141.5 c 128,-1,53
 36 -91 36 -91 36 -33 c 0,54,55
 36 1 36 1 57 21 c 128,-1,56
 78 41 78 41 110 41 c 0,57,58
 172 41 172 41 196 -22 c 0,59,60
 208 -54 208 -54 227.5 -81.5 c 128,-1,61
 247 -109 247 -109 275 -129.5 c 128,-1,62
 303 -150 303 -150 338 -162 c 128,-1,63
 373 -174 373 -174 415 -174 c 0,64,65
 458 -174 458 -174 494.5 -160 c 128,-1,66
 531 -146 531 -146 558 -121.5 c 128,-1,67
 585 -97 585 -97 600.5 -64.5 c 128,-1,68
 616 -32 616 -32 616 6 c 0,69,70
 616 61 616 61 595 113 c 128,-1,71
 574 165 574 165 542 212 c 128,-1,72
 510 259 510 259 471.5 301.5 c 128,-1,73
 433 344 433 344 398 380 c 0,74,75
 322 461 322 461 260 530.5 c 128,-1,76
 198 600 198 600 154.5 664 c 128,-1,77
 111 728 111 728 87 788 c 128,-1,78
 63 848 63 848 63 911 c 0,79,80
 63 986 63 986 75.5 1043.5 c 128,-1,81
 88 1101 88 1101 110 1144 c 128,-1,82
 132 1187 132 1187 162.5 1216 c 128,-1,83
 193 1245 193 1245 229 1262 c 1,0,1
294 1177 m 1,84,85
 265 1150 265 1150 245 1106 c 128,-1,86
 225 1062 225 1062 225 1008 c 0,87,88
 225 960 225 960 244 911.5 c 128,-1,89
 263 863 263 863 291.5 816.5 c 128,-1,90
 320 770 320 770 354 727.5 c 128,-1,91
 388 685 388 685 417 650 c 0,92,93
 459 599 459 599 503.5 550.5 c 128,-1,94
 548 502 548 502 590 451 c 1,95,96
 619 478 619 478 639 522 c 128,-1,97
 659 566 659 566 659 620 c 0,98,99
 659 667 659 667 639.5 715.5 c 128,-1,100
 620 764 620 764 591 810.5 c 128,-1,101
 562 857 562 857 528.5 899.5 c 128,-1,102
 495 942 495 942 466 977 c 0,103,104
 424 1028 424 1028 380 1077 c 128,-1,105
 336 1126 336 1126 294 1177 c 1,84,85
EndSplineSet
EndChar

StartChar: dieresis
Encoding: 168 168 112
Width: 886
GlyphClass: 2
Flags: W
LayerCount: 2
Fore
SplineSet
199 1432 m 0,0,1
 173 1432 173 1432 148.5 1442 c 128,-1,2
 124 1452 124 1452 105.5 1470 c 128,-1,3
 87 1488 87 1488 76 1512 c 128,-1,4
 65 1536 65 1536 65 1565 c 0,5,6
 65 1593 65 1593 76 1617.5 c 128,-1,7
 87 1642 87 1642 105.5 1660 c 128,-1,8
 124 1678 124 1678 148.5 1688 c 128,-1,9
 173 1698 173 1698 199 1698 c 0,10,11
 226 1698 226 1698 250.5 1687.5 c 128,-1,12
 275 1677 275 1677 293 1659 c 128,-1,13
 311 1641 311 1641 321.5 1616.5 c 128,-1,14
 332 1592 332 1592 332 1565 c 256,15,16
 332 1538 332 1538 321.5 1513.5 c 128,-1,17
 311 1489 311 1489 293 1471 c 128,-1,18
 275 1453 275 1453 250.5 1442.5 c 128,-1,19
 226 1432 226 1432 199 1432 c 0,0,1
690 1432 m 256,20,21
 663 1432 663 1432 638.5 1442.5 c 128,-1,22
 614 1453 614 1453 596 1471 c 128,-1,23
 578 1489 578 1489 567.5 1513.5 c 128,-1,24
 557 1538 557 1538 557 1565 c 256,25,26
 557 1592 557 1592 567.5 1616.5 c 128,-1,27
 578 1641 578 1641 596 1659 c 128,-1,28
 614 1677 614 1677 638.5 1687.5 c 128,-1,29
 663 1698 663 1698 690 1698 c 256,30,31
 717 1698 717 1698 741.5 1687.5 c 128,-1,32
 766 1677 766 1677 784 1659 c 128,-1,33
 802 1641 802 1641 812.5 1616.5 c 128,-1,34
 823 1592 823 1592 823 1565 c 256,35,36
 823 1538 823 1538 812.5 1513.5 c 128,-1,37
 802 1489 802 1489 784 1471 c 128,-1,38
 766 1453 766 1453 741.5 1442.5 c 128,-1,39
 717 1432 717 1432 690 1432 c 256,20,21
EndSplineSet
EndChar

StartChar: copyright
Encoding: 169 169 113
Width: 2128
GlyphClass: 2
Flags: W
LayerCount: 2
Fore
SplineSet
1932 1100 m 1,0,1
 1961 981 1961 981 1961 817 c 0,2,3
 1961 735 1961 735 1944 652 c 128,-1,4
 1927 569 1927 569 1894.5 490.5 c 128,-1,5
 1862 412 1862 412 1815.5 341.5 c 128,-1,6
 1769 271 1769 271 1710 214 c 0,7,8
 1462 -25 1462 -25 1064 -25 c 0,9,10
 863 -25 863 -25 698 38.5 c 128,-1,11
 533 102 533 102 415 217.5 c 128,-1,12
 297 333 297 333 232 494 c 128,-1,13
 167 655 167 655 167 850 c 0,14,15
 167 1249 167 1249 416 1494 c 0,16,17
 666 1739 666 1739 1064 1739 c 0,18,19
 1223 1739 1223 1739 1364 1696.5 c 128,-1,20
 1505 1654 1505 1654 1618.5 1572.5 c 128,-1,21
 1732 1491 1732 1491 1812.5 1372 c 128,-1,22
 1893 1253 1893 1253 1932 1100 c 1,0,1
1088 1405 m 0,23,24
 1226 1405 1226 1405 1338 1307 c 1,25,-1
 1338 1348 l 2,26,27
 1338 1391 1338 1391 1412 1391 c 0,28,29
 1434 1391 1434 1391 1448 1385.5 c 128,-1,30
 1462 1380 1462 1380 1470 1373 c 128,-1,31
 1478 1366 1478 1366 1481 1359 c 128,-1,32
 1484 1352 1484 1352 1484 1348 c 2,33,-1
 1484 1083 l 2,34,35
 1484 1066 1484 1066 1467 1053 c 128,-1,36
 1450 1040 1450 1040 1416 1040 c 0,37,38
 1403 1040 1403 1040 1394.5 1043.5 c 128,-1,39
 1386 1047 1386 1047 1378 1055.5 c 128,-1,40
 1370 1064 1370 1064 1360 1079 c 128,-1,41
 1350 1094 1350 1094 1334 1117 c 0,42,43
 1317 1142 1317 1142 1291 1168 c 128,-1,44
 1265 1194 1265 1194 1231.5 1215 c 128,-1,45
 1198 1236 1198 1236 1158.5 1249 c 128,-1,46
 1119 1262 1119 1262 1074 1262 c 0,47,48
 989 1262 989 1262 924 1230.5 c 128,-1,49
 859 1199 859 1199 815 1144 c 128,-1,50
 771 1089 771 1089 748.5 1015.5 c 128,-1,51
 726 942 726 942 726 858 c 0,52,53
 726 771 726 771 751 699 c 128,-1,54
 776 627 776 627 821.5 576 c 128,-1,55
 867 525 867 525 930.5 497 c 128,-1,56
 994 469 994 469 1070 469 c 0,57,58
 1269 469 1269 469 1337 619 c 0,59,60
 1359 667 1359 667 1359 705 c 0,61,62
 1359 724 1359 724 1361 734.5 c 128,-1,63
 1363 745 1363 745 1366 750.5 c 128,-1,64
 1369 756 1369 756 1373 758.5 c 128,-1,65
 1377 761 1377 761 1382 764 c 0,66,67
 1394 770 1394 770 1406 772 c 128,-1,68
 1418 774 1418 774 1429 774 c 0,69,70
 1467 774 1467 774 1485.5 759 c 128,-1,71
 1504 744 1504 744 1504 729 c 2,72,-1
 1504 508 l 2,73,74
 1504 492 1504 492 1501.5 485 c 128,-1,75
 1499 478 1499 478 1486 473 c 1,76,77
 1308 319 1308 319 1070 319 c 0,78,79
 949 319 949 319 850.5 359 c 128,-1,80
 752 399 752 399 682.5 470 c 128,-1,81
 613 541 613 541 575 640 c 128,-1,82
 537 739 537 739 537 858 c 0,83,84
 537 978 537 978 574.5 1078 c 128,-1,85
 612 1178 612 1178 683.5 1251 c 128,-1,86
 755 1324 755 1324 857 1364.5 c 128,-1,87
 959 1405 959 1405 1088 1405 c 0,23,24
333 854 m 0,88,89
 333 686 333 686 386.5 550.5 c 128,-1,90
 440 415 440 415 537 320 c 128,-1,91
 634 225 634 225 768.5 174 c 128,-1,92
 903 123 903 123 1064 123 c 0,93,94
 1229 123 1229 123 1363.5 175.5 c 128,-1,95
 1498 228 1498 228 1594 324 c 128,-1,96
 1690 420 1690 420 1742.5 554.5 c 128,-1,97
 1795 689 1795 689 1795 854 c 256,98,99
 1795 1019 1795 1019 1742 1154.5 c 128,-1,100
 1689 1290 1689 1290 1593 1387 c 128,-1,101
 1497 1484 1497 1484 1362 1537.5 c 128,-1,102
 1227 1591 1227 1591 1064 1591 c 0,103,104
 900 1591 900 1591 765.5 1537.5 c 128,-1,105
 631 1484 631 1484 535 1387 c 128,-1,106
 439 1290 439 1290 386 1154.5 c 128,-1,107
 333 1019 333 1019 333 854 c 0,88,89
EndSplineSet
EndChar

StartChar: ordfeminine
Encoding: 170 170 114
Width: 1366
GlyphClass: 2
Flags: W
LayerCount: 2
Fore
SplineSet
933 590 m 2,0,1
 933 546 933 546 960 546 c 0,2,3
 979 546 979 546 1008 568 c 0,4,5
 1067 612 1067 612 1076 612 c 0,6,7
 1094 612 1094 612 1108 594.5 c 128,-1,8
 1122 577 1122 577 1122 559 c 0,9,10
 1122 535 1122 535 1103.5 513.5 c 128,-1,11
 1085 492 1085 492 1058.5 475.5 c 128,-1,12
 1032 459 1032 459 1002 449 c 128,-1,13
 972 439 972 439 949 439 c 0,14,15
 848 439 848 439 826 539 c 1,16,17
 739 437 739 437 553 437 c 0,18,19
 504 437 504 437 463.5 453 c 128,-1,20
 423 469 423 469 393.5 497 c 128,-1,21
 364 525 364 525 348 563 c 128,-1,22
 332 601 332 601 332 645 c 0,23,24
 332 700 332 700 356 742 c 128,-1,25
 380 784 380 784 424 813 c 128,-1,26
 468 842 468 842 530 859.5 c 128,-1,27
 592 877 592 877 668 884 c 2,28,-1
 810 897 l 1,29,-1
 810 997 l 2,30,31
 810 1083 810 1083 679 1083 c 0,32,33
 569 1083 569 1083 498 1042 c 0,34,35
 473 1028 473 1028 452.5 1014.5 c 128,-1,36
 432 1001 432 1001 422 1001 c 0,37,38
 410 1001 410 1001 400.5 1007.5 c 128,-1,39
 391 1014 391 1014 384 1023.5 c 128,-1,40
 377 1033 377 1033 373 1044.5 c 128,-1,41
 369 1056 369 1056 369 1066 c 0,42,43
 369 1102 369 1102 400.5 1125.5 c 128,-1,44
 432 1149 432 1149 477.5 1163 c 128,-1,45
 523 1177 523 1177 574 1182.5 c 128,-1,46
 625 1188 625 1188 665 1188 c 0,47,48
 734 1188 734 1188 784.5 1175 c 128,-1,49
 835 1162 835 1162 868 1130 c 128,-1,50
 901 1098 901 1098 917 1042 c 128,-1,51
 933 986 933 986 933 901 c 2,52,-1
 933 590 l 2,0,1
596 545 m 0,53,54
 709 545 709 545 810 625 c 1,55,-1
 810 804 l 1,56,57
 726 796 726 796 677 790 c 128,-1,58
 628 784 628 784 599.5 777.5 c 128,-1,59
 571 771 571 771 556 764 c 128,-1,60
 541 757 541 757 524 747 c 0,61,62
 464 712 464 712 464 648 c 0,63,64
 464 600 464 600 497 572.5 c 128,-1,65
 530 545 530 545 596 545 c 0,53,54
EndSplineSet
EndChar

StartChar: guillemotleft
Encoding: 171 171 115
Width: 1573
GlyphClass: 2
Flags: W
LayerCount: 2
Fore
SplineSet
706 273 m 1,0,-1
 143 676 l 1,1,2
 77 716 77 716 77 748 c 256,3,4
 77 780 77 780 95.5 799 c 128,-1,5
 114 818 114 818 143 837 c 1,6,-1
 693 1240 l 1,7,8
 731 1259 731 1259 770 1259 c 0,9,10
 808 1259 808 1259 831 1234.5 c 128,-1,11
 854 1210 854 1210 854 1178 c 0,12,13
 854 1109 854 1109 780 1064 c 1,14,-1
 371 751 l 1,15,-1
 782 440 l 1,16,17
 864 389 864 389 864 323 c 0,18,19
 864 291 864 291 841 272.5 c 128,-1,20
 818 254 818 254 782 254 c 0,21,22
 745 254 745 254 706 273 c 1,0,-1
1336 273 m 1,23,-1
 773 676 l 1,24,25
 707 716 707 716 707 748 c 256,26,27
 707 780 707 780 725.5 799 c 128,-1,28
 744 818 744 818 773 837 c 1,29,-1
 1323 1240 l 1,30,31
 1361 1259 1361 1259 1400 1259 c 0,32,33
 1438 1259 1438 1259 1461 1234.5 c 128,-1,34
 1484 1210 1484 1210 1484 1178 c 0,35,36
 1484 1109 1484 1109 1410 1064 c 1,37,-1
 1001 751 l 1,38,-1
 1412 440 l 1,39,40
 1494 389 1494 389 1494 323 c 0,41,42
 1494 291 1494 291 1471 272.5 c 128,-1,43
 1448 254 1448 254 1412 254 c 0,44,45
 1375 254 1375 254 1336 273 c 1,23,-1
EndSplineSet
EndChar

StartChar: logicalnot
Encoding: 172 172 116
Width: 1291
GlyphClass: 2
Flags: W
LayerCount: 2
Fore
SplineSet
171 715 m 0,0,1
 171 742 171 742 181.5 761 c 128,-1,2
 192 780 192 780 207 792.5 c 128,-1,3
 222 805 222 805 240 811 c 128,-1,4
 258 817 258 817 273 817 c 2,5,-1
 1015 817 l 2,6,7
 1042 817 1042 817 1061 806.5 c 128,-1,8
 1080 796 1080 796 1092.5 780.5 c 128,-1,9
 1105 765 1105 765 1111 747.5 c 128,-1,10
 1117 730 1117 730 1117 715 c 2,11,-1
 1117 409 l 2,12,13
 1117 385 1117 385 1108.5 368.5 c 128,-1,14
 1100 352 1100 352 1088 342 c 128,-1,15
 1076 332 1076 332 1062 328 c 128,-1,16
 1048 324 1048 324 1038 324 c 0,17,18
 1026 324 1026 324 1012.5 328.5 c 128,-1,19
 999 333 999 333 987.5 343 c 128,-1,20
 976 353 976 353 968.5 368 c 128,-1,21
 961 383 961 383 961 403 c 2,22,-1
 961 612 l 1,23,-1
 273 612 l 2,24,25
 253 612 253 612 235 618.5 c 128,-1,26
 217 625 217 625 202.5 638 c 128,-1,27
 188 651 188 651 179.5 670.5 c 128,-1,28
 171 690 171 690 171 715 c 0,0,1
EndSplineSet
EndChar

StartChar: uni00AD
Encoding: 173 173 117
Width: 1293
GlyphClass: 2
Flags: W
LayerCount: 2
Fore
SplineSet
174 715 m 0,0,1
 174 742 174 742 184.5 761 c 128,-1,2
 195 780 195 780 210 792.5 c 128,-1,3
 225 805 225 805 243 811 c 128,-1,4
 261 817 261 817 276 817 c 2,5,-1
 1018 817 l 2,6,7
 1045 817 1045 817 1064 806.5 c 128,-1,8
 1083 796 1083 796 1095.5 780.5 c 128,-1,9
 1108 765 1108 765 1114 747.5 c 128,-1,10
 1120 730 1120 730 1120 715 c 0,11,12
 1120 688 1120 688 1110 669 c 128,-1,13
 1100 650 1100 650 1085 637 c 128,-1,14
 1070 624 1070 624 1052 618 c 128,-1,15
 1034 612 1034 612 1018 612 c 2,16,-1
 276 612 l 2,17,18
 256 612 256 612 238 618.5 c 128,-1,19
 220 625 220 625 205.5 638 c 128,-1,20
 191 651 191 651 182.5 670.5 c 128,-1,21
 174 690 174 690 174 715 c 0,0,1
EndSplineSet
EndChar

StartChar: registered
Encoding: 174 174 118
Width: 2133
GlyphClass: 2
Flags: W
LayerCount: 2
Fore
SplineSet
918 986 m 2,0,1
 1019 986 1019 986 1080.5 989.5 c 128,-1,2
 1142 993 1142 993 1178.5 1000.5 c 128,-1,3
 1215 1008 1215 1008 1235 1020 c 128,-1,4
 1255 1032 1255 1032 1272 1048 c 0,5,6
 1304 1077 1304 1077 1304 1138 c 0,7,8
 1304 1198 1304 1198 1272 1233.5 c 128,-1,9
 1240 1269 1240 1269 1186 1286 c 0,10,11
 1117 1307 1117 1307 933 1307 c 2,12,-1
 855 1307 l 1,13,-1
 855 986 l 1,14,-1
 918 986 l 2,0,1
636 1307 m 2,15,16
 588 1307 588 1307 588 1369 c 0,17,18
 588 1391 588 1391 601 1408 c 128,-1,19
 614 1425 614 1425 637 1425 c 2,20,-1
 954 1425 l 2,21,22
 1087 1425 1087 1425 1183 1407.5 c 128,-1,23
 1279 1390 1279 1390 1341.5 1354.5 c 128,-1,24
 1404 1319 1404 1319 1434 1264.5 c 128,-1,25
 1464 1210 1464 1210 1464 1135 c 0,26,27
 1464 1079 1464 1079 1445 1037.5 c 128,-1,28
 1426 996 1426 996 1387.5 966.5 c 128,-1,29
 1349 937 1349 937 1292 917.5 c 128,-1,30
 1235 898 1235 898 1160 886 c 1,31,-1
 1408 478 l 1,32,-1
 1496 478 l 2,33,34
 1538 478 1538 478 1553.5 464.5 c 128,-1,35
 1569 451 1569 451 1569 424 c 0,36,37
 1569 401 1569 401 1564 388 c 128,-1,38
 1559 375 1559 375 1550 368.5 c 128,-1,39
 1541 362 1541 362 1528 360.5 c 128,-1,40
 1515 359 1515 359 1498 359 c 2,41,-1
 1186 360 l 2,42,43
 1163 360 1163 360 1150 377 c 128,-1,44
 1137 394 1137 394 1137 416 c 0,45,46
 1137 478 1137 478 1185 478 c 2,47,-1
 1248 478 l 1,48,-1
 1027 867 l 1,49,-1
 855 867 l 1,50,-1
 855 478 l 1,51,-1
 972 478 l 2,52,53
 1020 478 1020 478 1020 416 c 0,54,55
 1020 394 1020 394 1006.5 377 c 128,-1,56
 993 360 993 360 970 360 c 2,57,-1
 610 360 l 2,58,59
 587 360 587 360 573.5 377 c 128,-1,60
 560 394 560 394 560 416 c 0,61,62
 560 478 560 478 608 478 c 2,63,-1
 698 478 l 1,64,-1
 698 1307 l 1,65,-1
 636 1307 l 2,15,16
337 860 m 0,66,67
 337 754 337 754 362 657.5 c 128,-1,68
 387 561 387 561 433.5 477 c 128,-1,69
 480 393 480 393 545.5 324.5 c 128,-1,70
 611 256 611 256 692 207.5 c 128,-1,71
 773 159 773 159 867.5 132.5 c 128,-1,72
 962 106 962 106 1066 106 c 0,73,74
 1165 106 1165 106 1257.5 131.5 c 128,-1,75
 1350 157 1350 157 1431 204 c 128,-1,76
 1512 251 1512 251 1579 318 c 128,-1,77
 1646 385 1646 385 1694 469 c 128,-1,78
 1742 553 1742 553 1768.5 651.5 c 128,-1,79
 1795 750 1795 750 1795 860 c 0,80,81
 1795 958 1795 958 1772 1052 c 128,-1,82
 1749 1146 1749 1146 1705.5 1230 c 128,-1,83
 1662 1314 1662 1314 1598.5 1384.5 c 128,-1,84
 1535 1455 1535 1455 1454 1506 c 128,-1,85
 1373 1557 1373 1557 1275.5 1585.5 c 128,-1,86
 1178 1614 1178 1614 1066 1614 c 0,87,88
 917 1614 917 1614 784.5 1558 c 128,-1,89
 652 1502 652 1502 552.5 1402 c 128,-1,90
 453 1302 453 1302 395 1163.5 c 128,-1,91
 337 1025 337 1025 337 860 c 0,66,67
167 860 m 0,92,93
 167 986 167 986 199 1101 c 128,-1,94
 231 1216 231 1216 289 1316 c 128,-1,95
 347 1416 347 1416 429 1497 c 128,-1,96
 511 1578 511 1578 611 1636 c 128,-1,97
 711 1694 711 1694 826 1725.5 c 128,-1,98
 941 1757 941 1757 1066 1757 c 0,99,100
 1186 1757 1186 1757 1299.5 1726.5 c 128,-1,101
 1413 1696 1413 1696 1512.5 1639.5 c 128,-1,102
 1612 1583 1612 1583 1695.5 1502.5 c 128,-1,103
 1779 1422 1779 1422 1838.5 1322.5 c 128,-1,104
 1898 1223 1898 1223 1931.5 1106 c 128,-1,105
 1965 989 1965 989 1965 860 c 0,106,107
 1965 740 1965 740 1934.5 627 c 128,-1,108
 1904 514 1904 514 1847.5 414.5 c 128,-1,109
 1791 315 1791 315 1710.5 232 c 128,-1,110
 1630 149 1630 149 1530 89 c 128,-1,111
 1430 29 1430 29 1313 -4 c 128,-1,112
 1196 -37 1196 -37 1066 -37 c 0,113,114
 946 -37 946 -37 832.5 -6.5 c 128,-1,115
 719 24 719 24 619.5 80.5 c 128,-1,116
 520 137 520 137 436.5 217 c 128,-1,117
 353 297 353 297 293.5 396.5 c 128,-1,118
 234 496 234 496 200.5 613 c 128,-1,119
 167 730 167 730 167 860 c 0,92,93
EndSplineSet
EndChar

StartChar: macron
Encoding: 175 175 119
Width: 958
GlyphClass: 2
Flags: W
LayerCount: 2
Fore
SplineSet
782 966 m 2,0,-1
 252 966 l 2,1,2
 228 966 228 966 212 974 c 128,-1,3
 196 982 196 982 187 994.5 c 128,-1,4
 178 1007 178 1007 174 1021.5 c 128,-1,5
 170 1036 170 1036 170 1048 c 0,6,7
 170 1077 170 1077 190 1099.5 c 128,-1,8
 210 1122 210 1122 246 1122 c 2,9,-1
 784 1122 l 2,10,11
 802 1122 802 1122 815.5 1115 c 128,-1,12
 829 1108 829 1108 838 1097.5 c 128,-1,13
 847 1087 847 1087 851.5 1075 c 128,-1,14
 856 1063 856 1063 856 1052 c 0,15,16
 856 1007 856 1007 834 986.5 c 128,-1,17
 812 966 812 966 782 966 c 2,0,-1
EndSplineSet
EndChar

StartChar: degree
Encoding: 176 176 120
Width: 1195
GlyphClass: 2
Flags: W
LayerCount: 2
Fore
SplineSet
602 1642 m 0,0,1
 692 1642 692 1642 760 1612 c 128,-1,2
 828 1582 828 1582 873.5 1531.5 c 128,-1,3
 919 1481 919 1481 942 1415.5 c 128,-1,4
 965 1350 965 1350 965 1278 c 0,5,6
 965 1201 965 1201 938 1134 c 128,-1,7
 911 1067 911 1067 862 1017.5 c 128,-1,8
 813 968 813 968 745 940 c 128,-1,9
 677 912 677 912 596 912 c 0,10,11
 516 912 516 912 449 938.5 c 128,-1,12
 382 965 382 965 333.5 1013 c 128,-1,13
 285 1061 285 1061 257.5 1127 c 128,-1,14
 230 1193 230 1193 230 1271 c 0,15,16
 230 1350 230 1350 257.5 1418 c 128,-1,17
 285 1486 285 1486 334.5 1535.5 c 128,-1,18
 384 1585 384 1585 452.5 1613.5 c 128,-1,19
 521 1642 521 1642 602 1642 c 0,0,1
608 1052 m 0,20,21
 654 1052 654 1052 691 1067.5 c 128,-1,22
 728 1083 728 1083 754.5 1112 c 128,-1,23
 781 1141 781 1141 795.5 1182 c 128,-1,24
 810 1223 810 1223 810 1274 c 0,25,26
 810 1323 810 1323 796.5 1364.5 c 128,-1,27
 783 1406 783 1406 757 1436 c 128,-1,28
 731 1466 731 1466 691.5 1483 c 128,-1,29
 652 1500 652 1500 601 1500 c 0,30,31
 549 1500 549 1500 510 1481.5 c 128,-1,32
 471 1463 471 1463 445.5 1432 c 128,-1,33
 420 1401 420 1401 407 1360 c 128,-1,34
 394 1319 394 1319 394 1274 c 0,35,36
 394 1226 394 1226 409.5 1185.5 c 128,-1,37
 425 1145 425 1145 453.5 1115 c 128,-1,38
 482 1085 482 1085 521 1068.5 c 128,-1,39
 560 1052 560 1052 608 1052 c 0,20,21
EndSplineSet
EndChar

StartChar: plusminus
Encoding: 177 177 121
Width: 1238
GlyphClass: 2
Flags: W
LayerCount: 2
Fore
SplineSet
257 78 m 256,0,1
 257 110 257 110 279.5 132.5 c 128,-1,2
 302 155 302 155 334 155 c 2,3,-1
 898 155 l 2,4,5
 930 155 930 155 952.5 132.5 c 128,-1,6
 975 110 975 110 975 78 c 256,7,8
 975 46 975 46 952.5 23 c 128,-1,9
 930 0 930 0 898 0 c 2,10,-1
 334 0 l 2,11,12
 302 0 302 0 279.5 23 c 128,-1,13
 257 46 257 46 257 78 c 256,0,1
1073 847 m 2,14,15
 1104 847 1104 847 1125 826 c 128,-1,16
 1146 805 1146 805 1146 774 c 256,17,18
 1146 743 1146 743 1125 721.5 c 128,-1,19
 1104 700 1104 700 1073 700 c 2,20,-1
 699 700 l 1,21,-1
 699 377 l 2,22,23
 699 344 699 344 676 321 c 128,-1,24
 653 298 653 298 620 298 c 256,25,26
 587 298 587 298 564 321 c 128,-1,27
 541 344 541 344 541 377 c 2,28,-1
 541 700 l 1,29,-1
 165 700 l 2,30,31
 134 700 134 700 113 721.5 c 128,-1,32
 92 743 92 743 92 774 c 256,33,34
 92 805 92 805 113 826 c 128,-1,35
 134 847 134 847 165 847 c 2,36,-1
 541 847 l 1,37,-1
 541 1177 l 2,38,39
 541 1210 541 1210 564 1233 c 128,-1,40
 587 1256 587 1256 620 1256 c 256,41,42
 653 1256 653 1256 676 1233 c 128,-1,43
 699 1210 699 1210 699 1177 c 2,44,-1
 699 847 l 1,45,-1
 1073 847 l 2,14,15
EndSplineSet
EndChar

StartChar: acute
Encoding: 180 180 122
Width: 633
GlyphClass: 2
Flags: W
LayerCount: 2
Fore
SplineSet
458 1840 m 0,0,1
 492 1870 492 1870 512 1870 c 0,2,3
 533 1870 533 1870 549.5 1861.5 c 128,-1,4
 566 1853 566 1853 577.5 1840.5 c 128,-1,5
 589 1828 589 1828 595 1813.5 c 128,-1,6
 601 1799 601 1799 601 1787 c 0,7,8
 601 1773 601 1773 595 1761 c 128,-1,9
 589 1749 589 1749 575 1741 c 2,10,-1
 328 1585 l 2,11,12
 77 1427 77 1427 58 1427 c 0,13,14
 38 1427 38 1427 23.5 1443.5 c 128,-1,15
 9 1460 9 1460 9 1479 c 256,16,17
 9 1498 9 1498 26 1509 c 0,18,19
 138 1584 138 1584 245.5 1666 c 128,-1,20
 353 1748 353 1748 458 1840 c 0,0,1
EndSplineSet
EndChar

StartChar: paragraph
Encoding: 182 182 123
Width: 1780
GlyphClass: 2
Flags: W
LayerCount: 2
Fore
SplineSet
995 176 m 1,0,-1
 1154 176 l 1,1,-1
 1154 1538 l 1,2,-1
 995 1538 l 1,3,-1
 995 176 l 1,0,-1
384 84 m 0,4,5
 384 176 384 176 456 176 c 2,6,-1
 761 176 l 1,7,-1
 761 725 l 1,8,9
 608 725 608 725 482.5 762.5 c 128,-1,10
 357 800 357 800 267.5 867.5 c 128,-1,11
 178 935 178 935 129 1028 c 128,-1,12
 80 1121 80 1121 80 1232 c 0,13,14
 80 1335 80 1335 127 1423 c 128,-1,15
 174 1511 174 1511 257.5 1575.5 c 128,-1,16
 341 1640 341 1640 456 1677 c 128,-1,17
 571 1714 571 1714 708 1714 c 2,18,-1
 1367 1714 l 1,19,-1
 1367 176 l 1,20,-1
 1635 176 l 2,21,22
 1707 176 1707 176 1707 84 c 0,23,24
 1707 51 1707 51 1687.5 25.5 c 128,-1,25
 1668 0 1668 0 1633 0 c 2,26,-1
 458 0 l 2,27,28
 423 0 423 0 403.5 25.5 c 128,-1,29
 384 51 384 51 384 84 c 0,4,5
EndSplineSet
EndChar

StartChar: periodcentered
Encoding: 183 183 124
Width: 477
GlyphClass: 2
Flags: W
LayerCount: 2
Fore
SplineSet
232 711 m 0,0,1
 185 711 185 711 146.5 727.5 c 128,-1,2
 108 744 108 744 80 773 c 128,-1,3
 52 802 52 802 37 840 c 128,-1,4
 22 878 22 878 22 922 c 0,5,6
 22 967 22 967 38 1006 c 128,-1,7
 54 1045 54 1045 82 1073 c 128,-1,8
 110 1101 110 1101 149 1117 c 128,-1,9
 188 1133 188 1133 233 1133 c 256,10,11
 278 1133 278 1133 317 1117 c 128,-1,12
 356 1101 356 1101 384 1073 c 128,-1,13
 412 1045 412 1045 428 1006 c 128,-1,14
 444 967 444 967 444 922 c 0,15,16
 444 876 444 876 428 837.5 c 128,-1,17
 412 799 412 799 383.5 771 c 128,-1,18
 355 743 355 743 316 727 c 128,-1,19
 277 711 277 711 232 711 c 0,0,1
EndSplineSet
EndChar

StartChar: cedilla
Encoding: 184 184 125
Width: 354
GlyphClass: 2
Flags: W
LayerCount: 2
Fore
SplineSet
264 0 m 1,0,-1
 204 -501 l 1,1,2
 201 -539 201 -539 189.5 -571 c 128,-1,3
 178 -603 178 -603 159 -626 c 128,-1,4
 140 -649 140 -649 115.5 -662 c 128,-1,5
 91 -675 91 -675 62 -675 c 0,6,7
 40 -675 40 -675 20 -666.5 c 128,-1,8
 0 -658 0 -658 -15.5 -641.5 c 128,-1,9
 -31 -625 -31 -625 -40.5 -601.5 c 128,-1,10
 -50 -578 -50 -578 -50 -548 c 0,11,12
 -50 -529 -50 -529 -38.5 -485.5 c 128,-1,13
 -27 -442 -27 -442 -9.5 -386 c 128,-1,14
 8 -330 8 -330 30 -268.5 c 128,-1,15
 52 -207 52 -207 72.5 -152.5 c 128,-1,16
 93 -98 93 -98 110 -56.5 c 128,-1,17
 127 -15 127 -15 136 0 c 1,18,-1
 264 0 l 1,0,-1
EndSplineSet
EndChar

StartChar: ordmasculine
Encoding: 186 186 126
Width: 1363
GlyphClass: 2
Flags: W
LayerCount: 2
Fore
SplineSet
754 1075 m 0,0,1
 692 1075 692 1075 643 1054 c 128,-1,2
 594 1033 594 1033 560.5 995 c 128,-1,3
 527 957 527 957 509 904 c 128,-1,4
 491 851 491 851 491 787 c 256,5,6
 491 723 491 723 508 669.5 c 128,-1,7
 525 616 525 616 558 578 c 128,-1,8
 591 540 591 540 640 518.5 c 128,-1,9
 689 497 689 497 754 497 c 0,10,11
 817 497 817 497 865 519 c 128,-1,12
 913 541 913 541 945.5 580 c 128,-1,13
 978 619 978 619 995 672 c 128,-1,14
 1012 725 1012 725 1012 787 c 0,15,16
 1012 851 1012 851 994.5 904.5 c 128,-1,17
 977 958 977 958 944 995.5 c 128,-1,18
 911 1033 911 1033 863 1054 c 128,-1,19
 815 1075 815 1075 754 1075 c 0,0,1
754 384 m 0,20,21
 661 384 661 384 585.5 413.5 c 128,-1,22
 510 443 510 443 456 496 c 128,-1,23
 402 549 402 549 373 623 c 128,-1,24
 344 697 344 697 344 787 c 0,25,26
 344 878 344 878 373.5 952 c 128,-1,27
 403 1026 403 1026 457 1078.5 c 128,-1,28
 511 1131 511 1131 586.5 1159.5 c 128,-1,29
 662 1188 662 1188 755 1188 c 0,30,31
 845 1188 845 1188 919 1159 c 128,-1,32
 993 1130 993 1130 1046.5 1077.5 c 128,-1,33
 1100 1025 1100 1025 1129 951 c 128,-1,34
 1158 877 1158 877 1158 787 c 0,35,36
 1158 695 1158 695 1128.5 620.5 c 128,-1,37
 1099 546 1099 546 1046 493.5 c 128,-1,38
 993 441 993 441 918.5 412.5 c 128,-1,39
 844 384 844 384 754 384 c 0,20,21
EndSplineSet
EndChar

StartChar: guillemotright
Encoding: 187 187 127
Width: 1572
GlyphClass: 2
Flags: W
LayerCount: 2
Fore
SplineSet
868 273 m 1,0,1
 827 254 827 254 792 254 c 0,2,3
 754 254 754 254 732.5 273 c 128,-1,4
 711 292 711 292 711 324 c 0,5,6
 711 390 711 390 792 440 c 1,7,-1
 1204 751 l 1,8,-1
 794 1064 l 1,9,10
 756 1087 756 1087 738 1115 c 128,-1,11
 720 1143 720 1143 720 1177 c 0,12,13
 720 1215 720 1215 746 1237 c 128,-1,14
 772 1259 772 1259 810 1259 c 0,15,16
 845 1259 845 1259 882 1240 c 1,17,-1
 1432 837 l 1,18,19
 1498 793 1498 793 1498 762 c 256,20,21
 1498 731 1498 731 1479.5 712.5 c 128,-1,22
 1461 694 1461 694 1432 676 c 1,23,-1
 868 273 l 1,0,1
238 273 m 1,24,25
 197 254 197 254 162 254 c 0,26,27
 124 254 124 254 102.5 273 c 128,-1,28
 81 292 81 292 81 324 c 0,29,30
 81 390 81 390 162 440 c 1,31,-1
 574 751 l 1,32,-1
 164 1064 l 1,33,34
 126 1087 126 1087 108 1115 c 128,-1,35
 90 1143 90 1143 90 1177 c 0,36,37
 90 1215 90 1215 116 1237 c 128,-1,38
 142 1259 142 1259 180 1259 c 0,39,40
 215 1259 215 1259 252 1240 c 1,41,-1
 802 837 l 1,42,43
 868 793 868 793 868 762 c 256,44,45
 868 731 868 731 849.5 712.5 c 128,-1,46
 831 694 831 694 802 676 c 1,47,-1
 238 273 l 1,24,25
EndSplineSet
EndChar

StartChar: onequarter
Encoding: 188 188 128
Width: 2236
GlyphClass: 2
Flags: W
LayerCount: 2
Fore
SplineSet
1784 987 m 1,0,-1
 1378 491 l 1,1,-1
 1784 491 l 1,2,-1
 1784 987 l 1,0,-1
2072 124 m 2,3,4
 2121 124 2121 124 2121 62 c 0,5,6
 2121 39 2121 39 2107.5 20.5 c 128,-1,7
 2094 2 2094 2 2070 2 c 2,8,-1
 1588 2 l 2,9,10
 1564 2 1564 2 1550.5 20.5 c 128,-1,11
 1537 39 1537 39 1537 62 c 0,12,13
 1537 124 1537 124 1587 124 c 2,14,-1
 1784 124 l 1,15,-1
 1784 382 l 1,16,-1
 1261 382 l 1,17,-1
 1256 382 l 2,18,19
 1237 382 1237 382 1226.5 399.5 c 128,-1,20
 1216 417 1216 417 1216 438 c 0,21,22
 1216 463 1216 463 1231 481 c 0,23,24
 1326 597 1326 597 1423.5 717 c 128,-1,25
 1521 837 1521 837 1624 963 c 0,26,27
 1683 1034 1683 1034 1721.5 1081.5 c 128,-1,28
 1760 1129 1760 1129 1784 1157.5 c 128,-1,29
 1808 1186 1808 1186 1821 1200 c 128,-1,30
 1834 1214 1834 1214 1840.5 1219 c 128,-1,31
 1847 1224 1847 1224 1851 1223.5 c 128,-1,32
 1855 1223 1855 1223 1862 1223 c 256,33,34
 1869 1223 1869 1223 1879 1218 c 128,-1,35
 1889 1213 1889 1213 1897 1204.5 c 128,-1,36
 1905 1196 1905 1196 1911 1185 c 128,-1,37
 1917 1174 1917 1174 1917 1163 c 2,38,-1
 1917 491 l 1,39,-1
 2118 491 l 2,40,41
 2162 491 2162 491 2162 434 c 0,42,43
 2162 414 2162 414 2150 398 c 128,-1,44
 2138 382 2138 382 2116 382 c 2,45,-1
 1917 382 l 1,46,-1
 1917 124 l 1,47,-1
 2072 124 l 2,3,4
132 480 m 2,48,49
 75 480 75 480 75 541 c 0,50,51
 75 603 75 603 128 603 c 2,52,-1
 300 603 l 1,53,-1
 300 1580 l 1,54,-1
 182 1570 l 1,55,56
 123 1570 123 1570 123 1634 c 0,57,58
 123 1690 123 1690 170 1695 c 2,59,-1
 407 1716 l 1,60,61
 432 1716 432 1716 443.5 1707.5 c 128,-1,62
 455 1699 455 1699 455 1669 c 2,63,-1
 455 603 l 1,64,-1
 580 603 l 2,65,66
 631 603 631 603 631 539 c 0,67,68
 631 516 631 516 617 498 c 128,-1,69
 603 480 603 480 579 480 c 2,70,-1
 132 480 l 2,48,49
625 -61 m 1,71,72
 601 -94 601 -94 570 -94 c 0,73,74
 551 -94 551 -94 536 -87 c 128,-1,75
 521 -80 521 -80 511 -68.5 c 128,-1,76
 501 -57 501 -57 496 -43 c 128,-1,77
 491 -29 491 -29 491 -15 c 0,78,79
 491 -2 491 -2 499 9 c 1,80,-1
 1575 1757 l 2,81,82
 1590 1783 1590 1783 1615 1783 c 0,83,84
 1639 1783 1639 1783 1655 1775 c 128,-1,85
 1671 1767 1671 1767 1681.5 1756 c 128,-1,86
 1692 1745 1692 1745 1696.5 1734.5 c 128,-1,87
 1701 1724 1701 1724 1701 1718 c 0,88,89
 1701 1697 1701 1697 1694 1684 c 2,90,-1
 625 -61 l 1,71,72
EndSplineSet
EndChar

StartChar: onehalf
Encoding: 189 189 129
Width: 2342
GlyphClass: 2
Flags: W
LayerCount: 2
Fore
SplineSet
131 480 m 2,0,1
 74 480 74 480 74 541 c 0,2,3
 74 603 74 603 127 603 c 2,4,-1
 299 603 l 1,5,-1
 299 1580 l 1,6,-1
 181 1570 l 1,7,8
 122 1570 122 1570 122 1634 c 0,9,10
 122 1690 122 1690 169 1695 c 2,11,-1
 406 1716 l 1,12,13
 431 1716 431 1716 442.5 1707.5 c 128,-1,14
 454 1699 454 1699 454 1669 c 2,15,-1
 454 603 l 1,16,-1
 579 603 l 2,17,18
 630 603 630 603 630 539 c 0,19,20
 630 516 630 516 616 498 c 128,-1,21
 602 480 602 480 578 480 c 2,22,-1
 131 480 l 2,0,1
624 -61 m 1,23,24
 600 -94 600 -94 570 -94 c 0,25,26
 551 -94 551 -94 536.5 -87 c 128,-1,27
 522 -80 522 -80 511.5 -68.5 c 128,-1,28
 501 -57 501 -57 495.5 -43 c 128,-1,29
 490 -29 490 -29 490 -15 c 0,30,31
 490 -2 490 -2 498 9 c 1,32,-1
 1574 1757 l 2,33,34
 1589 1783 1589 1783 1614 1783 c 0,35,36
 1637 1783 1637 1783 1653 1775 c 128,-1,37
 1669 1767 1669 1767 1679.5 1756.5 c 128,-1,38
 1690 1746 1690 1746 1695 1735 c 128,-1,39
 1700 1724 1700 1724 1700 1718 c 0,40,41
 1700 1697 1700 1697 1693 1684 c 2,42,-1
 624 -61 l 1,23,24
1737 326 m 0,43,44
 1650 231 1650 231 1633 139 c 1,45,-1
 2082 139 l 1,46,-1
 2144 281 l 1,47,48
 2162 334 2162 334 2214 334 c 0,49,50
 2237 334 2237 334 2251.5 320 c 128,-1,51
 2266 306 2266 306 2266 290 c 0,52,53
 2266 275 2266 275 2264.5 269 c 128,-1,54
 2263 263 2263 263 2262 256 c 2,55,-1
 2217 56 l 1,56,57
 2202 2 2202 2 2160 2 c 2,58,-1
 1487 2 l 1,59,-1
 1481 102 l 1,60,61
 1481 143 1481 143 1489.5 179 c 128,-1,62
 1498 215 1498 215 1512.5 247.5 c 128,-1,63
 1527 280 1527 280 1546.5 309.5 c 128,-1,64
 1566 339 1566 339 1589 368 c 0,65,66
 1623 410 1623 410 1663 454.5 c 128,-1,67
 1703 499 1703 499 1745 544 c 128,-1,68
 1787 589 1787 589 1828 634.5 c 128,-1,69
 1869 680 1869 680 1904 724 c 0,70,71
 2009 856 2009 856 2009 941 c 0,72,73
 2009 970 2009 970 1993.5 993.5 c 128,-1,74
 1978 1017 1978 1017 1952.5 1033.5 c 128,-1,75
 1927 1050 1927 1050 1895 1058.5 c 128,-1,76
 1863 1067 1863 1067 1829 1067 c 0,77,78
 1777 1067 1777 1067 1744 1062 c 128,-1,79
 1711 1057 1711 1057 1688 1049 c 128,-1,80
 1665 1041 1665 1041 1648.5 1029.5 c 128,-1,81
 1632 1018 1632 1018 1614 1005 c 0,82,83
 1596 991 1596 991 1581 985.5 c 128,-1,84
 1566 980 1566 980 1552 980 c 0,85,86
 1529 980 1529 980 1510 996.5 c 128,-1,87
 1491 1013 1491 1013 1491 1038 c 0,88,89
 1491 1059 1491 1059 1505 1078.5 c 128,-1,90
 1519 1098 1519 1098 1541.5 1115.5 c 128,-1,91
 1564 1133 1564 1133 1591.5 1147.5 c 128,-1,92
 1619 1162 1619 1162 1646 1172 c 0,93,94
 1694 1189 1694 1189 1738.5 1196.5 c 128,-1,95
 1783 1204 1783 1204 1825 1204 c 0,96,97
 1893 1204 1893 1204 1956 1189.5 c 128,-1,98
 2019 1175 2019 1175 2068 1144 c 128,-1,99
 2117 1113 2117 1113 2146 1063.5 c 128,-1,100
 2175 1014 2175 1014 2175 945 c 0,101,102
 2175 874 2175 874 2153.5 812.5 c 128,-1,103
 2132 751 2132 751 2096.5 696.5 c 128,-1,104
 2061 642 2061 642 2015.5 593.5 c 128,-1,105
 1970 545 1970 545 1921.5 499.5 c 128,-1,106
 1873 454 1873 454 1825 411.5 c 128,-1,107
 1777 369 1777 369 1737 326 c 0,43,44
EndSplineSet
EndChar

StartChar: threequarters
Encoding: 190 190 130
Width: 2316
GlyphClass: 2
Flags: W
LayerCount: 2
Fore
SplineSet
1864 987 m 1,0,-1
 1458 491 l 1,1,-1
 1864 491 l 1,2,-1
 1864 987 l 1,0,-1
2152 124 m 2,3,4
 2201 124 2201 124 2201 62 c 0,5,6
 2201 39 2201 39 2187.5 20.5 c 128,-1,7
 2174 2 2174 2 2150 2 c 2,8,-1
 1668 2 l 2,9,10
 1644 2 1644 2 1630.5 20.5 c 128,-1,11
 1617 39 1617 39 1617 62 c 0,12,13
 1617 124 1617 124 1667 124 c 2,14,-1
 1864 124 l 1,15,-1
 1864 382 l 1,16,-1
 1341 382 l 1,17,-1
 1336 382 l 2,18,19
 1317 382 1317 382 1306.5 399.5 c 128,-1,20
 1296 417 1296 417 1296 438 c 0,21,22
 1296 463 1296 463 1311 481 c 0,23,24
 1406 597 1406 597 1503.5 717 c 128,-1,25
 1601 837 1601 837 1704 963 c 0,26,27
 1763 1034 1763 1034 1801.5 1081.5 c 128,-1,28
 1840 1129 1840 1129 1864 1157.5 c 128,-1,29
 1888 1186 1888 1186 1901 1200 c 128,-1,30
 1914 1214 1914 1214 1920.5 1219 c 128,-1,31
 1927 1224 1927 1224 1931 1223.5 c 128,-1,32
 1935 1223 1935 1223 1942 1223 c 256,33,34
 1949 1223 1949 1223 1959 1218 c 128,-1,35
 1969 1213 1969 1213 1977 1204.5 c 128,-1,36
 1985 1196 1985 1196 1991 1185 c 128,-1,37
 1997 1174 1997 1174 1997 1163 c 2,38,-1
 1997 491 l 1,39,-1
 2198 491 l 2,40,41
 2242 491 2242 491 2242 434 c 0,42,43
 2242 414 2242 414 2230 398 c 128,-1,44
 2218 382 2218 382 2196 382 c 2,45,-1
 1997 382 l 1,46,-1
 1997 124 l 1,47,-1
 2152 124 l 2,3,4
705 -61 m 1,48,49
 681 -94 681 -94 650 -94 c 0,50,51
 631 -94 631 -94 616 -87 c 128,-1,52
 601 -80 601 -80 591 -68.5 c 128,-1,53
 581 -57 581 -57 576 -43 c 128,-1,54
 571 -29 571 -29 571 -15 c 0,55,56
 571 -2 571 -2 579 9 c 1,57,-1
 1655 1757 l 2,58,59
 1670 1783 1670 1783 1695 1783 c 0,60,61
 1719 1783 1719 1783 1735 1775 c 128,-1,62
 1751 1767 1751 1767 1761.5 1756 c 128,-1,63
 1772 1745 1772 1745 1776.5 1734.5 c 128,-1,64
 1781 1724 1781 1724 1781 1718 c 0,65,66
 1781 1697 1781 1697 1774 1684 c 2,67,-1
 705 -61 l 1,48,49
458 1125 m 1,68,-1
 367 1116 l 1,69,70
 341 1116 341 1116 323.5 1133 c 128,-1,71
 306 1150 306 1150 306 1172 c 0,72,73
 306 1196 306 1196 334 1218 c 128,-1,74
 362 1240 362 1240 401 1262.5 c 128,-1,75
 440 1285 440 1285 482 1309.5 c 128,-1,76
 524 1334 524 1334 553 1363 c 0,77,78
 607 1417 607 1417 607 1480 c 0,79,80
 607 1507 607 1507 595.5 1531.5 c 128,-1,81
 584 1556 584 1556 565.5 1574 c 128,-1,82
 547 1592 547 1592 522.5 1602.5 c 128,-1,83
 498 1613 498 1613 473 1613 c 0,84,85
 413 1613 413 1613 371 1597 c 128,-1,86
 329 1581 329 1581 297.5 1562 c 128,-1,87
 266 1543 266 1543 241.5 1527 c 128,-1,88
 217 1511 217 1511 190 1511 c 0,89,90
 167 1511 167 1511 153 1525.5 c 128,-1,91
 139 1540 139 1540 139 1562 c 0,92,93
 139 1588 139 1588 156.5 1611.5 c 128,-1,94
 174 1635 174 1635 202 1654.5 c 128,-1,95
 230 1674 230 1674 266 1689.5 c 128,-1,96
 302 1705 302 1705 339 1716 c 128,-1,97
 376 1727 376 1727 410.5 1732.5 c 128,-1,98
 445 1738 445 1738 471 1738 c 0,99,100
 531 1738 531 1738 581.5 1720.5 c 128,-1,101
 632 1703 632 1703 669 1671.5 c 128,-1,102
 706 1640 706 1640 726.5 1595.5 c 128,-1,103
 747 1551 747 1551 747 1498 c 0,104,105
 747 1423 747 1423 711 1367.5 c 128,-1,106
 675 1312 675 1312 604 1270 c 2,107,-1
 509 1215 l 1,108,109
 660 1204 660 1204 739 1128 c 128,-1,110
 818 1052 818 1052 818 906 c 0,111,112
 818 822 818 822 785 750.5 c 128,-1,113
 752 679 752 679 694.5 627 c 128,-1,114
 637 575 637 575 560 545.5 c 128,-1,115
 483 516 483 516 395 516 c 0,116,117
 333 516 333 516 275.5 525 c 128,-1,118
 218 534 218 534 174 551.5 c 128,-1,119
 130 569 130 569 103 594 c 128,-1,120
 76 619 76 619 76 651 c 0,121,122
 76 677 76 677 91.5 690 c 128,-1,123
 107 703 107 703 131 703 c 0,124,125
 156 703 156 703 186 688 c 0,126,127
 277 643 277 643 365 643 c 0,128,129
 447 643 447 643 502.5 666.5 c 128,-1,130
 558 690 558 690 591.5 729 c 128,-1,131
 625 768 625 768 639 817.5 c 128,-1,132
 653 867 653 867 653 919 c 0,133,134
 653 965 653 965 640.5 1003 c 128,-1,135
 628 1041 628 1041 603 1068 c 128,-1,136
 578 1095 578 1095 542 1110 c 128,-1,137
 506 1125 506 1125 458 1125 c 1,68,-1
EndSplineSet
EndChar

